<?xml version="1.0" encoding="UTF-8" standalone="no"?>
<!-- Generator: Adobe Illustrator 23.0.1, SVG Export Plug-In . SVG Version: 6.00 Build 0)  -->

<svg
   xmlns:dc="http://purl.org/dc/elements/1.1/"
   xmlns:cc="http://creativecommons.org/ns#"
   xmlns:rdf="http://www.w3.org/1999/02/22-rdf-syntax-ns#"
   xmlns:svg="http://www.w3.org/2000/svg"
   xmlns="http://www.w3.org/2000/svg"
   xmlns:sodipodi="http://sodipodi.sourceforge.net/DTD/sodipodi-0.dtd"
   xmlns:inkscape="http://www.inkscape.org/namespaces/inkscape"
   version="1.1"
   id="Calque_1"
   x="0px"
   y="0px"
   viewBox="0 0 397.86109 278.65353"
   xml:space="preserve"
   sodipodi:docname="Logo80ANS_OR.svg"
   width="397.86111"
   height="278.65353"
   inkscape:version="0.92.2 2405546, 2018-03-11"><metadata
   id="metadata472"><rdf:RDF><cc:Work
       rdf:about=""><dc:format>image/svg+xml</dc:format><dc:type
         rdf:resource="http://purl.org/dc/dcmitype/StillImage" /><dc:title></dc:title></cc:Work></rdf:RDF></metadata><defs
   id="defs470" /><sodipodi:namedview
   pagecolor="#ffffff"
   bordercolor="#666666"
   borderopacity="1"
   objecttolerance="10"
   gridtolerance="10"
   guidetolerance="10"
   inkscape:pageopacity="0"
   inkscape:pageshadow="2"
   inkscape:window-width="1869"
   inkscape:window-height="1052"
   id="namedview468"
   showgrid="false"
   fit-margin-top="0"
   fit-margin-left="0"
   fit-margin-right="0"
   fit-margin-bottom="0"
   inkscape:zoom="1.0262623"
   inkscape:cx="192.96114"
   inkscape:cy="112.94499"
   inkscape:window-x="51"
   inkscape:window-y="0"
   inkscape:window-maximized="1"
   inkscape:current-layer="Calque_1" />
<style
   type="text/css"
   id="style261">
	.st0{fill:#CB9500;}
	.st1{opacity:0.82;fill:url(#SVGID_1_);}
	.st2{opacity:0.82;fill:url(#SVGID_2_);}
	.st3{opacity:0.82;fill:url(#SVGID_3_);}
	.st4{opacity:0.82;fill:url(#SVGID_4_);}
	.st5{fill:#FFFFFF;}
	.st6{fill:none;stroke:#CB9500;stroke-width:1.5;stroke-miterlimit:10;}
</style>
<g
   id="g465"
   transform="translate(-104.67887,-255.23646)">
	<g
   id="g339">
		<path
   class="st0"
   d="m 363.03,411.47 c -0.63,-0.4 -1.46,-0.12 -1.73,0.57 -8.88,22.48 -19.68,31.74 -34.72,29.56 -17.35,-2.51 -39.26,-18.26 -64.57,-41 8.2,-12.11 18.35,-30.47 23.45,-40.02 5.99,-11.23 13.15,-22.61 27.03,-40.84 14.84,-19.48 29.85,-31.45 41.18,-32.83 6.18,-0.75 11.01,0.86 14.78,4.93 5.79,6.24 8.29,17.29 9.04,29.08 0.03,0.51 0.5,0.86 0.99,0.75 4.61,-1.01 9.38,-1.53 14.29,-1.53 1.14,0 2.28,0.03 3.44,0.08 5.8,0.28 11.76,1.25 17.86,2.88 0.69,0.18 1.36,-0.38 1.25,-1.08 -1.85,-12.5 -9.11,-27.29 -18.96,-34.17 -11.47,-8.02 -26.94,-11.13 -44.04,-8.12 -14.69,2.59 -38.36,12.18 -67.72,43.14 -14.34,15.12 -35.12,44.26 -44.39,57.38 -2.6,-2.52 -5.26,-5.12 -8.01,-7.86 -11.29,-11.22 -20.34,-21.24 -27.38,-30.24 47.67,-15.4 72.61,-42.56 69.32,-64.05 -1.18,-7.68 -7.61,-15.35 -16.74,-19.47 -8.07,-3.65 -24.92,-4.19 -35.59,-2.41 -10.5,1.75 -26.04,6.79 -40.46,20.86 -12.48,12.18 -18.66,25.32 -19.01,36.6 -0.58,18.81 11.25,33.81 11.25,33.81 -18.6,8.01 -37.83,16.29 -50.85,28.5 -17.01,15.94 -19.04,32.64 -17.74,43.84 1.82,15.76 13.97,23.56 21.16,26.91 11.77,5.49 38.37,5.01 49.44,3.3 25.92,-4.02 49.9,-13.2 71.09,-32.56 27.14,19.33 52.85,30.22 76.91,33 17.01,1.96 34.71,-1.51 47.08,-7.56 7.21,-3.53 15.72,-9.83 23.58,-20.95 0.35,-0.49 0,-1.17 -0.6,-1.19 -11.35,-0.4 -21.27,-3.42 -30.63,-9.31 z M 193.48,277.82 c 8.89,-8.69 19.69,-12.26 31.41,-13.84 6.63,-0.9 11.84,-0.12 16.41,2.45 4.31,2.42 9.11,9.45 9.53,14.2 0.61,6.97 0.44,13.24 -7.47,23.45 -12.92,16.67 -31.08,26.45 -43.12,31.99 -9.14,-12.77 -13.87,-23.38 -14.84,-32.46 -0.6,-8.92 0.51,-18.4 8.08,-25.79 z m -20.3,164.72 c -9.24,1.38 -16.99,-0.27 -23.05,-4.92 -5.85,-4.49 -9.73,-11.69 -10.66,-19.77 -3,-26.25 8.39,-45.82 38.67,-63.56 7.81,11.4 19.46,24.57 36.84,38.75 3.75,3.06 7.32,5.92 10.77,8.65 -17.29,24.07 -35.74,38.33 -52.57,40.85 z"
   id="path263"
   inkscape:connector-curvature="0"
   style="fill:#cb9500" />
		<linearGradient
   id="SVGID_1_"
   gradientUnits="userSpaceOnUse"
   x1="149.7402"
   y1="366.32721"
   x2="177.25011"
   y2="349.18259">
			<stop
   offset="0.1067"
   style="stop-color:#CB9500"
   id="stop265" />
			<stop
   offset="0.194"
   style="stop-color:#C79200"
   id="stop267" />
			<stop
   offset="0.3157"
   style="stop-color:#BA8900"
   id="stop269" />
			<stop
   offset="0.4577"
   style="stop-color:#A47A00"
   id="stop271" />
			<stop
   offset="0.6149"
   style="stop-color:#846402"
   id="stop273" />
			<stop
   offset="0.7825"
   style="stop-color:#594405"
   id="stop275" />
			<stop
   offset="0.9404"
   style="stop-color:#000000"
   id="stop277" />
			<stop
   offset="0.9947"
   style="stop-color:#000000"
   id="stop279" />
		</linearGradient>
		<path
   class="st1"
   d="m 154.57,372.08 c 6.05,-6.17 16.11,-13.25 23.57,-17.78 0,0 -1.41,-2.08 -2.35,-3.46 -0.82,-1.21 -2.2,-3.32 -2.2,-3.32 l -0.16,0.07 c -6.67,2.87 -22.74,9.87 -29.37,13.53 z"
   id="path282"
   inkscape:connector-curvature="0"
   style="opacity:0.8199999;fill:url(#SVGID_1_)" />
		<linearGradient
   id="SVGID_2_"
   gradientUnits="userSpaceOnUse"
   x1="212.29919"
   y1="433.5657"
   x2="237.2668"
   y2="408.5817">
			<stop
   offset="0.1067"
   style="stop-color:#CB9500"
   id="stop284" />
			<stop
   offset="0.194"
   style="stop-color:#C79200"
   id="stop286" />
			<stop
   offset="0.3157"
   style="stop-color:#BA8900"
   id="stop288" />
			<stop
   offset="0.4577"
   style="stop-color:#A47A00"
   id="stop290" />
			<stop
   offset="0.6149"
   style="stop-color:#846402"
   id="stop292" />
			<stop
   offset="0.7825"
   style="stop-color:#594405"
   id="stop294" />
			<stop
   offset="0.9404"
   style="stop-color:#000000"
   id="stop296" />
			<stop
   offset="0.9947"
   style="stop-color:#000000"
   id="stop298" />
		</linearGradient>
		<path
   class="st2"
   d="m 246.66,417.47 c 0,0 -4.88,-3.33 -10.78,-7.75 -5.9,-4.42 -10.05,-7.98 -10.05,-7.98 -7.37,10.26 -14.94,18.72 -22.52,25.25 l 10.68,11.99 c 11.48,-5.16 22.41,-12.13 32.67,-21.51 z"
   id="path301"
   inkscape:connector-curvature="0"
   style="opacity:0.8199999;fill:url(#SVGID_2_)" />
		<linearGradient
   id="SVGID_3_"
   gradientUnits="userSpaceOnUse"
   x1="270.18411"
   y1="363.71429"
   x2="249.16029"
   y2="393.241">
			<stop
   offset="0.1067"
   style="stop-color:#CB9500"
   id="stop303" />
			<stop
   offset="0.1888"
   style="stop-color:#C79200"
   id="stop305" />
			<stop
   offset="0.3032"
   style="stop-color:#BA8900"
   id="stop307" />
			<stop
   offset="0.4366"
   style="stop-color:#A47A00"
   id="stop309" />
			<stop
   offset="0.5844"
   style="stop-color:#846402"
   id="stop311" />
			<stop
   offset="0.742"
   style="stop-color:#594405"
   id="stop313" />
			<stop
   offset="0.8904"
   style="stop-color:#000000"
   id="stop315" />
		</linearGradient>
		<path
   class="st3"
   d="m 262.01,400.6 c 7.49,-11.06 16.67,-27.56 21.99,-37.34 l -19.34,-16.23 c -9.67,12.57 -18.99,25.66 -24.38,33.3 0,0 5.5,5.51 11.37,10.91 5.72,5.26 10.36,9.36 10.36,9.36 z"
   id="path318"
   inkscape:connector-curvature="0"
   style="opacity:0.8199999;fill:url(#SVGID_3_)" />
		<linearGradient
   id="SVGID_4_"
   gradientUnits="userSpaceOnUse"
   x1="229.44141"
   y1="325.68771"
   x2="201.02"
   y2="339.59219">
			<stop
   offset="0.1067"
   style="stop-color:#CB9500"
   id="stop320" />
			<stop
   offset="0.194"
   style="stop-color:#C79200"
   id="stop322" />
			<stop
   offset="0.3157"
   style="stop-color:#BA8900"
   id="stop324" />
			<stop
   offset="0.4577"
   style="stop-color:#A47A00"
   id="stop326" />
			<stop
   offset="0.6149"
   style="stop-color:#846402"
   id="stop328" />
			<stop
   offset="0.7825"
   style="stop-color:#594405"
   id="stop330" />
			<stop
   offset="0.9404"
   style="stop-color:#000000"
   id="stop332" />
			<stop
   offset="0.9947"
   style="stop-color:#000000"
   id="stop334" />
		</linearGradient>
		<path
   class="st4"
   d="m 232.77,330.52 -6.23,-9.95 c -9.32,7.15 -18.94,12.11 -26.28,15.49 1.41,1.98 2.92,4 4.55,6.08 10.43,-3.36 19.77,-7.3 27.96,-11.62 z"
   id="path337"
   inkscape:connector-curvature="0"
   style="opacity:0.8199999;fill:url(#SVGID_4_)" />
	</g>
	<g
   id="g353">
		<path
   d="m 391.39,334.48 c -0.63,-0.04 -1.26,-0.06 -1.88,-0.06 -8.69,-0.01 -16.55,3.69 -23.41,11.02 -6.23,6.66 -8.33,12.02 -8.31,18.5 0.01,3.46 0.62,7.24 1.53,11.71 1.71,8.4 6.7,16.52 13.69,22.26 5.35,4.4 11.32,6.64 17.61,6.68 3.26,0.02 6.6,-0.55 9.99,-1.72 10.95,-3.78 21.42,-14.6 25.46,-26.3 1.28,-3.71 1.9,-7.31 1.89,-10.74 -0.03,-8.39 -3.86,-15.74 -11.18,-20.99 -8.88,-6.38 -17.42,-9.87 -25.39,-10.36 z"
   id="path341"
   inkscape:connector-curvature="0" />
		<g
   id="g351">
			<path
   class="st5"
   d="m 378.89,369.62 h -2.41 v 0.07 c -0.02,0.47 -0.3,4.56 -3.96,4.56 -3.27,0 -4.94,-2.93 -4.94,-8.72 0,-5.79 1.66,-8.72 4.94,-8.72 3.73,0 3.95,4.38 3.96,4.56 v 0.07 h 2.41 c 0.22,0 0.44,-0.09 0.59,-0.25 0.15,-0.15 0.22,-0.35 0.21,-0.56 -0.05,-1.14 -0.63,-6.8 -7.21,-6.8 -5.32,0 -8.13,4.04 -8.13,11.69 0,7.66 2.81,11.71 8.13,11.71 6.33,0 7.12,-5.17 7.21,-6.76 0.02,-0.22 -0.06,-0.43 -0.21,-0.59 -0.15,-0.17 -0.37,-0.26 -0.59,-0.26 z"
   id="path343"
   inkscape:connector-curvature="0"
   style="fill:#ffffff" />
			<path
   class="st5"
   d="m 416.29,364.14 v 0 l -2.07,-0.9 c -1.99,-0.88 -2.7,-1.73 -2.7,-3.26 0,-1.99 1.46,-3.33 3.63,-3.33 1.28,0 2.34,0.26 3.62,1.57 l 0.07,0.07 1.11,-1.01 c 0.64,-0.59 0.46,-1.13 0.19,-1.47 -1.08,-1.27 -2.81,-1.97 -4.88,-1.97 -3.99,0 -6.89,2.6 -6.89,6.19 0,3.53 2.22,5 4.62,6.07 l 2.12,0.94 c 2.13,0.95 3.14,1.77 3.14,3.81 0,2.79 -2.52,3.53 -4.01,3.53 -1.28,0 -2.71,-0.27 -4.46,-2.26 l -0.07,-0.08 -1.15,1.01 c -0.59,0.52 -0.6,0.97 -0.02,1.71 1.59,2.04 3.91,2.47 5.58,2.47 3.62,0 7.28,-2.22 7.28,-6.47 -0.01,-3.67 -2.05,-5.3 -5.11,-6.62 z"
   id="path345"
   inkscape:connector-curvature="0"
   style="fill:#ffffff" />
			<path
   class="st5"
   d="m 395.85,360.53 c 0,-3.61 -2.93,-6.67 -6.54,-6.67 -1.7,0 -3.25,0.65 -4.41,1.71 v -1.24 h -2.18 c -0.66,0 -0.91,0.43 -0.91,0.92 v 21.08 c 0,0.59 0.36,0.91 0.9,0.91 h 2.18 c 0,0 0,-16.57 0,-16.58 0,-2.18 1.77,-3.94 3.94,-3.94 2.18,0 3.94,1.77 3.94,3.94 0,0 0,16.58 0,16.58 h 2.16 c 0.6,0 0.91,-0.33 0.91,-0.91 0.01,-0.01 0.01,-15.78 0.01,-15.8 z"
   id="path347"
   inkscape:connector-curvature="0"
   style="fill:#ffffff" />
			<path
   class="st5"
   d="m 408.33,355.43 c 0.11,-0.14 0.18,-0.32 0.18,-0.51 0,-0.36 -0.24,-0.67 -0.56,-0.78 -0.63,-0.21 -1.3,-0.33 -2,-0.33 -1.7,0 -3.25,0.65 -4.41,1.71 v -1.24 h -2.18 c -0.66,0 -0.91,0.43 -0.91,0.92 v 21.08 c 0,0.59 0.36,0.91 0.9,0.91 h 2.18 c 0,0 0,-16.57 0,-16.57 0,-2.18 1.77,-3.94 3.94,-3.94 0.57,0 1.11,0.12 1.6,0.34 z"
   id="path349"
   inkscape:connector-curvature="0"
   style="fill:#ffffff" />
		</g>
	</g>
	<g
   id="g461">
		<path
   d="m 142.35,490.06 c 1.46,1.47 2.19,3.61 2.19,6.41 0,1.81 -0.36,3.4 -1.07,4.76 -0.71,1.36 -1.75,2.41 -3.1,3.15 -1.35,0.74 -2.97,1.11 -4.84,1.11 l -1.44,-0.03 c -0.93,-0.03 -1.61,-0.05 -2.04,-0.05 -1.36,0 -2.39,0.03 -3.09,0.08 v -0.5 c 0.6,-0.03 1.03,-0.1 1.31,-0.2 0.28,-0.1 0.46,-0.29 0.56,-0.57 0.1,-0.28 0.15,-0.74 0.15,-1.37 V 490.5 c 0,-0.63 -0.05,-1.09 -0.15,-1.37 -0.1,-0.28 -0.29,-0.47 -0.56,-0.57 -0.27,-0.1 -0.71,-0.17 -1.31,-0.2 v -0.5 c 0.58,0.05 1.39,0.08 2.42,0.08 l 2.12,-0.03 c 1.13,-0.03 1.88,-0.05 2.27,-0.05 2.92,0 5.12,0.73 6.58,2.2 z m -8.38,-1.58 c -0.26,0.12 -0.44,0.32 -0.54,0.62 -0.1,0.3 -0.15,0.75 -0.15,1.35 v 12.45 c 0,0.6 0.05,1.05 0.15,1.35 0.1,0.3 0.28,0.51 0.54,0.62 0.26,0.11 0.65,0.17 1.18,0.17 1.76,0 3.15,-0.32 4.16,-0.96 1.01,-0.64 1.72,-1.57 2.13,-2.8 0.41,-1.23 0.61,-2.8 0.61,-4.71 0,-1.91 -0.22,-3.47 -0.67,-4.67 -0.45,-1.2 -1.17,-2.11 -2.18,-2.7 -1,-0.6 -2.36,-0.9 -4.07,-0.9 -0.52,0 -0.9,0.06 -1.16,0.18 z"
   id="path355"
   inkscape:connector-curvature="0" />
		<path
   d="m 157.44,502.5 c -0.3,0.91 -0.86,1.7 -1.68,2.35 -0.82,0.66 -1.81,0.98 -2.98,0.98 -1.18,0 -2.2,-0.27 -3.06,-0.81 -0.86,-0.54 -1.52,-1.29 -1.98,-2.27 -0.46,-0.97 -0.69,-2.1 -0.69,-3.38 0,-1.44 0.23,-2.7 0.7,-3.76 0.46,-1.06 1.12,-1.88 1.97,-2.45 0.85,-0.57 1.83,-0.86 2.96,-0.86 1.49,0 2.64,0.45 3.45,1.36 0.81,0.91 1.21,2.28 1.21,4.12 h -7.8 c -0.05,0.46 -0.07,1 -0.07,1.59 0,1.1 0.18,2.05 0.54,2.86 0.36,0.81 0.83,1.44 1.42,1.88 0.59,0.44 1.21,0.66 1.86,0.66 0.8,0 1.5,-0.19 2.12,-0.57 0.61,-0.38 1.13,-1.02 1.54,-1.92 z m -6.87,-8.57 c -0.56,0.76 -0.91,1.89 -1.05,3.39 h 5.43 c 0.03,-1.3 -0.15,-2.38 -0.56,-3.24 -0.41,-0.86 -1.01,-1.29 -1.81,-1.29 -0.77,0 -1.44,0.38 -2.01,1.14 z"
   id="path357"
   inkscape:connector-curvature="0" />
		<path
   d="m 169.56,493.04 c 0.71,0.48 1.26,1.19 1.66,2.12 0.4,0.93 0.6,2.04 0.6,3.34 0,1.28 -0.2,2.47 -0.61,3.59 -0.41,1.12 -1.04,2.02 -1.89,2.71 -0.86,0.7 -1.92,1.05 -3.2,1.05 -0.63,0 -1.2,-0.12 -1.72,-0.37 -0.52,-0.25 -0.91,-0.57 -1.2,-0.97 v 3.19 c 0,0.68 0.2,1.15 0.6,1.41 0.4,0.26 1,0.39 1.79,0.39 v 0.5 l -0.57,-0.03 c -1.54,-0.05 -2.55,-0.07 -3.01,-0.07 -0.4,0 -1.29,0.03 -2.69,0.1 v -0.52 c 0.61,0 1.04,-0.11 1.28,-0.34 0.24,-0.22 0.36,-0.63 0.36,-1.21 v -12.55 c 0,-0.76 -0.14,-1.32 -0.42,-1.67 -0.28,-0.35 -0.77,-0.52 -1.47,-0.52 v -0.52 c 0.51,0.05 1.03,0.08 1.54,0.08 1.05,0 1.91,-0.12 2.59,-0.35 v 2.64 c 0.37,-0.86 0.9,-1.53 1.59,-2 0.7,-0.47 1.49,-0.71 2.39,-0.71 0.88,-0.02 1.68,0.22 2.38,0.71 z m -0.16,5.8 c 0,-3.85 -0.96,-5.78 -2.89,-5.78 -0.75,0 -1.42,0.27 -2.02,0.81 -0.6,0.54 -1.03,1.32 -1.3,2.33 v 7.47 c 0.23,0.48 0.57,0.87 1.02,1.16 0.45,0.29 0.99,0.44 1.62,0.44 2.38,-0.01 3.57,-2.15 3.57,-6.43 z"
   id="path359"
   inkscape:connector-curvature="0" />
		<path
   d="m 185.02,502.8 c 0,0.76 0.14,1.32 0.42,1.67 0.28,0.35 0.77,0.52 1.47,0.52 v 0.52 c -0.51,-0.05 -1.03,-0.07 -1.54,-0.07 -1.05,0 -1.91,0.12 -2.59,0.35 v -2.94 c -0.4,1.03 -0.96,1.79 -1.69,2.27 -0.73,0.48 -1.53,0.72 -2.39,0.72 -1.13,0 -1.99,-0.32 -2.59,-0.95 -0.3,-0.33 -0.51,-0.76 -0.64,-1.27 -0.13,-0.51 -0.19,-1.18 -0.19,-1.99 v -6.25 c 0,-0.76 -0.14,-1.32 -0.42,-1.67 -0.28,-0.35 -0.77,-0.52 -1.47,-0.52 v -0.52 c 0.51,0.05 1.03,0.08 1.54,0.08 1.05,0 1.91,-0.12 2.59,-0.35 v 9.79 c 0,0.63 0.04,1.14 0.11,1.53 0.07,0.39 0.25,0.71 0.52,0.96 0.27,0.25 0.69,0.37 1.26,0.37 0.63,0 1.2,-0.2 1.72,-0.6 0.52,-0.4 0.92,-0.94 1.21,-1.63 0.29,-0.69 0.44,-1.45 0.44,-2.28 v -5.16 c 0,-0.76 -0.14,-1.32 -0.42,-1.67 -0.28,-0.35 -0.77,-0.52 -1.47,-0.52 v -0.52 c 0.51,0.05 1.03,0.08 1.54,0.08 1.05,0 1.91,-0.12 2.59,-0.35 z"
   id="path361"
   inkscape:connector-curvature="0" />
		<path
   d="m 192.31,503.17 c 0,0.68 0.14,1.15 0.42,1.41 0.28,0.26 0.77,0.39 1.47,0.39 v 0.52 c -1.53,-0.07 -2.53,-0.1 -3.01,-0.1 -0.48,0 -1.49,0.03 -3.01,0.1 v -0.52 c 0.7,0 1.19,-0.13 1.47,-0.39 0.28,-0.26 0.42,-0.73 0.42,-1.41 v -7.8 c 0,-0.76 -0.14,-1.32 -0.42,-1.67 -0.28,-0.35 -0.77,-0.52 -1.47,-0.52 v -0.52 c 0.53,0.05 1.05,0.08 1.54,0.08 1.05,0 1.91,-0.12 2.59,-0.35 z m -0.17,-16.26 c 0.32,0.32 0.47,0.69 0.47,1.12 0,0.43 -0.16,0.81 -0.47,1.12 -0.32,0.32 -0.69,0.47 -1.12,0.47 -0.43,0 -0.81,-0.16 -1.12,-0.47 -0.32,-0.31 -0.47,-0.69 -0.47,-1.12 0,-0.43 0.16,-0.81 0.47,-1.12 0.31,-0.32 0.69,-0.47 1.12,-0.47 0.43,0 0.8,0.15 1.12,0.47 z"
   id="path363"
   inkscape:connector-curvature="0" />
		<path
   d="m 201.53,492.59 c 0.46,0.18 0.84,0.4 1.12,0.65 0.18,0.13 0.33,0.2 0.45,0.2 0.3,0 0.48,-0.37 0.55,-1.1 h 0.57 c -0.07,0.81 -0.1,2.22 -0.1,4.23 h -0.57 c -0.18,-1.1 -0.54,-2 -1.06,-2.71 -0.52,-0.71 -1.3,-1.07 -2.33,-1.07 -0.6,0 -1.09,0.17 -1.47,0.51 -0.38,0.34 -0.57,0.81 -0.57,1.41 0,0.58 0.2,1.07 0.6,1.46 0.4,0.39 1.04,0.86 1.92,1.41 0.15,0.08 0.37,0.22 0.67,0.42 0.76,0.5 1.38,0.94 1.84,1.32 0.46,0.38 0.84,0.82 1.13,1.32 0.29,0.5 0.44,1.07 0.44,1.72 0,1.1 -0.41,1.95 -1.23,2.57 -0.82,0.62 -1.83,0.92 -3.03,0.92 -0.75,0 -1.4,-0.12 -1.97,-0.35 -0.37,-0.18 -0.71,-0.41 -1.02,-0.67 -0.07,-0.07 -0.14,-0.1 -0.22,-0.1 -0.12,0 -0.22,0.08 -0.31,0.25 -0.09,0.17 -0.16,0.4 -0.21,0.7 h -0.57 c 0.07,-0.95 0.1,-2.61 0.1,-4.98 h 0.57 c 0.18,1.56 0.51,2.73 1,3.5 0.48,0.77 1.3,1.16 2.47,1.16 0.58,0 1.1,-0.19 1.54,-0.57 0.44,-0.38 0.67,-0.98 0.67,-1.79 0,-0.65 -0.22,-1.2 -0.66,-1.64 -0.44,-0.45 -1.16,-0.99 -2.15,-1.62 -0.81,-0.51 -1.44,-0.94 -1.88,-1.27 -0.44,-0.33 -0.81,-0.74 -1.11,-1.22 -0.3,-0.48 -0.45,-1.05 -0.45,-1.69 0,-1.05 0.35,-1.84 1.05,-2.39 0.7,-0.55 1.58,-0.82 2.64,-0.82 0.58,-0.04 1.11,0.06 1.58,0.24 z"
   id="path365"
   inkscape:connector-curvature="0" />
		<path
   d="m 221.88,497.21 c 0.51,0.46 0.96,1.01 1.33,1.66 0.37,0.65 0.56,1.39 0.56,2.22 0,0.93 -0.23,1.76 -0.7,2.48 -0.46,0.72 -1.1,1.28 -1.92,1.68 -0.81,0.4 -1.74,0.6 -2.76,0.6 -1.41,0 -2.6,-0.36 -3.56,-1.08 -0.96,-0.72 -1.44,-1.76 -1.44,-3.1 0,-1.15 0.37,-2.17 1.1,-3.06 0.73,-0.9 1.69,-1.64 2.89,-2.24 -1.01,-0.83 -1.79,-1.62 -2.34,-2.37 -0.55,-0.75 -0.82,-1.61 -0.82,-2.59 0,-0.76 0.2,-1.44 0.6,-2.03 0.4,-0.59 0.95,-1.05 1.64,-1.37 0.7,-0.32 1.47,-0.49 2.32,-0.49 1.18,0 2.16,0.3 2.94,0.9 0.78,0.6 1.17,1.44 1.17,2.52 0,0.9 -0.27,1.72 -0.82,2.47 -0.55,0.75 -1.33,1.45 -2.34,2.12 0.91,0.65 1.63,1.22 2.15,1.68 z m -1.12,7.31 c 0.6,-0.58 0.9,-1.38 0.9,-2.39 0,-0.78 -0.18,-1.48 -0.54,-2.1 -0.36,-0.62 -0.78,-1.16 -1.27,-1.61 -0.49,-0.45 -1.19,-1.04 -2.1,-1.77 -1.44,1.05 -2.17,2.59 -2.17,4.63 0,1.18 0.24,2.16 0.72,2.94 0.48,0.78 1.23,1.17 2.24,1.17 0.88,0 1.62,-0.29 2.22,-0.87 z m -3.95,-15.84 c -0.44,0.48 -0.66,1.13 -0.66,1.94 0,0.95 0.27,1.76 0.81,2.43 0.54,0.67 1.33,1.4 2.38,2.18 1.03,-0.98 1.54,-2.31 1.54,-3.98 0,-1 -0.21,-1.79 -0.62,-2.39 -0.41,-0.6 -1,-0.9 -1.77,-0.9 -0.68,-0.01 -1.24,0.24 -1.68,0.72 z"
   id="path367"
   inkscape:connector-curvature="0" />
		<path
   d="m 235.75,493.12 c 0.91,0.54 1.63,1.31 2.14,2.3 0.51,1 0.77,2.14 0.77,3.44 0,1.33 -0.27,2.52 -0.8,3.57 -0.53,1.05 -1.27,1.88 -2.23,2.49 -0.96,0.61 -2.05,0.91 -3.28,0.91 -1.15,0 -2.18,-0.27 -3.09,-0.81 -0.91,-0.54 -1.63,-1.31 -2.15,-2.3 -0.52,-0.99 -0.78,-2.15 -0.78,-3.46 0,-1.31 0.26,-2.5 0.78,-3.55 0.52,-1.05 1.26,-1.88 2.22,-2.49 0.95,-0.61 2.05,-0.91 3.3,-0.91 1.17,0 2.2,0.27 3.12,0.81 z m -5.24,0.4 c -0.56,0.51 -0.99,1.25 -1.29,2.22 -0.31,0.97 -0.46,2.12 -0.46,3.45 0,2.11 0.36,3.67 1.07,4.68 0.71,1.01 1.64,1.52 2.76,1.52 0.71,0 1.35,-0.26 1.91,-0.77 0.56,-0.51 0.99,-1.26 1.3,-2.23 0.31,-0.97 0.46,-2.12 0.46,-3.45 0,-2.09 -0.36,-3.64 -1.07,-4.66 -0.71,-1.01 -1.64,-1.52 -2.76,-1.52 -0.73,0 -1.37,0.26 -1.92,0.76 z"
   id="path369"
   inkscape:connector-curvature="0" />
		<path
   d="m 247.91,504.88 c -0.51,-0.52 -0.76,-1.25 -0.76,-2.18 0,-0.75 0.2,-1.36 0.61,-1.84 0.41,-0.48 0.89,-0.86 1.44,-1.15 0.55,-0.29 1.29,-0.58 2.2,-0.9 0.93,-0.32 1.62,-0.61 2.07,-0.87 0.45,-0.26 0.67,-0.62 0.67,-1.07 v -1.54 c 0,-0.96 -0.2,-1.62 -0.61,-1.98 -0.41,-0.36 -0.98,-0.54 -1.71,-0.54 -1.16,0 -1.98,0.3 -2.47,0.9 0.33,0.08 0.61,0.26 0.83,0.52 0.22,0.26 0.34,0.6 0.34,1 0,0.42 -0.13,0.74 -0.4,0.98 -0.27,0.24 -0.61,0.36 -1.02,0.36 -0.47,0 -0.81,-0.14 -1.05,-0.44 -0.23,-0.29 -0.35,-0.64 -0.35,-1.06 0,-0.4 0.1,-0.73 0.29,-1 0.19,-0.27 0.48,-0.53 0.86,-0.8 0.4,-0.28 0.9,-0.51 1.52,-0.7 0.62,-0.19 1.29,-0.27 2.02,-0.27 1.29,0 2.27,0.31 2.94,0.92 0.41,0.38 0.69,0.84 0.83,1.38 0.14,0.54 0.21,1.25 0.21,2.13 v 6.92 c 0,0.42 0.06,0.71 0.17,0.9 0.11,0.19 0.32,0.27 0.6,0.27 0.2,0 0.39,-0.05 0.56,-0.14 0.17,-0.09 0.36,-0.22 0.56,-0.39 l 0.27,0.42 c -0.43,0.33 -0.8,0.57 -1.11,0.71 -0.31,0.14 -0.69,0.21 -1.16,0.21 -0.8,0 -1.35,-0.2 -1.67,-0.6 -0.32,-0.4 -0.47,-0.94 -0.47,-1.62 -0.5,0.83 -1.07,1.41 -1.72,1.73 -0.65,0.32 -1.38,0.49 -2.19,0.49 -1.01,0.03 -1.79,-0.23 -2.3,-0.75 z m 6.24,-2.11 v -4.88 c -0.15,0.23 -0.36,0.42 -0.62,0.57 -0.26,0.15 -0.67,0.35 -1.22,0.6 -0.63,0.27 -1.14,0.52 -1.53,0.76 -0.39,0.24 -0.73,0.57 -1.01,0.98 -0.28,0.42 -0.42,0.95 -0.42,1.59 0,0.75 0.18,1.31 0.55,1.69 0.37,0.38 0.85,0.57 1.44,0.57 1.09,0.02 2.03,-0.61 2.81,-1.88 z"
   id="path371"
   inkscape:connector-curvature="0" />
		<path
   d="m 270.32,493.26 c 0.32,0.33 0.54,0.75 0.67,1.25 0.13,0.5 0.2,1.17 0.2,2.02 v 6.65 c 0,0.68 0.14,1.15 0.42,1.41 0.28,0.26 0.77,0.39 1.47,0.39 v 0.52 c -1.53,-0.07 -2.52,-0.1 -2.99,-0.1 -0.47,0 -1.39,0.03 -2.79,0.1 v -0.52 c 0.61,0 1.04,-0.13 1.28,-0.39 0.24,-0.26 0.36,-0.73 0.36,-1.41 v -7.2 c 0,-0.93 -0.13,-1.64 -0.4,-2.13 -0.27,-0.49 -0.81,-0.74 -1.62,-0.74 -0.68,0 -1.29,0.2 -1.82,0.6 -0.53,0.4 -0.94,0.94 -1.23,1.63 -0.29,0.69 -0.44,1.46 -0.44,2.3 v 5.53 c 0,0.68 0.12,1.15 0.36,1.41 0.24,0.26 0.67,0.39 1.28,0.39 v 0.52 c -1.4,-0.07 -2.32,-0.1 -2.79,-0.1 -0.47,0 -1.46,0.03 -2.99,0.1 v -0.52 c 0.7,0 1.19,-0.13 1.47,-0.39 0.28,-0.26 0.42,-0.73 0.42,-1.41 v -7.8 c 0,-0.76 -0.14,-1.32 -0.42,-1.67 -0.28,-0.35 -0.77,-0.52 -1.47,-0.52 v -0.52 c 0.53,0.05 1.05,0.08 1.54,0.08 1.05,0 1.91,-0.12 2.59,-0.35 v 2.94 c 0.42,-1.06 0.99,-1.83 1.73,-2.3 0.74,-0.47 1.57,-0.71 2.5,-0.71 1.19,-0.01 2.07,0.31 2.67,0.94 z"
   id="path373"
   inkscape:connector-curvature="0" />
		<path
   d="m 280.23,492.59 c 0.46,0.18 0.84,0.4 1.12,0.65 0.18,0.13 0.33,0.2 0.45,0.2 0.3,0 0.48,-0.37 0.55,-1.1 h 0.57 c -0.07,0.81 -0.1,2.22 -0.1,4.23 h -0.57 c -0.18,-1.1 -0.54,-2 -1.06,-2.71 -0.52,-0.71 -1.3,-1.07 -2.33,-1.07 -0.6,0 -1.09,0.17 -1.47,0.51 -0.38,0.34 -0.57,0.81 -0.57,1.41 0,0.58 0.2,1.07 0.6,1.46 0.4,0.39 1.04,0.86 1.92,1.41 0.15,0.08 0.37,0.22 0.67,0.42 0.76,0.5 1.38,0.94 1.84,1.32 0.46,0.38 0.84,0.82 1.13,1.32 0.29,0.5 0.44,1.07 0.44,1.72 0,1.1 -0.41,1.95 -1.23,2.57 -0.82,0.62 -1.83,0.92 -3.03,0.92 -0.75,0 -1.4,-0.12 -1.97,-0.35 -0.37,-0.18 -0.71,-0.41 -1.02,-0.67 -0.07,-0.07 -0.14,-0.1 -0.22,-0.1 -0.12,0 -0.22,0.08 -0.31,0.25 -0.09,0.17 -0.16,0.4 -0.21,0.7 h -0.57 c 0.07,-0.95 0.1,-2.61 0.1,-4.98 h 0.57 c 0.18,1.56 0.51,2.73 1,3.5 0.48,0.77 1.3,1.16 2.47,1.16 0.58,0 1.1,-0.19 1.54,-0.57 0.44,-0.38 0.67,-0.98 0.67,-1.79 0,-0.65 -0.22,-1.2 -0.66,-1.64 -0.44,-0.45 -1.16,-0.99 -2.15,-1.62 -0.81,-0.51 -1.44,-0.94 -1.88,-1.27 -0.44,-0.33 -0.81,-0.74 -1.11,-1.22 -0.3,-0.48 -0.45,-1.05 -0.45,-1.69 0,-1.05 0.35,-1.84 1.05,-2.39 0.7,-0.55 1.58,-0.82 2.64,-0.82 0.58,-0.04 1.11,0.06 1.58,0.24 z"
   id="path375"
   inkscape:connector-curvature="0" />
		<path
   d="m 289.19,503.45 c 0.28,0.45 0.42,1 0.42,1.64 0,0.83 -0.21,1.58 -0.63,2.24 -0.42,0.66 -1.07,1.2 -1.93,1.59 l -0.22,-0.45 c 0.51,-0.22 0.96,-0.56 1.33,-1.02 0.37,-0.47 0.56,-0.94 0.56,-1.42 0,-0.2 -0.02,-0.37 -0.07,-0.52 -0.27,0.22 -0.57,0.32 -0.92,0.32 -0.45,0 -0.83,-0.15 -1.13,-0.44 -0.31,-0.29 -0.46,-0.68 -0.46,-1.16 0,-0.45 0.15,-0.83 0.46,-1.13 0.31,-0.31 0.69,-0.46 1.13,-0.46 0.64,0.01 1.13,0.28 1.46,0.81 z"
   id="path377"
   inkscape:connector-curvature="0" />
		<path
   d="m 309.02,493.26 c 0.32,0.33 0.54,0.75 0.67,1.25 0.13,0.5 0.2,1.17 0.2,2.02 v 6.65 c 0,0.68 0.14,1.15 0.42,1.41 0.28,0.26 0.77,0.39 1.47,0.39 v 0.52 c -1.53,-0.07 -2.52,-0.1 -2.99,-0.1 -0.47,0 -1.39,0.03 -2.79,0.1 v -0.52 c 0.61,0 1.04,-0.13 1.28,-0.39 0.24,-0.26 0.36,-0.73 0.36,-1.41 v -7.2 c 0,-0.93 -0.13,-1.64 -0.4,-2.13 -0.27,-0.49 -0.81,-0.74 -1.62,-0.74 -0.68,0 -1.29,0.2 -1.82,0.6 -0.53,0.4 -0.94,0.94 -1.23,1.63 -0.29,0.69 -0.44,1.46 -0.44,2.3 v 5.53 c 0,0.68 0.12,1.15 0.36,1.41 0.24,0.26 0.67,0.39 1.28,0.39 v 0.52 c -1.4,-0.07 -2.32,-0.1 -2.79,-0.1 -0.47,0 -1.46,0.03 -2.99,0.1 v -0.52 c 0.7,0 1.19,-0.13 1.47,-0.39 0.28,-0.26 0.42,-0.73 0.42,-1.41 v -7.8 c 0,-0.76 -0.14,-1.32 -0.42,-1.67 -0.28,-0.35 -0.77,-0.52 -1.47,-0.52 v -0.52 c 0.53,0.05 1.05,0.08 1.54,0.08 1.05,0 1.91,-0.12 2.59,-0.35 v 2.94 c 0.42,-1.06 0.99,-1.83 1.73,-2.3 0.74,-0.47 1.57,-0.71 2.5,-0.71 1.19,-0.01 2.07,0.31 2.67,0.94 z"
   id="path379"
   inkscape:connector-curvature="0" />
		<path
   d="m 323.08,493.99 c 1.04,1.12 1.56,2.82 1.56,5.09 0,2.28 -0.52,3.97 -1.56,5.08 -1.04,1.11 -2.4,1.67 -4.1,1.67 -1.7,0 -3.06,-0.56 -4.1,-1.67 -1.04,-1.11 -1.56,-2.81 -1.56,-5.08 0,-2.27 0.52,-3.97 1.56,-5.09 1.04,-1.12 2.4,-1.68 4.1,-1.68 1.7,0 3.06,0.56 4.1,1.68 z m -6.47,0.35 c -0.58,1.02 -0.87,2.6 -0.87,4.74 0,2.14 0.29,3.72 0.87,4.73 0.58,1.01 1.37,1.52 2.37,1.52 1,0 1.78,-0.51 2.37,-1.52 0.58,-1.01 0.87,-2.59 0.87,-4.73 0,-2.14 -0.29,-3.72 -0.87,-4.74 -0.58,-1.02 -1.37,-1.53 -2.37,-1.53 -1,0 -1.78,0.51 -2.37,1.53 z"
   id="path381"
   inkscape:connector-curvature="0" />
		<path
   d="m 332.58,492.59 c 0.46,0.18 0.84,0.4 1.12,0.65 0.18,0.13 0.33,0.2 0.45,0.2 0.3,0 0.48,-0.37 0.55,-1.1 h 0.57 c -0.07,0.81 -0.1,2.22 -0.1,4.23 h -0.57 c -0.18,-1.1 -0.54,-2 -1.06,-2.71 -0.52,-0.71 -1.3,-1.07 -2.33,-1.07 -0.6,0 -1.09,0.17 -1.47,0.51 -0.38,0.34 -0.57,0.81 -0.57,1.41 0,0.58 0.2,1.07 0.6,1.46 0.4,0.39 1.04,0.86 1.92,1.41 0.15,0.08 0.37,0.22 0.67,0.42 0.76,0.5 1.38,0.94 1.84,1.32 0.46,0.38 0.84,0.82 1.13,1.32 0.29,0.5 0.44,1.07 0.44,1.72 0,1.1 -0.41,1.95 -1.23,2.57 -0.82,0.62 -1.83,0.92 -3.03,0.92 -0.75,0 -1.4,-0.12 -1.97,-0.35 -0.37,-0.18 -0.71,-0.41 -1.02,-0.67 -0.07,-0.07 -0.14,-0.1 -0.22,-0.1 -0.12,0 -0.22,0.08 -0.31,0.25 -0.09,0.17 -0.16,0.4 -0.21,0.7 h -0.57 c 0.07,-0.95 0.1,-2.61 0.1,-4.98 h 0.57 c 0.18,1.56 0.51,2.73 1,3.5 0.48,0.77 1.3,1.16 2.47,1.16 0.58,0 1.1,-0.19 1.54,-0.57 0.44,-0.38 0.67,-0.98 0.67,-1.79 0,-0.65 -0.22,-1.2 -0.66,-1.64 -0.44,-0.45 -1.16,-0.99 -2.15,-1.62 -0.81,-0.51 -1.44,-0.94 -1.88,-1.27 -0.44,-0.33 -0.81,-0.74 -1.11,-1.22 -0.3,-0.48 -0.45,-1.05 -0.45,-1.69 0,-1.05 0.35,-1.84 1.05,-2.39 0.7,-0.55 1.58,-0.82 2.64,-0.82 0.58,-0.04 1.11,0.06 1.58,0.24 z"
   id="path383"
   inkscape:connector-curvature="0" />
		<path
   d="m 352.98,493.11 c 0.78,0.52 1.17,1.15 1.17,1.92 0,0.43 -0.12,0.77 -0.37,1.02 -0.25,0.25 -0.56,0.37 -0.95,0.37 -0.39,0 -0.71,-0.11 -0.97,-0.34 -0.27,-0.22 -0.4,-0.53 -0.4,-0.91 0,-0.35 0.1,-0.64 0.3,-0.88 0.2,-0.24 0.45,-0.4 0.75,-0.49 -0.17,-0.3 -0.46,-0.55 -0.88,-0.75 -0.42,-0.2 -0.88,-0.3 -1.36,-0.3 -0.61,0 -1.19,0.2 -1.72,0.59 -0.53,0.39 -0.97,1.04 -1.32,1.94 -0.35,0.91 -0.52,2.1 -0.52,3.57 0,2.06 0.33,3.56 1,4.5 0.66,0.94 1.53,1.41 2.59,1.41 0.71,0 1.39,-0.21 2.03,-0.62 0.64,-0.42 1.17,-1.06 1.58,-1.94 l 0.47,0.17 c -0.28,0.95 -0.81,1.76 -1.58,2.44 -0.77,0.68 -1.77,1.02 -3,1.02 -1.03,0 -1.96,-0.27 -2.8,-0.8 -0.84,-0.53 -1.5,-1.3 -1.98,-2.3 -0.48,-1 -0.72,-2.17 -0.72,-3.5 0,-1.34 0.25,-2.54 0.74,-3.59 0.49,-1.05 1.17,-1.86 2.05,-2.45 0.88,-0.59 1.88,-0.88 3.01,-0.88 1.1,0 2.06,0.27 2.88,0.8 z"
   id="path385"
   inkscape:connector-curvature="0" />
		<path
   d="m 366.16,493.99 c 1.04,1.12 1.56,2.82 1.56,5.09 0,2.28 -0.52,3.97 -1.56,5.08 -1.04,1.11 -2.4,1.67 -4.1,1.67 -1.7,0 -3.06,-0.56 -4.1,-1.67 -1.04,-1.11 -1.56,-2.81 -1.56,-5.08 0,-2.27 0.52,-3.97 1.56,-5.09 1.04,-1.12 2.4,-1.68 4.1,-1.68 1.7,0 3.07,0.56 4.1,1.68 z m -6.46,0.35 c -0.58,1.02 -0.87,2.6 -0.87,4.74 0,2.14 0.29,3.72 0.87,4.73 0.58,1.01 1.37,1.52 2.37,1.52 1,0 1.78,-0.51 2.37,-1.52 0.58,-1.01 0.87,-2.59 0.87,-4.73 0,-2.14 -0.29,-3.72 -0.87,-4.74 -0.58,-1.02 -1.37,-1.53 -2.37,-1.53 -1,0 -1.79,0.51 -2.37,1.53 z"
   id="path387"
   inkscape:connector-curvature="0" />
		<path
   d="m 380.62,493.26 c 0.32,0.33 0.54,0.75 0.67,1.25 0.13,0.5 0.2,1.17 0.2,2.02 v 6.65 c 0,0.68 0.14,1.15 0.42,1.41 0.28,0.26 0.77,0.39 1.47,0.39 v 0.52 c -1.53,-0.07 -2.52,-0.1 -2.99,-0.1 -0.47,0 -1.4,0.03 -2.79,0.1 v -0.52 c 0.61,0 1.04,-0.13 1.28,-0.39 0.24,-0.26 0.36,-0.73 0.36,-1.41 v -7.2 c 0,-0.93 -0.13,-1.64 -0.4,-2.13 -0.27,-0.49 -0.8,-0.74 -1.62,-0.74 -0.68,0 -1.29,0.2 -1.82,0.6 -0.53,0.4 -0.94,0.94 -1.23,1.63 -0.29,0.69 -0.44,1.46 -0.44,2.3 v 5.53 c 0,0.68 0.12,1.15 0.36,1.41 0.24,0.26 0.67,0.39 1.28,0.39 v 0.52 c -1.39,-0.07 -2.32,-0.1 -2.79,-0.1 -0.47,0 -1.46,0.03 -2.99,0.1 v -0.52 c 0.7,0 1.19,-0.13 1.47,-0.39 0.28,-0.26 0.42,-0.73 0.42,-1.41 v -7.8 c 0,-0.76 -0.14,-1.32 -0.42,-1.67 -0.28,-0.35 -0.77,-0.52 -1.47,-0.52 v -0.52 c 0.53,0.05 1.05,0.08 1.54,0.08 1.05,0 1.91,-0.12 2.59,-0.35 v 2.94 c 0.42,-1.06 0.99,-1.83 1.73,-2.3 0.74,-0.47 1.57,-0.71 2.5,-0.71 1.19,-0.01 2.07,0.31 2.67,0.94 z"
   id="path389"
   inkscape:connector-curvature="0" />
		<path
   d="m 395.49,493.26 c 0.32,0.33 0.54,0.75 0.67,1.25 0.13,0.5 0.2,1.17 0.2,2.02 v 6.65 c 0,0.68 0.14,1.15 0.42,1.41 0.28,0.26 0.77,0.39 1.47,0.39 v 0.52 c -1.53,-0.07 -2.52,-0.1 -2.99,-0.1 -0.47,0 -1.4,0.03 -2.79,0.1 v -0.52 c 0.61,0 1.04,-0.13 1.28,-0.39 0.24,-0.26 0.36,-0.73 0.36,-1.41 v -7.2 c 0,-0.93 -0.13,-1.64 -0.4,-2.13 -0.27,-0.49 -0.8,-0.74 -1.62,-0.74 -0.68,0 -1.29,0.2 -1.82,0.6 -0.53,0.4 -0.94,0.94 -1.23,1.63 -0.29,0.69 -0.44,1.46 -0.44,2.3 v 5.53 c 0,0.68 0.12,1.15 0.36,1.41 0.24,0.26 0.67,0.39 1.28,0.39 v 0.52 c -1.39,-0.07 -2.32,-0.1 -2.79,-0.1 -0.47,0 -1.46,0.03 -2.99,0.1 v -0.52 c 0.7,0 1.19,-0.13 1.47,-0.39 0.28,-0.26 0.42,-0.73 0.42,-1.41 v -7.8 c 0,-0.76 -0.14,-1.32 -0.42,-1.67 -0.28,-0.35 -0.77,-0.52 -1.47,-0.52 v -0.52 c 0.53,0.05 1.05,0.08 1.54,0.08 1.05,0 1.91,-0.12 2.59,-0.35 v 2.94 c 0.42,-1.06 0.99,-1.83 1.73,-2.3 0.74,-0.47 1.57,-0.71 2.5,-0.71 1.19,-0.01 2.07,0.31 2.67,0.94 z"
   id="path391"
   inkscape:connector-curvature="0" />
		<path
   d="m 400.36,504.88 c -0.51,-0.52 -0.76,-1.25 -0.76,-2.18 0,-0.75 0.2,-1.36 0.61,-1.84 0.41,-0.48 0.89,-0.86 1.45,-1.15 0.56,-0.28 1.29,-0.58 2.2,-0.9 0.93,-0.32 1.62,-0.61 2.07,-0.87 0.45,-0.26 0.67,-0.62 0.67,-1.07 v -1.54 c 0,-0.96 -0.2,-1.62 -0.61,-1.98 -0.41,-0.36 -0.98,-0.54 -1.71,-0.54 -1.16,0 -1.98,0.3 -2.47,0.9 0.33,0.08 0.61,0.26 0.83,0.52 0.22,0.27 0.34,0.6 0.34,1 0,0.42 -0.13,0.74 -0.4,0.98 -0.27,0.24 -0.61,0.36 -1.02,0.36 -0.46,0 -0.81,-0.14 -1.05,-0.44 -0.23,-0.29 -0.35,-0.64 -0.35,-1.06 0,-0.4 0.1,-0.73 0.29,-1 0.19,-0.27 0.48,-0.53 0.86,-0.8 0.4,-0.28 0.91,-0.51 1.52,-0.7 0.61,-0.19 1.29,-0.27 2.02,-0.27 1.29,0 2.27,0.31 2.94,0.92 0.42,0.38 0.69,0.84 0.83,1.38 0.14,0.54 0.21,1.25 0.21,2.13 v 6.92 c 0,0.42 0.06,0.71 0.17,0.9 0.11,0.19 0.32,0.27 0.6,0.27 0.2,0 0.39,-0.05 0.56,-0.14 0.17,-0.09 0.36,-0.22 0.56,-0.39 l 0.27,0.42 c -0.43,0.33 -0.8,0.57 -1.11,0.71 -0.31,0.14 -0.69,0.21 -1.16,0.21 -0.8,0 -1.35,-0.2 -1.67,-0.6 -0.32,-0.4 -0.47,-0.94 -0.47,-1.62 -0.5,0.83 -1.07,1.41 -1.72,1.73 -0.65,0.32 -1.38,0.49 -2.19,0.49 -1.03,0.03 -1.8,-0.23 -2.31,-0.75 z m 6.24,-2.11 v -4.88 c -0.15,0.23 -0.36,0.42 -0.62,0.57 -0.27,0.15 -0.67,0.35 -1.22,0.6 -0.63,0.27 -1.14,0.52 -1.53,0.76 -0.39,0.24 -0.73,0.57 -1.01,0.98 -0.28,0.42 -0.42,0.95 -0.42,1.59 0,0.75 0.18,1.31 0.55,1.69 0.37,0.38 0.85,0.57 1.44,0.57 1.09,0.02 2.03,-0.61 2.81,-1.88 z"
   id="path393"
   inkscape:connector-curvature="0" />
		<path
   d="m 415.89,503.17 c 0,0.68 0.14,1.15 0.42,1.41 0.28,0.26 0.77,0.39 1.47,0.39 v 0.52 c -1.53,-0.07 -2.53,-0.1 -3.01,-0.1 -0.48,0 -1.49,0.03 -3.01,0.1 v -0.52 c 0.7,0 1.19,-0.13 1.47,-0.39 0.28,-0.26 0.42,-0.73 0.42,-1.41 v -7.8 c 0,-0.76 -0.14,-1.32 -0.42,-1.67 -0.28,-0.35 -0.77,-0.52 -1.47,-0.52 v -0.52 c 0.53,0.05 1.05,0.08 1.54,0.08 1.05,0 1.91,-0.12 2.59,-0.35 z m -0.18,-16.26 c 0.31,0.32 0.47,0.69 0.47,1.12 0,0.43 -0.16,0.81 -0.47,1.12 -0.32,0.32 -0.69,0.47 -1.12,0.47 -0.43,0 -0.81,-0.16 -1.12,-0.47 -0.32,-0.31 -0.47,-0.69 -0.47,-1.12 0,-0.43 0.16,-0.81 0.47,-1.12 0.31,-0.31 0.69,-0.47 1.12,-0.47 0.43,0 0.81,0.15 1.12,0.47 z"
   id="path395"
   inkscape:connector-curvature="0" />
		<path
   d="m 425.1,492.59 c 0.46,0.18 0.84,0.4 1.12,0.65 0.18,0.13 0.33,0.2 0.45,0.2 0.3,0 0.48,-0.37 0.55,-1.1 h 0.57 c -0.07,0.81 -0.1,2.22 -0.1,4.23 h -0.57 c -0.18,-1.1 -0.54,-2 -1.06,-2.71 -0.52,-0.71 -1.3,-1.07 -2.33,-1.07 -0.6,0 -1.09,0.17 -1.47,0.51 -0.38,0.34 -0.57,0.81 -0.57,1.41 0,0.58 0.2,1.07 0.6,1.46 0.4,0.39 1.04,0.86 1.92,1.41 0.15,0.08 0.37,0.22 0.67,0.42 0.76,0.5 1.38,0.94 1.84,1.32 0.46,0.38 0.84,0.82 1.13,1.32 0.29,0.5 0.44,1.07 0.44,1.72 0,1.1 -0.41,1.95 -1.23,2.57 -0.82,0.62 -1.83,0.92 -3.03,0.92 -0.75,0 -1.4,-0.12 -1.97,-0.35 -0.37,-0.18 -0.71,-0.41 -1.02,-0.67 -0.07,-0.07 -0.14,-0.1 -0.22,-0.1 -0.12,0 -0.22,0.08 -0.31,0.25 -0.09,0.17 -0.16,0.4 -0.21,0.7 h -0.57 c 0.07,-0.95 0.1,-2.61 0.1,-4.98 h 0.57 c 0.18,1.56 0.51,2.73 1,3.5 0.48,0.77 1.3,1.16 2.47,1.16 0.58,0 1.1,-0.19 1.54,-0.57 0.44,-0.38 0.67,-0.98 0.67,-1.79 0,-0.65 -0.22,-1.2 -0.66,-1.64 -0.44,-0.45 -1.16,-0.99 -2.15,-1.62 -0.81,-0.51 -1.44,-0.94 -1.88,-1.27 -0.44,-0.33 -0.81,-0.74 -1.11,-1.22 -0.3,-0.48 -0.45,-1.05 -0.45,-1.69 0,-1.05 0.35,-1.84 1.05,-2.39 0.7,-0.55 1.58,-0.82 2.64,-0.82 0.59,-0.04 1.12,0.06 1.58,0.24 z"
   id="path397"
   inkscape:connector-curvature="0" />
		<path
   d="m 436.24,492.59 c 0.46,0.18 0.84,0.4 1.12,0.65 0.18,0.13 0.33,0.2 0.45,0.2 0.3,0 0.48,-0.37 0.55,-1.1 h 0.57 c -0.07,0.81 -0.1,2.22 -0.1,4.23 h -0.57 c -0.18,-1.1 -0.54,-2 -1.06,-2.71 -0.52,-0.71 -1.3,-1.07 -2.33,-1.07 -0.6,0 -1.09,0.17 -1.47,0.51 -0.38,0.34 -0.57,0.81 -0.57,1.41 0,0.58 0.2,1.07 0.6,1.46 0.4,0.39 1.04,0.86 1.92,1.41 0.15,0.08 0.37,0.22 0.67,0.42 0.76,0.5 1.38,0.94 1.84,1.32 0.46,0.38 0.84,0.82 1.13,1.32 0.29,0.5 0.44,1.07 0.44,1.72 0,1.1 -0.41,1.95 -1.23,2.57 -0.82,0.62 -1.83,0.92 -3.03,0.92 -0.75,0 -1.4,-0.12 -1.97,-0.35 -0.37,-0.18 -0.71,-0.41 -1.02,-0.67 -0.07,-0.07 -0.14,-0.1 -0.22,-0.1 -0.12,0 -0.22,0.08 -0.31,0.25 -0.09,0.17 -0.16,0.4 -0.21,0.7 h -0.57 c 0.07,-0.95 0.1,-2.61 0.1,-4.98 h 0.57 c 0.18,1.56 0.51,2.73 1,3.5 0.48,0.77 1.3,1.16 2.47,1.16 0.58,0 1.1,-0.19 1.54,-0.57 0.44,-0.38 0.67,-0.98 0.67,-1.79 0,-0.65 -0.22,-1.2 -0.66,-1.64 -0.44,-0.45 -1.16,-0.99 -2.15,-1.62 -0.81,-0.51 -1.44,-0.94 -1.88,-1.27 -0.44,-0.33 -0.81,-0.74 -1.11,-1.22 -0.3,-0.48 -0.45,-1.05 -0.45,-1.69 0,-1.05 0.35,-1.84 1.05,-2.39 0.7,-0.55 1.58,-0.82 2.64,-0.82 0.58,-0.04 1.11,0.06 1.58,0.24 z"
   id="path399"
   inkscape:connector-curvature="0" />
		<path
   d="m 442.33,504.88 c -0.51,-0.52 -0.76,-1.25 -0.76,-2.18 0,-0.75 0.2,-1.36 0.61,-1.84 0.41,-0.48 0.89,-0.86 1.45,-1.15 0.56,-0.28 1.29,-0.58 2.2,-0.9 0.93,-0.32 1.62,-0.61 2.07,-0.87 0.45,-0.26 0.67,-0.62 0.67,-1.07 v -1.54 c 0,-0.96 -0.2,-1.62 -0.61,-1.98 -0.41,-0.36 -0.98,-0.54 -1.71,-0.54 -1.16,0 -1.98,0.3 -2.47,0.9 0.33,0.08 0.61,0.26 0.83,0.52 0.22,0.27 0.34,0.6 0.34,1 0,0.42 -0.13,0.74 -0.4,0.98 -0.27,0.24 -0.61,0.36 -1.02,0.36 -0.46,0 -0.81,-0.14 -1.05,-0.44 -0.23,-0.29 -0.35,-0.64 -0.35,-1.06 0,-0.4 0.1,-0.73 0.29,-1 0.19,-0.27 0.48,-0.53 0.86,-0.8 0.4,-0.28 0.91,-0.51 1.52,-0.7 0.61,-0.19 1.29,-0.27 2.02,-0.27 1.29,0 2.27,0.31 2.94,0.92 0.42,0.38 0.69,0.84 0.83,1.38 0.14,0.54 0.21,1.25 0.21,2.13 v 6.92 c 0,0.42 0.06,0.71 0.17,0.9 0.11,0.19 0.32,0.27 0.6,0.27 0.2,0 0.39,-0.05 0.56,-0.14 0.17,-0.09 0.36,-0.22 0.56,-0.39 l 0.27,0.42 c -0.43,0.33 -0.8,0.57 -1.11,0.71 -0.31,0.14 -0.69,0.21 -1.16,0.21 -0.8,0 -1.35,-0.2 -1.67,-0.6 -0.32,-0.4 -0.47,-0.94 -0.47,-1.62 -0.5,0.83 -1.07,1.41 -1.72,1.73 -0.65,0.32 -1.38,0.49 -2.19,0.49 -1.03,0.03 -1.81,-0.23 -2.31,-0.75 z m 6.23,-2.11 v -4.88 c -0.15,0.23 -0.36,0.42 -0.62,0.57 -0.27,0.15 -0.67,0.35 -1.22,0.6 -0.63,0.27 -1.14,0.52 -1.53,0.76 -0.39,0.24 -0.73,0.57 -1.01,0.98 -0.28,0.42 -0.42,0.95 -0.42,1.59 0,0.75 0.18,1.31 0.55,1.69 0.37,0.38 0.85,0.57 1.44,0.57 1.1,0.02 2.03,-0.61 2.81,-1.88 z"
   id="path401"
   inkscape:connector-curvature="0" />
		<path
   d="m 464.73,493.26 c 0.32,0.33 0.54,0.75 0.67,1.25 0.13,0.5 0.2,1.17 0.2,2.02 v 6.65 c 0,0.68 0.14,1.15 0.42,1.41 0.28,0.26 0.77,0.39 1.47,0.39 v 0.52 c -1.53,-0.07 -2.52,-0.1 -2.99,-0.1 -0.47,0 -1.4,0.03 -2.79,0.1 v -0.52 c 0.61,0 1.04,-0.13 1.28,-0.39 0.24,-0.26 0.36,-0.73 0.36,-1.41 v -7.2 c 0,-0.93 -0.13,-1.64 -0.4,-2.13 -0.27,-0.49 -0.8,-0.74 -1.62,-0.74 -0.68,0 -1.29,0.2 -1.82,0.6 -0.53,0.4 -0.94,0.94 -1.23,1.63 -0.29,0.69 -0.44,1.46 -0.44,2.3 v 5.53 c 0,0.68 0.12,1.15 0.36,1.41 0.24,0.26 0.67,0.39 1.28,0.39 v 0.52 c -1.39,-0.07 -2.32,-0.1 -2.79,-0.1 -0.47,0 -1.46,0.03 -2.99,0.1 v -0.52 c 0.7,0 1.19,-0.13 1.47,-0.39 0.28,-0.26 0.42,-0.73 0.42,-1.41 v -7.8 c 0,-0.76 -0.14,-1.32 -0.42,-1.67 -0.28,-0.35 -0.77,-0.52 -1.47,-0.52 v -0.52 c 0.53,0.05 1.05,0.08 1.54,0.08 1.05,0 1.91,-0.12 2.59,-0.35 v 2.94 c 0.42,-1.06 0.99,-1.83 1.73,-2.3 0.74,-0.47 1.57,-0.71 2.5,-0.71 1.19,-0.01 2.07,0.31 2.67,0.94 z"
   id="path403"
   inkscape:connector-curvature="0" />
		<path
   d="m 477.7,493.11 c 0.78,0.52 1.17,1.15 1.17,1.92 0,0.43 -0.12,0.77 -0.37,1.02 -0.25,0.25 -0.56,0.37 -0.95,0.37 -0.39,0 -0.71,-0.11 -0.97,-0.34 -0.27,-0.22 -0.4,-0.53 -0.4,-0.91 0,-0.35 0.1,-0.64 0.3,-0.88 0.2,-0.24 0.45,-0.4 0.75,-0.49 -0.17,-0.3 -0.46,-0.55 -0.88,-0.75 -0.42,-0.2 -0.88,-0.3 -1.36,-0.3 -0.61,0 -1.19,0.2 -1.72,0.59 -0.53,0.39 -0.97,1.04 -1.32,1.94 -0.35,0.91 -0.52,2.1 -0.52,3.57 0,2.06 0.33,3.56 1,4.5 0.66,0.94 1.53,1.41 2.59,1.41 0.71,0 1.39,-0.21 2.03,-0.62 0.64,-0.42 1.17,-1.06 1.58,-1.94 l 0.47,0.17 c -0.28,0.95 -0.81,1.76 -1.58,2.44 -0.77,0.68 -1.77,1.02 -3,1.02 -1.03,0 -1.96,-0.27 -2.8,-0.8 -0.84,-0.53 -1.5,-1.3 -1.98,-2.3 -0.48,-1 -0.72,-2.17 -0.72,-3.5 0,-1.34 0.25,-2.54 0.74,-3.59 0.49,-1.05 1.17,-1.86 2.05,-2.45 0.88,-0.59 1.88,-0.88 3.01,-0.88 1.11,0 2.07,0.27 2.88,0.8 z"
   id="path405"
   inkscape:connector-curvature="0" />
		<path
   d="m 491.5,502.5 c -0.3,0.91 -0.86,1.7 -1.68,2.35 -0.82,0.66 -1.81,0.98 -2.98,0.98 -1.18,0 -2.2,-0.27 -3.06,-0.81 -0.86,-0.54 -1.52,-1.29 -1.98,-2.27 -0.46,-0.97 -0.69,-2.1 -0.69,-3.38 0,-1.44 0.23,-2.7 0.7,-3.76 0.46,-1.06 1.12,-1.88 1.97,-2.45 0.85,-0.57 1.83,-0.86 2.96,-0.86 1.49,0 2.64,0.45 3.45,1.36 0.81,0.91 1.21,2.28 1.21,4.12 h -7.79 c -0.05,0.46 -0.08,1 -0.08,1.59 0,1.1 0.18,2.05 0.54,2.86 0.36,0.81 0.83,1.44 1.42,1.88 0.59,0.44 1.21,0.66 1.86,0.66 0.8,0 1.5,-0.19 2.12,-0.57 0.62,-0.38 1.13,-1.02 1.54,-1.92 z m -6.87,-8.57 c -0.56,0.76 -0.91,1.89 -1.05,3.39 h 5.43 c 0.03,-1.3 -0.15,-2.38 -0.56,-3.24 -0.41,-0.86 -1.01,-1.29 -1.81,-1.29 -0.78,0 -1.45,0.38 -2.01,1.14 z"
   id="path407"
   inkscape:connector-curvature="0" />
		<path
   d="m 499.35,492.59 c 0.46,0.18 0.84,0.4 1.12,0.65 0.18,0.13 0.33,0.2 0.45,0.2 0.3,0 0.48,-0.37 0.55,-1.1 h 0.57 c -0.07,0.81 -0.1,2.22 -0.1,4.23 h -0.57 c -0.18,-1.1 -0.54,-2 -1.06,-2.71 -0.52,-0.71 -1.3,-1.07 -2.33,-1.07 -0.6,0 -1.09,0.17 -1.47,0.51 -0.38,0.34 -0.57,0.81 -0.57,1.41 0,0.58 0.2,1.07 0.6,1.46 0.4,0.39 1.04,0.86 1.92,1.41 0.15,0.08 0.37,0.22 0.67,0.42 0.76,0.5 1.38,0.94 1.84,1.32 0.46,0.38 0.84,0.82 1.13,1.32 0.29,0.5 0.44,1.07 0.44,1.72 0,1.1 -0.41,1.95 -1.23,2.57 -0.82,0.62 -1.83,0.92 -3.03,0.92 -0.75,0 -1.4,-0.12 -1.97,-0.35 -0.37,-0.18 -0.71,-0.41 -1.02,-0.67 -0.07,-0.07 -0.14,-0.1 -0.22,-0.1 -0.12,0 -0.22,0.08 -0.31,0.25 -0.09,0.17 -0.16,0.4 -0.21,0.7 h -0.57 c 0.07,-0.95 0.1,-2.61 0.1,-4.98 h 0.57 c 0.18,1.56 0.51,2.73 1,3.5 0.48,0.77 1.3,1.16 2.47,1.16 0.58,0 1.1,-0.19 1.54,-0.57 0.44,-0.38 0.67,-0.98 0.67,-1.79 0,-0.65 -0.22,-1.2 -0.66,-1.64 -0.44,-0.45 -1.16,-0.99 -2.15,-1.62 -0.81,-0.51 -1.44,-0.94 -1.88,-1.27 -0.44,-0.33 -0.81,-0.74 -1.11,-1.22 -0.3,-0.48 -0.45,-1.05 -0.45,-1.69 0,-1.05 0.35,-1.84 1.05,-2.39 0.7,-0.55 1.58,-0.82 2.64,-0.82 0.58,-0.04 1.11,0.06 1.58,0.24 z"
   id="path409"
   inkscape:connector-curvature="0" />
		<path
   d="m 139.45,522.06 c 0.87,1.16 1.31,2.84 1.31,5.03 0,1.45 -0.25,2.67 -0.75,3.69 -0.5,1.01 -1.17,1.78 -2.01,2.29 -0.84,0.51 -1.77,0.77 -2.8,0.77 -0.61,0 -1.21,-0.12 -1.78,-0.37 -0.57,-0.25 -1.08,-0.61 -1.51,-1.07 l -1.77,1.49 -0.42,-0.17 c 0.12,-0.42 0.17,-0.9 0.17,-1.44 v -15.29 c 0,-0.76 -0.14,-1.32 -0.42,-1.67 -0.28,-0.35 -0.77,-0.52 -1.47,-0.52 v -0.52 c 0.53,0.05 1.05,0.07 1.54,0.07 1.05,0 1.91,-0.12 2.59,-0.35 v 8.99 c 0.37,-0.85 0.89,-1.5 1.58,-1.97 0.69,-0.46 1.46,-0.7 2.3,-0.7 1.43,-0.01 2.57,0.58 3.44,1.74 z m -1.94,9.7 c 0.56,-1 0.83,-2.56 0.83,-4.67 0,-2.03 -0.25,-3.54 -0.75,-4.53 -0.5,-0.99 -1.26,-1.5 -2.29,-1.5 -0.7,0 -1.34,0.27 -1.92,0.81 -0.58,0.54 -1,1.3 -1.25,2.28 v 7.9 c 0.38,0.4 0.82,0.7 1.32,0.91 0.5,0.21 1.01,0.31 1.54,0.31 1.13,-0.01 1.96,-0.51 2.52,-1.51 z"
   id="path411"
   inkscape:connector-curvature="0" />
		<path
   d="m 143.66,532.88 c -0.51,-0.52 -0.76,-1.25 -0.76,-2.18 0,-0.75 0.2,-1.36 0.61,-1.84 0.41,-0.48 0.89,-0.86 1.44,-1.15 0.55,-0.29 1.29,-0.58 2.2,-0.9 0.93,-0.32 1.62,-0.61 2.07,-0.87 0.45,-0.26 0.67,-0.62 0.67,-1.07 v -1.54 c 0,-0.96 -0.2,-1.62 -0.61,-1.98 -0.41,-0.36 -0.98,-0.54 -1.71,-0.54 -1.16,0 -1.98,0.3 -2.47,0.9 0.33,0.08 0.61,0.26 0.83,0.52 0.22,0.26 0.34,0.6 0.34,1 0,0.42 -0.13,0.74 -0.4,0.98 -0.27,0.24 -0.61,0.36 -1.02,0.36 -0.47,0 -0.81,-0.14 -1.05,-0.44 -0.23,-0.29 -0.35,-0.64 -0.35,-1.06 0,-0.4 0.1,-0.73 0.29,-1 0.19,-0.27 0.48,-0.53 0.86,-0.8 0.4,-0.28 0.9,-0.51 1.52,-0.7 0.62,-0.19 1.29,-0.27 2.02,-0.27 1.29,0 2.27,0.31 2.94,0.92 0.41,0.38 0.69,0.84 0.83,1.38 0.14,0.54 0.21,1.25 0.21,2.13 v 6.92 c 0,0.42 0.06,0.71 0.17,0.9 0.11,0.19 0.32,0.27 0.6,0.27 0.2,0 0.39,-0.05 0.56,-0.14 0.17,-0.09 0.36,-0.22 0.56,-0.39 l 0.27,0.42 c -0.43,0.33 -0.8,0.57 -1.11,0.71 -0.31,0.14 -0.69,0.21 -1.16,0.21 -0.8,0 -1.35,-0.2 -1.67,-0.6 -0.32,-0.4 -0.47,-0.94 -0.47,-1.62 -0.5,0.83 -1.07,1.41 -1.72,1.73 -0.65,0.32 -1.38,0.49 -2.19,0.49 -1.02,0.03 -1.79,-0.23 -2.3,-0.75 z m 6.25,-16.94 c 0.74,0.77 1.58,1.39 2.53,1.86 l -0.2,0.35 c -0.9,-0.32 -1.77,-0.7 -2.63,-1.15 -0.86,-0.45 -1.54,-0.9 -2.05,-1.34 -0.42,0.45 -0.96,0.9 -1.63,1.34 -0.67,0.45 -1.36,0.83 -2.05,1.15 l -0.2,-0.35 c 0.95,-0.46 1.79,-1.08 2.53,-1.86 0.74,-0.77 1.28,-1.58 1.63,-2.43 h 0.45 c 0.34,0.85 0.88,1.66 1.62,2.43 z m -0.01,14.83 v -4.88 c -0.15,0.23 -0.36,0.42 -0.62,0.57 -0.26,0.15 -0.67,0.35 -1.22,0.6 -0.63,0.27 -1.14,0.52 -1.53,0.76 -0.39,0.24 -0.73,0.57 -1.01,0.98 -0.28,0.42 -0.42,0.95 -0.42,1.59 0,0.75 0.18,1.31 0.55,1.69 0.37,0.38 0.85,0.57 1.44,0.57 1.09,0.02 2.03,-0.61 2.81,-1.88 z"
   id="path413"
   inkscape:connector-curvature="0" />
		<path
   d="m 159.06,520.69 h 3.69 v 0.5 h -3.69 v 9.64 c 0,0.75 0.14,1.29 0.41,1.62 0.27,0.33 0.67,0.5 1.18,0.5 0.51,0 0.95,-0.21 1.32,-0.62 0.37,-0.41 0.67,-1.1 0.92,-2.04 l 0.5,0.12 c -0.42,2.29 -1.49,3.44 -3.24,3.44 -0.56,0 -1.03,-0.07 -1.4,-0.2 -0.37,-0.13 -0.69,-0.34 -0.97,-0.62 -0.37,-0.37 -0.62,-0.81 -0.76,-1.34 -0.14,-0.53 -0.21,-1.25 -0.21,-2.14 v -8.34 h -2.39 v -0.5 h 2.39 v -3.81 c 0.93,-0.03 1.68,-0.15 2.24,-0.35 v 4.14 z"
   id="path415"
   inkscape:connector-curvature="0" />
		<path
   d="m 168,531.17 c 0,0.68 0.14,1.15 0.42,1.41 0.28,0.26 0.77,0.39 1.47,0.39 v 0.52 c -1.53,-0.07 -2.53,-0.1 -3.01,-0.1 -0.48,0 -1.49,0.03 -3.01,0.1 v -0.52 c 0.7,0 1.19,-0.13 1.47,-0.39 0.28,-0.26 0.42,-0.73 0.42,-1.41 v -7.8 c 0,-0.76 -0.14,-1.32 -0.42,-1.67 -0.28,-0.35 -0.77,-0.52 -1.47,-0.52 v -0.52 c 0.53,0.05 1.05,0.08 1.54,0.08 1.05,0 1.91,-0.12 2.59,-0.35 z m -0.17,-16.26 c 0.32,0.32 0.47,0.69 0.47,1.12 0,0.43 -0.16,0.81 -0.47,1.12 -0.32,0.32 -0.69,0.47 -1.12,0.47 -0.43,0 -0.81,-0.16 -1.12,-0.47 -0.32,-0.31 -0.47,-0.69 -0.47,-1.12 0,-0.43 0.16,-0.81 0.47,-1.12 0.31,-0.32 0.69,-0.47 1.12,-0.47 0.43,0 0.8,0.15 1.12,0.47 z"
   id="path417"
   inkscape:connector-curvature="0" />
		<path
   d="m 177.22,520.59 c 0.46,0.18 0.84,0.4 1.12,0.65 0.18,0.13 0.33,0.2 0.45,0.2 0.3,0 0.48,-0.37 0.55,-1.1 h 0.57 c -0.07,0.81 -0.1,2.22 -0.1,4.23 h -0.57 c -0.18,-1.1 -0.54,-2 -1.06,-2.71 -0.52,-0.71 -1.3,-1.07 -2.33,-1.07 -0.6,0 -1.09,0.17 -1.47,0.51 -0.38,0.34 -0.57,0.81 -0.57,1.41 0,0.58 0.2,1.07 0.6,1.46 0.4,0.39 1.04,0.86 1.92,1.41 0.15,0.08 0.37,0.22 0.67,0.42 0.76,0.5 1.38,0.94 1.84,1.32 0.46,0.38 0.84,0.82 1.13,1.32 0.29,0.5 0.44,1.07 0.44,1.72 0,1.1 -0.41,1.95 -1.23,2.57 -0.82,0.62 -1.83,0.92 -3.03,0.92 -0.75,0 -1.4,-0.12 -1.97,-0.35 -0.37,-0.18 -0.71,-0.41 -1.02,-0.67 -0.07,-0.07 -0.14,-0.1 -0.22,-0.1 -0.12,0 -0.22,0.08 -0.31,0.25 -0.09,0.17 -0.16,0.4 -0.21,0.7 h -0.57 c 0.07,-0.95 0.1,-2.61 0.1,-4.98 h 0.57 c 0.18,1.56 0.51,2.73 1,3.5 0.48,0.77 1.3,1.16 2.47,1.16 0.58,0 1.1,-0.19 1.54,-0.57 0.44,-0.38 0.67,-0.98 0.67,-1.79 0,-0.65 -0.22,-1.2 -0.66,-1.64 -0.44,-0.45 -1.16,-0.99 -2.15,-1.62 -0.81,-0.51 -1.44,-0.94 -1.88,-1.27 -0.44,-0.33 -0.81,-0.74 -1.11,-1.22 -0.3,-0.48 -0.45,-1.05 -0.45,-1.69 0,-1.05 0.35,-1.84 1.05,-2.39 0.7,-0.55 1.58,-0.82 2.64,-0.82 0.58,-0.04 1.11,0.06 1.58,0.24 z"
   id="path419"
   inkscape:connector-curvature="0" />
		<path
   d="m 188.35,520.59 c 0.46,0.18 0.84,0.4 1.12,0.65 0.18,0.13 0.33,0.2 0.45,0.2 0.3,0 0.48,-0.37 0.55,-1.1 h 0.57 c -0.07,0.81 -0.1,2.22 -0.1,4.23 h -0.57 c -0.18,-1.1 -0.54,-2 -1.06,-2.71 -0.52,-0.71 -1.3,-1.07 -2.33,-1.07 -0.6,0 -1.09,0.17 -1.47,0.51 -0.38,0.34 -0.57,0.81 -0.57,1.41 0,0.58 0.2,1.07 0.6,1.46 0.4,0.39 1.04,0.86 1.92,1.41 0.15,0.08 0.37,0.22 0.67,0.42 0.76,0.5 1.38,0.94 1.84,1.32 0.46,0.38 0.84,0.82 1.13,1.32 0.29,0.5 0.44,1.07 0.44,1.72 0,1.1 -0.41,1.95 -1.23,2.57 -0.82,0.62 -1.83,0.92 -3.03,0.92 -0.75,0 -1.4,-0.12 -1.97,-0.35 -0.37,-0.18 -0.71,-0.41 -1.02,-0.67 -0.07,-0.07 -0.14,-0.1 -0.22,-0.1 -0.12,0 -0.22,0.08 -0.31,0.25 -0.09,0.17 -0.16,0.4 -0.21,0.7 h -0.57 c 0.07,-0.95 0.1,-2.61 0.1,-4.98 h 0.57 c 0.18,1.56 0.51,2.73 1,3.5 0.48,0.77 1.3,1.16 2.47,1.16 0.58,0 1.1,-0.19 1.54,-0.57 0.44,-0.38 0.67,-0.98 0.67,-1.79 0,-0.65 -0.22,-1.2 -0.66,-1.64 -0.44,-0.45 -1.16,-0.99 -2.15,-1.62 -0.81,-0.51 -1.44,-0.94 -1.88,-1.27 -0.44,-0.33 -0.81,-0.74 -1.11,-1.22 -0.3,-0.48 -0.45,-1.05 -0.45,-1.69 0,-1.05 0.35,-1.84 1.05,-2.39 0.7,-0.55 1.58,-0.82 2.64,-0.82 0.59,-0.04 1.12,0.06 1.58,0.24 z"
   id="path421"
   inkscape:connector-curvature="0" />
		<path
   d="m 204.24,530.5 c -0.3,0.91 -0.86,1.7 -1.68,2.35 -0.82,0.66 -1.81,0.98 -2.98,0.98 -1.18,0 -2.2,-0.27 -3.06,-0.81 -0.86,-0.54 -1.52,-1.29 -1.98,-2.27 -0.46,-0.97 -0.69,-2.1 -0.69,-3.38 0,-1.44 0.23,-2.7 0.7,-3.76 0.46,-1.06 1.12,-1.88 1.97,-2.45 0.85,-0.57 1.83,-0.86 2.96,-0.86 1.49,0 2.64,0.45 3.45,1.36 0.81,0.91 1.21,2.28 1.21,4.12 h -7.8 c -0.05,0.46 -0.07,1 -0.07,1.59 0,1.1 0.18,2.05 0.54,2.86 0.36,0.81 0.83,1.44 1.42,1.88 0.59,0.44 1.21,0.66 1.86,0.66 0.8,0 1.5,-0.19 2.12,-0.57 0.61,-0.38 1.13,-1.02 1.54,-1.92 z m -6.87,-8.57 c -0.56,0.76 -0.91,1.89 -1.05,3.39 h 5.43 c 0.03,-1.3 -0.15,-2.38 -0.56,-3.24 -0.41,-0.86 -1.01,-1.29 -1.81,-1.29 -0.78,0 -1.45,0.38 -2.01,1.14 z"
   id="path423"
   inkscape:connector-curvature="0" />
		<path
   d="m 217.04,521.26 c 0.32,0.33 0.54,0.75 0.67,1.25 0.13,0.5 0.2,1.17 0.2,2.02 v 6.65 c 0,0.68 0.14,1.15 0.42,1.41 0.28,0.26 0.77,0.39 1.47,0.39 v 0.52 c -1.53,-0.07 -2.52,-0.1 -2.99,-0.1 -0.47,0 -1.39,0.03 -2.79,0.1 v -0.52 c 0.61,0 1.04,-0.13 1.28,-0.39 0.24,-0.26 0.36,-0.73 0.36,-1.41 v -7.2 c 0,-0.93 -0.13,-1.64 -0.4,-2.13 -0.27,-0.49 -0.81,-0.74 -1.62,-0.74 -0.68,0 -1.29,0.2 -1.82,0.6 -0.53,0.4 -0.94,0.94 -1.23,1.63 -0.29,0.69 -0.44,1.46 -0.44,2.3 v 5.53 c 0,0.68 0.12,1.15 0.36,1.41 0.24,0.26 0.67,0.39 1.28,0.39 v 0.52 c -1.4,-0.07 -2.32,-0.1 -2.79,-0.1 -0.47,0 -1.46,0.03 -2.99,0.1 v -0.52 c 0.7,0 1.19,-0.13 1.47,-0.39 0.28,-0.26 0.42,-0.73 0.42,-1.41 v -7.8 c 0,-0.76 -0.14,-1.32 -0.42,-1.67 -0.28,-0.35 -0.77,-0.52 -1.47,-0.52 v -0.52 c 0.53,0.05 1.05,0.08 1.54,0.08 1.05,0 1.91,-0.12 2.59,-0.35 v 2.94 c 0.42,-1.06 0.99,-1.83 1.73,-2.3 0.74,-0.47 1.57,-0.71 2.5,-0.71 1.2,-0.01 2.08,0.31 2.67,0.94 z"
   id="path425"
   inkscape:connector-curvature="0" />
		<path
   d="m 224.91,520.69 h 3.69 v 0.5 h -3.69 v 9.64 c 0,0.75 0.14,1.29 0.41,1.62 0.27,0.33 0.67,0.5 1.18,0.5 0.51,0 0.95,-0.21 1.32,-0.62 0.37,-0.41 0.67,-1.1 0.92,-2.04 l 0.5,0.12 c -0.42,2.29 -1.49,3.44 -3.24,3.44 -0.56,0 -1.03,-0.07 -1.4,-0.2 -0.37,-0.13 -0.69,-0.34 -0.97,-0.62 -0.37,-0.37 -0.62,-0.81 -0.76,-1.34 -0.14,-0.53 -0.21,-1.25 -0.21,-2.14 v -8.34 h -2.39 v -0.5 h 2.39 v -3.81 c 0.93,-0.03 1.68,-0.15 2.24,-0.35 v 4.14 z"
   id="path427"
   inkscape:connector-curvature="0" />
		<path
   d="m 247.25,532.44 c 0.28,0.35 0.77,0.52 1.47,0.52 v 0.52 c -0.51,-0.05 -1.03,-0.08 -1.54,-0.08 -1.05,0 -1.91,0.12 -2.59,0.35 v -2.22 c -0.3,0.75 -0.75,1.32 -1.35,1.71 -0.6,0.39 -1.33,0.59 -2.19,0.59 -1.59,0 -2.84,-0.57 -3.75,-1.72 -0.91,-1.15 -1.35,-2.82 -1.33,-5.03 0,-1.44 0.25,-2.68 0.76,-3.7 0.51,-1.02 1.19,-1.79 2.04,-2.3 0.85,-0.51 1.8,-0.77 2.83,-0.77 0.63,0 1.21,0.12 1.73,0.36 0.52,0.24 0.94,0.61 1.26,1.11 v -4.83 c 0,-0.76 -0.14,-1.32 -0.42,-1.67 -0.28,-0.35 -0.77,-0.52 -1.47,-0.52 v -0.52 c 0.53,0.05 1.05,0.08 1.54,0.08 1.05,0 1.91,-0.12 2.59,-0.35 v 16.81 c 0,0.76 0.14,1.31 0.42,1.66 z m -3.73,-0.1 c 0.51,-0.5 0.87,-1.2 1.07,-2.12 v -7.42 c -0.45,-1.28 -1.38,-1.92 -2.79,-1.92 -1.03,0 -1.86,0.53 -2.49,1.58 -0.63,1.05 -0.94,2.59 -0.92,4.62 -0.02,1.99 0.27,3.49 0.85,4.5 0.58,1.01 1.43,1.51 2.54,1.51 0.64,0 1.22,-0.25 1.74,-0.75 z"
   id="path429"
   inkscape:connector-curvature="0" />
		<path
   d="m 260.78,530.5 c -0.3,0.91 -0.86,1.7 -1.68,2.35 -0.82,0.66 -1.81,0.98 -2.98,0.98 -1.18,0 -2.2,-0.27 -3.06,-0.81 -0.86,-0.54 -1.52,-1.29 -1.98,-2.27 -0.46,-0.97 -0.69,-2.1 -0.69,-3.38 0,-1.44 0.23,-2.7 0.7,-3.76 0.46,-1.06 1.12,-1.88 1.97,-2.45 0.85,-0.57 1.83,-0.86 2.96,-0.86 1.49,0 2.64,0.45 3.45,1.36 0.81,0.91 1.21,2.28 1.21,4.12 h -7.8 c -0.05,0.46 -0.07,1 -0.07,1.59 0,1.1 0.18,2.05 0.54,2.86 0.36,0.81 0.83,1.44 1.42,1.88 0.59,0.44 1.21,0.66 1.86,0.66 0.8,0 1.5,-0.19 2.12,-0.57 0.61,-0.38 1.13,-1.02 1.54,-1.92 z m -6.88,-8.57 c -0.56,0.76 -0.91,1.89 -1.05,3.39 h 5.43 c 0.03,-1.3 -0.15,-2.38 -0.56,-3.24 -0.41,-0.86 -1.01,-1.29 -1.81,-1.29 -0.77,0 -1.44,0.38 -2.01,1.14 z"
   id="path431"
   inkscape:connector-curvature="0" />
		<path
   d="m 279.78,521.26 c 0.32,0.33 0.54,0.75 0.67,1.25 0.13,0.5 0.2,1.17 0.2,2.02 v 6.65 c 0,0.68 0.14,1.15 0.42,1.41 0.28,0.26 0.77,0.39 1.47,0.39 v 0.52 c -1.53,-0.07 -2.52,-0.1 -2.99,-0.1 -0.47,0 -1.39,0.03 -2.79,0.1 v -0.52 c 0.61,0 1.04,-0.13 1.28,-0.39 0.24,-0.26 0.36,-0.73 0.36,-1.41 v -7.2 c 0,-0.93 -0.13,-1.64 -0.4,-2.13 -0.27,-0.49 -0.81,-0.74 -1.62,-0.74 -0.68,0 -1.29,0.2 -1.82,0.6 -0.53,0.4 -0.94,0.94 -1.23,1.63 -0.29,0.69 -0.44,1.46 -0.44,2.3 v 5.53 c 0,0.68 0.12,1.15 0.36,1.41 0.24,0.26 0.67,0.39 1.28,0.39 v 0.52 c -1.4,-0.07 -2.32,-0.1 -2.79,-0.1 -0.47,0 -1.46,0.03 -2.99,0.1 v -0.52 c 0.7,0 1.19,-0.13 1.47,-0.39 0.28,-0.26 0.42,-0.73 0.42,-1.41 v -7.8 c 0,-0.76 -0.14,-1.32 -0.42,-1.67 -0.28,-0.35 -0.77,-0.52 -1.47,-0.52 v -0.52 c 0.53,0.05 1.05,0.08 1.54,0.08 1.05,0 1.91,-0.12 2.59,-0.35 v 2.94 c 0.42,-1.06 0.99,-1.83 1.73,-2.3 0.74,-0.47 1.57,-0.71 2.5,-0.71 1.19,-0.01 2.07,0.31 2.67,0.94 z"
   id="path433"
   inkscape:connector-curvature="0" />
		<path
   d="m 293.84,521.99 c 1.04,1.12 1.56,2.82 1.56,5.09 0,2.28 -0.52,3.97 -1.56,5.08 -1.04,1.11 -2.4,1.67 -4.1,1.67 -1.7,0 -3.06,-0.56 -4.1,-1.67 -1.04,-1.11 -1.56,-2.81 -1.56,-5.08 0,-2.27 0.52,-3.97 1.56,-5.09 1.04,-1.12 2.4,-1.68 4.1,-1.68 1.7,0 3.06,0.56 4.1,1.68 z m -6.46,0.35 c -0.58,1.02 -0.87,2.6 -0.87,4.74 0,2.14 0.29,3.72 0.87,4.73 0.58,1.01 1.37,1.52 2.37,1.52 1,0 1.78,-0.51 2.37,-1.52 0.58,-1.01 0.87,-2.59 0.87,-4.73 0,-2.14 -0.29,-3.72 -0.87,-4.74 -0.58,-1.02 -1.37,-1.53 -2.37,-1.53 -1,0 -1.79,0.51 -2.37,1.53 z"
   id="path435"
   inkscape:connector-curvature="0" />
		<path
   d="m 308.6,530.8 c 0,0.76 0.14,1.32 0.42,1.67 0.28,0.35 0.77,0.52 1.47,0.52 v 0.52 c -0.51,-0.05 -1.03,-0.07 -1.54,-0.07 -1.05,0 -1.91,0.12 -2.59,0.35 v -2.94 c -0.4,1.03 -0.96,1.79 -1.69,2.27 -0.73,0.48 -1.53,0.72 -2.39,0.72 -1.13,0 -1.99,-0.32 -2.59,-0.95 -0.3,-0.33 -0.51,-0.76 -0.64,-1.27 -0.13,-0.51 -0.19,-1.18 -0.19,-1.99 v -6.25 c 0,-0.76 -0.14,-1.32 -0.42,-1.67 -0.28,-0.35 -0.77,-0.52 -1.47,-0.52 v -0.52 c 0.51,0.05 1.03,0.08 1.54,0.08 1.05,0 1.91,-0.12 2.59,-0.35 v 9.79 c 0,0.63 0.04,1.14 0.11,1.53 0.07,0.39 0.25,0.71 0.52,0.96 0.27,0.25 0.69,0.37 1.26,0.37 0.63,0 1.2,-0.2 1.72,-0.6 0.52,-0.4 0.92,-0.94 1.21,-1.63 0.29,-0.69 0.44,-1.45 0.44,-2.28 v -5.16 c 0,-0.76 -0.14,-1.32 -0.42,-1.67 -0.28,-0.35 -0.77,-0.52 -1.47,-0.52 v -0.52 c 0.51,0.05 1.03,0.08 1.54,0.08 1.05,0 1.91,-0.12 2.59,-0.35 z"
   id="path437"
   inkscape:connector-curvature="0" />
		<path
   d="m 323.14,520.66 v 0.5 c -0.33,0.03 -0.63,0.18 -0.88,0.45 -0.26,0.27 -0.5,0.7 -0.73,1.29 l -4.08,10.71 h -0.42 l -4.58,-11.03 c -0.25,-0.56 -0.49,-0.94 -0.72,-1.12 -0.23,-0.18 -0.47,-0.27 -0.72,-0.27 v -0.52 c 0.86,0.07 1.59,0.1 2.19,0.1 1.28,0 2.36,-0.03 3.24,-0.1 v 0.52 c -0.61,0 -1.06,0.05 -1.34,0.14 -0.28,0.09 -0.42,0.33 -0.42,0.71 0,0.23 0.09,0.6 0.27,1.1 l 3.06,7.57 2.74,-7.2 c 0.18,-0.5 0.27,-0.89 0.27,-1.17 0,-0.38 -0.15,-0.66 -0.44,-0.83 -0.29,-0.17 -0.76,-0.29 -1.41,-0.34 v -0.5 c 0.86,0.05 1.56,0.08 2.09,0.08 0.72,-0.01 1.35,-0.04 1.88,-0.09 z"
   id="path439"
   inkscape:connector-curvature="0" />
		<path
   d="m 334.52,530.5 c -0.3,0.91 -0.86,1.7 -1.68,2.35 -0.82,0.66 -1.81,0.98 -2.98,0.98 -1.18,0 -2.2,-0.27 -3.06,-0.81 -0.86,-0.54 -1.52,-1.29 -1.98,-2.27 -0.46,-0.97 -0.69,-2.1 -0.69,-3.38 0,-1.44 0.23,-2.7 0.7,-3.76 0.46,-1.06 1.12,-1.88 1.97,-2.45 0.85,-0.57 1.83,-0.86 2.96,-0.86 1.49,0 2.64,0.45 3.45,1.36 0.81,0.91 1.21,2.28 1.21,4.12 h -7.79 c -0.05,0.46 -0.08,1 -0.08,1.59 0,1.1 0.18,2.05 0.54,2.86 0.36,0.81 0.83,1.44 1.42,1.88 0.59,0.44 1.21,0.66 1.86,0.66 0.8,0 1.5,-0.19 2.12,-0.57 0.62,-0.38 1.13,-1.02 1.54,-1.92 z m -6.87,-8.57 c -0.56,0.76 -0.91,1.89 -1.05,3.39 h 5.43 c 0.03,-1.3 -0.15,-2.38 -0.56,-3.24 -0.41,-0.86 -1.01,-1.29 -1.81,-1.29 -0.77,0 -1.45,0.38 -2.01,1.14 z"
   id="path441"
   inkscape:connector-curvature="0" />
		<path
   d="m 337.32,532.88 c -0.51,-0.52 -0.76,-1.25 -0.76,-2.18 0,-0.75 0.2,-1.36 0.61,-1.84 0.41,-0.48 0.89,-0.86 1.45,-1.15 0.56,-0.28 1.29,-0.58 2.2,-0.9 0.93,-0.32 1.62,-0.61 2.07,-0.87 0.45,-0.26 0.67,-0.62 0.67,-1.07 v -1.54 c 0,-0.96 -0.2,-1.62 -0.61,-1.98 -0.41,-0.36 -0.98,-0.54 -1.71,-0.54 -1.16,0 -1.98,0.3 -2.47,0.9 0.33,0.08 0.61,0.26 0.83,0.52 0.22,0.27 0.34,0.6 0.34,1 0,0.42 -0.13,0.74 -0.4,0.98 -0.27,0.24 -0.61,0.36 -1.02,0.36 -0.46,0 -0.81,-0.14 -1.05,-0.44 -0.23,-0.29 -0.35,-0.64 -0.35,-1.06 0,-0.4 0.1,-0.73 0.29,-1 0.19,-0.27 0.48,-0.53 0.86,-0.8 0.4,-0.28 0.91,-0.51 1.52,-0.7 0.61,-0.19 1.29,-0.27 2.02,-0.27 1.29,0 2.27,0.31 2.94,0.92 0.42,0.38 0.69,0.84 0.83,1.38 0.14,0.54 0.21,1.25 0.21,2.13 v 6.92 c 0,0.42 0.06,0.71 0.17,0.9 0.11,0.19 0.32,0.27 0.6,0.27 0.2,0 0.39,-0.05 0.56,-0.14 0.17,-0.09 0.36,-0.22 0.56,-0.39 l 0.27,0.42 c -0.43,0.33 -0.8,0.57 -1.11,0.71 -0.31,0.14 -0.69,0.21 -1.16,0.21 -0.8,0 -1.35,-0.2 -1.67,-0.6 -0.32,-0.4 -0.47,-0.94 -0.47,-1.62 -0.5,0.83 -1.07,1.41 -1.72,1.73 -0.65,0.32 -1.38,0.49 -2.19,0.49 -1.02,0.03 -1.8,-0.23 -2.31,-0.75 z m 6.24,-2.11 v -4.88 c -0.15,0.23 -0.36,0.42 -0.62,0.57 -0.27,0.15 -0.67,0.35 -1.22,0.6 -0.63,0.27 -1.14,0.52 -1.53,0.76 -0.39,0.24 -0.73,0.57 -1.01,0.98 -0.28,0.42 -0.42,0.95 -0.42,1.59 0,0.75 0.18,1.31 0.55,1.69 0.37,0.38 0.85,0.57 1.44,0.57 1.09,0.02 2.03,-0.61 2.81,-1.88 z"
   id="path443"
   inkscape:connector-curvature="0" />
		<path
   d="m 360.03,530.8 c 0,0.76 0.14,1.32 0.42,1.67 0.28,0.35 0.77,0.52 1.47,0.52 v 0.52 c -0.52,-0.05 -1.03,-0.07 -1.54,-0.07 -1.05,0 -1.91,0.12 -2.59,0.35 v -2.94 c -0.4,1.03 -0.96,1.79 -1.69,2.27 -0.73,0.48 -1.53,0.72 -2.39,0.72 -1.13,0 -1.99,-0.32 -2.59,-0.95 -0.3,-0.33 -0.51,-0.76 -0.63,-1.27 -0.12,-0.51 -0.19,-1.18 -0.19,-1.99 v -6.25 c 0,-0.76 -0.14,-1.32 -0.42,-1.67 -0.28,-0.35 -0.77,-0.52 -1.47,-0.52 v -0.52 c 0.51,0.05 1.03,0.08 1.54,0.08 1.05,0 1.91,-0.12 2.59,-0.35 v 9.79 c 0,0.63 0.04,1.14 0.11,1.53 0.08,0.39 0.25,0.71 0.52,0.96 0.27,0.25 0.69,0.37 1.26,0.37 0.63,0 1.2,-0.2 1.72,-0.6 0.51,-0.4 0.92,-0.94 1.21,-1.63 0.29,-0.69 0.44,-1.45 0.44,-2.28 v -5.16 c 0,-0.76 -0.14,-1.32 -0.42,-1.67 -0.28,-0.35 -0.77,-0.52 -1.47,-0.52 v -0.52 c 0.51,0.05 1.03,0.08 1.54,0.08 1.05,0 1.91,-0.12 2.59,-0.35 v 10.4 z"
   id="path445"
   inkscape:connector-curvature="0" />
		<path
   d="m 374.28,532.6 c 0.21,0.17 0.47,0.29 0.79,0.36 v 0.52 c -0.86,-0.07 -1.45,-0.1 -1.77,-0.1 -0.56,0 -1.54,0.03 -2.94,0.1 v -0.52 c 0.26,0 0.49,-0.05 0.68,-0.15 0.19,-0.1 0.29,-0.23 0.29,-0.4 0,-0.12 -0.03,-0.22 -0.1,-0.3 l -2.84,-4.13 -1.82,2.37 c -0.46,0.62 -0.7,1.11 -0.7,1.5 0,0.35 0.16,0.62 0.49,0.81 0.32,0.19 0.78,0.3 1.36,0.34 v 0.5 c -0.86,-0.05 -1.81,-0.08 -2.84,-0.08 -0.73,0 -1.36,0.03 -1.89,0.08 V 533 c 0.33,-0.03 0.67,-0.18 1.01,-0.45 0.34,-0.27 0.74,-0.7 1.18,-1.3 l 2.86,-3.76 -3.46,-5.06 c -0.33,-0.48 -0.6,-0.8 -0.8,-0.96 -0.2,-0.16 -0.45,-0.25 -0.75,-0.29 v -0.52 c 0.86,0.07 1.45,0.1 1.77,0.1 0.56,0 1.54,-0.03 2.94,-0.1 v 0.52 c -0.27,0 -0.49,0.05 -0.69,0.15 -0.19,0.1 -0.29,0.23 -0.29,0.4 0,0.12 0.03,0.22 0.1,0.3 l 2.67,3.89 1.72,-2.42 c 0.5,-0.71 0.75,-1.24 0.75,-1.57 0,-0.23 -0.11,-0.41 -0.34,-0.54 -0.22,-0.12 -0.59,-0.2 -1.08,-0.24 v -0.5 c 0.86,0.05 1.56,0.08 2.09,0.08 0.73,0 1.36,-0.03 1.89,-0.08 v 0.5 c -0.68,0.08 -1.41,0.67 -2.19,1.74 l -2.51,3.49 3.66,5.33 c 0.3,0.43 0.56,0.72 0.76,0.89 z"
   id="path447"
   inkscape:connector-curvature="0" />
		<path
   d="m 401.59,532.58 c 0.28,0.26 0.77,0.39 1.47,0.39 v 0.52 c -1.53,-0.07 -2.52,-0.1 -2.99,-0.1 -0.47,0 -1.39,0.03 -2.79,0.1 v -0.52 c 0.61,0 1.04,-0.13 1.28,-0.39 0.24,-0.26 0.36,-0.73 0.36,-1.41 v -7.2 c 0,-0.63 -0.04,-1.14 -0.11,-1.53 -0.07,-0.39 -0.25,-0.71 -0.52,-0.96 -0.27,-0.25 -0.69,-0.37 -1.26,-0.37 -0.63,0 -1.2,0.2 -1.72,0.6 -0.51,0.4 -0.92,0.94 -1.21,1.63 -0.29,0.69 -0.44,1.45 -0.44,2.28 v 5.55 c 0,0.68 0.14,1.15 0.42,1.41 0.28,0.26 0.77,0.39 1.47,0.39 v 0.52 c -1.53,-0.07 -2.52,-0.1 -2.99,-0.1 -0.47,0 -1.4,0.03 -2.79,0.1 v -0.52 c 0.61,0 1.04,-0.13 1.28,-0.39 0.24,-0.26 0.36,-0.73 0.36,-1.41 v -7.2 c 0,-0.63 -0.04,-1.14 -0.11,-1.53 -0.08,-0.39 -0.25,-0.71 -0.52,-0.96 -0.27,-0.25 -0.69,-0.37 -1.26,-0.37 -0.63,0 -1.2,0.2 -1.72,0.6 -0.51,0.4 -0.92,0.95 -1.21,1.64 -0.29,0.7 -0.44,1.46 -0.44,2.29 v 5.53 c 0,0.68 0.12,1.15 0.36,1.41 0.24,0.26 0.67,0.39 1.28,0.39 v 0.52 c -1.39,-0.07 -2.32,-0.1 -2.79,-0.1 -0.47,0 -1.46,0.03 -2.99,0.1 v -0.52 c 0.7,0 1.19,-0.13 1.47,-0.39 0.28,-0.26 0.42,-0.73 0.42,-1.41 v -7.8 c 0,-0.76 -0.14,-1.32 -0.42,-1.67 -0.28,-0.35 -0.77,-0.52 -1.47,-0.52 v -0.52 c 0.53,0.05 1.05,0.08 1.54,0.08 1.05,0 1.91,-0.12 2.59,-0.35 v 2.94 c 0.4,-1.03 0.96,-1.79 1.69,-2.28 0.73,-0.49 1.53,-0.74 2.39,-0.74 1.13,0 1.99,0.32 2.59,0.95 0.42,0.43 0.67,1.1 0.77,1.99 0.42,-1.05 0.99,-1.8 1.72,-2.25 0.73,-0.46 1.54,-0.69 2.42,-0.69 1.13,0 1.99,0.32 2.59,0.95 0.3,0.33 0.51,0.76 0.63,1.27 0.12,0.51 0.19,1.18 0.19,1.99 v 6.65 c 0.04,0.68 0.18,1.15 0.46,1.41 z"
   id="path449"
   inkscape:connector-curvature="0" />
		<path
   d="m 414.36,521.99 c 1.04,1.12 1.56,2.82 1.56,5.09 0,2.28 -0.52,3.97 -1.56,5.08 -1.04,1.11 -2.4,1.67 -4.1,1.67 -1.7,0 -3.06,-0.56 -4.1,-1.67 -1.04,-1.11 -1.56,-2.81 -1.56,-5.08 0,-2.27 0.52,-3.97 1.56,-5.09 1.04,-1.12 2.4,-1.68 4.1,-1.68 1.7,0 3.06,0.56 4.1,1.68 z m -6.47,0.35 c -0.58,1.02 -0.87,2.6 -0.87,4.74 0,2.14 0.29,3.72 0.87,4.73 0.58,1.01 1.37,1.52 2.37,1.52 1,0 1.78,-0.51 2.37,-1.52 0.58,-1.01 0.87,-2.59 0.87,-4.73 0,-2.14 -0.29,-3.72 -0.87,-4.74 -0.58,-1.02 -1.37,-1.53 -2.37,-1.53 -1,0 -1.78,0.51 -2.37,1.53 z"
   id="path451"
   inkscape:connector-curvature="0" />
		<path
   d="m 428.81,521.26 c 0.32,0.33 0.54,0.75 0.67,1.25 0.13,0.5 0.2,1.17 0.2,2.02 v 6.65 c 0,0.68 0.14,1.15 0.42,1.41 0.28,0.26 0.77,0.39 1.47,0.39 v 0.52 c -1.53,-0.07 -2.52,-0.1 -2.99,-0.1 -0.47,0 -1.4,0.03 -2.79,0.1 v -0.52 c 0.61,0 1.04,-0.13 1.28,-0.39 0.24,-0.26 0.36,-0.73 0.36,-1.41 v -7.2 c 0,-0.93 -0.13,-1.64 -0.4,-2.13 -0.27,-0.49 -0.8,-0.74 -1.62,-0.74 -0.68,0 -1.29,0.2 -1.82,0.6 -0.53,0.4 -0.94,0.94 -1.23,1.63 -0.29,0.69 -0.44,1.46 -0.44,2.3 v 5.53 c 0,0.68 0.12,1.15 0.36,1.41 0.24,0.26 0.67,0.39 1.28,0.39 v 0.52 c -1.39,-0.07 -2.32,-0.1 -2.79,-0.1 -0.47,0 -1.46,0.03 -2.99,0.1 v -0.52 c 0.7,0 1.19,-0.13 1.47,-0.39 0.28,-0.26 0.42,-0.73 0.42,-1.41 v -7.8 c 0,-0.76 -0.14,-1.32 -0.42,-1.67 -0.28,-0.35 -0.77,-0.52 -1.47,-0.52 v -0.52 c 0.53,0.05 1.05,0.08 1.54,0.08 1.05,0 1.91,-0.12 2.59,-0.35 v 2.94 c 0.42,-1.06 0.99,-1.83 1.73,-2.3 0.74,-0.47 1.57,-0.71 2.5,-0.71 1.2,-0.01 2.08,0.31 2.67,0.94 z"
   id="path453"
   inkscape:connector-curvature="0" />
		<path
   d="m 444.43,532.44 c 0.28,0.35 0.77,0.52 1.47,0.52 v 0.52 c -0.51,-0.05 -1.03,-0.08 -1.54,-0.08 -1.05,0 -1.91,0.12 -2.59,0.35 v -2.22 c -0.3,0.75 -0.75,1.32 -1.34,1.71 -0.6,0.39 -1.33,0.59 -2.19,0.59 -1.59,0 -2.84,-0.57 -3.75,-1.72 -0.91,-1.15 -1.35,-2.82 -1.33,-5.03 0,-1.44 0.25,-2.68 0.76,-3.7 0.51,-1.02 1.19,-1.79 2.04,-2.3 0.85,-0.51 1.8,-0.77 2.83,-0.77 0.63,0 1.21,0.12 1.73,0.36 0.52,0.24 0.94,0.61 1.26,1.11 v -4.83 c 0,-0.76 -0.14,-1.32 -0.42,-1.67 -0.28,-0.35 -0.77,-0.52 -1.47,-0.52 v -0.52 c 0.53,0.05 1.05,0.08 1.54,0.08 1.05,0 1.91,-0.12 2.59,-0.35 v 16.81 c -0.01,0.76 0.13,1.31 0.41,1.66 z m -3.73,-0.1 c 0.51,-0.5 0.87,-1.2 1.07,-2.12 v -7.42 c -0.45,-1.28 -1.38,-1.92 -2.79,-1.92 -1.03,0 -1.86,0.53 -2.49,1.58 -0.63,1.05 -0.94,2.59 -0.92,4.62 -0.02,1.99 0.27,3.49 0.85,4.5 0.58,1.01 1.43,1.51 2.54,1.51 0.64,0 1.22,-0.25 1.74,-0.75 z"
   id="path455"
   inkscape:connector-curvature="0" />
		<path
   d="m 457.95,530.5 c -0.3,0.91 -0.86,1.7 -1.68,2.35 -0.82,0.66 -1.81,0.98 -2.98,0.98 -1.18,0 -2.2,-0.27 -3.06,-0.81 -0.86,-0.54 -1.52,-1.29 -1.98,-2.27 -0.46,-0.97 -0.69,-2.1 -0.69,-3.38 0,-1.44 0.23,-2.7 0.7,-3.76 0.46,-1.06 1.12,-1.88 1.97,-2.45 0.85,-0.57 1.83,-0.86 2.96,-0.86 1.49,0 2.64,0.45 3.45,1.36 0.81,0.91 1.21,2.28 1.21,4.12 h -7.79 c -0.05,0.46 -0.08,1 -0.08,1.59 0,1.1 0.18,2.05 0.54,2.86 0.36,0.81 0.83,1.44 1.42,1.88 0.59,0.44 1.21,0.66 1.86,0.66 0.8,0 1.5,-0.19 2.12,-0.57 0.62,-0.38 1.13,-1.02 1.54,-1.92 z m -6.87,-8.57 c -0.56,0.76 -0.91,1.89 -1.05,3.39 h 5.43 c 0.03,-1.3 -0.15,-2.38 -0.56,-3.24 -0.41,-0.86 -1.01,-1.29 -1.81,-1.29 -0.77,0 -1.45,0.38 -2.01,1.14 z"
   id="path457"
   inkscape:connector-curvature="0" />
		<path
   d="m 465.8,520.59 c 0.46,0.18 0.84,0.4 1.12,0.65 0.18,0.13 0.33,0.2 0.45,0.2 0.3,0 0.48,-0.37 0.55,-1.1 h 0.57 c -0.07,0.81 -0.1,2.22 -0.1,4.23 h -0.57 c -0.18,-1.1 -0.54,-2 -1.06,-2.71 -0.52,-0.71 -1.3,-1.07 -2.33,-1.07 -0.6,0 -1.09,0.17 -1.47,0.51 -0.38,0.34 -0.57,0.81 -0.57,1.41 0,0.58 0.2,1.07 0.6,1.46 0.4,0.39 1.04,0.86 1.92,1.41 0.15,0.08 0.37,0.22 0.67,0.42 0.76,0.5 1.38,0.94 1.84,1.32 0.46,0.38 0.84,0.82 1.13,1.32 0.29,0.5 0.44,1.07 0.44,1.72 0,1.1 -0.41,1.95 -1.23,2.57 -0.82,0.62 -1.83,0.92 -3.03,0.92 -0.75,0 -1.4,-0.12 -1.97,-0.35 -0.37,-0.18 -0.71,-0.41 -1.02,-0.67 -0.07,-0.07 -0.14,-0.1 -0.22,-0.1 -0.12,0 -0.22,0.08 -0.31,0.25 -0.09,0.17 -0.16,0.4 -0.21,0.7 h -0.57 c 0.07,-0.95 0.1,-2.61 0.1,-4.98 h 0.57 c 0.18,1.56 0.51,2.73 1,3.5 0.48,0.77 1.3,1.16 2.47,1.16 0.58,0 1.1,-0.19 1.54,-0.57 0.44,-0.38 0.67,-0.98 0.67,-1.79 0,-0.65 -0.22,-1.2 -0.66,-1.64 -0.44,-0.45 -1.16,-0.99 -2.15,-1.62 -0.81,-0.51 -1.44,-0.94 -1.88,-1.27 -0.44,-0.33 -0.81,-0.74 -1.11,-1.22 -0.3,-0.48 -0.45,-1.05 -0.45,-1.69 0,-1.05 0.35,-1.84 1.05,-2.39 0.7,-0.55 1.58,-0.82 2.64,-0.82 0.58,-0.04 1.12,0.06 1.58,0.24 z"
   id="path459"
   inkscape:connector-curvature="0" />
	</g>
	<line
   class="st6"
   x1="107.31"
   y1="486.35001"
   x2="107.31"
   y2="533.54999"
   id="line463"
   style="fill:none;stroke:#cb9500;stroke-width:1.5;stroke-miterlimit:10" />
</g>
</svg>