<?xml version="1.0" encoding="UTF-8" standalone="no"?>
<!-- Generator: Adobe Illustrator 23.0.1, SVG Export Plug-In . SVG Version: 6.00 Build 0)  -->

<svg
   xmlns:dc="http://purl.org/dc/elements/1.1/"
   xmlns:cc="http://creativecommons.org/ns#"
   xmlns:rdf="http://www.w3.org/1999/02/22-rdf-syntax-ns#"
   xmlns:svg="http://www.w3.org/2000/svg"
   xmlns="http://www.w3.org/2000/svg"
   xmlns:sodipodi="http://sodipodi.sourceforge.net/DTD/sodipodi-0.dtd"
   xmlns:inkscape="http://www.inkscape.org/namespaces/inkscape"
   version="1.1"
   id="Calque_1"
   x="0px"
   y="0px"
   viewBox="0 0 371.2411 282.86355"
   xml:space="preserve"
   sodipodi:docname="Logo80ANS_OR-en.svg"
   width="371.24112"
   height="282.86356"
   inkscape:version="0.92.2 2405546, 2018-03-11"><metadata
   id="metadata444"><rdf:RDF><cc:Work
       rdf:about=""><dc:format>image/svg+xml</dc:format><dc:type
         rdf:resource="http://purl.org/dc/dcmitype/StillImage" /><dc:title></dc:title></cc:Work></rdf:RDF></metadata><defs
   id="defs442" /><sodipodi:namedview
   pagecolor="#ffffff"
   bordercolor="#666666"
   borderopacity="1"
   objecttolerance="10"
   gridtolerance="10"
   guidetolerance="10"
   inkscape:pageopacity="0"
   inkscape:pageshadow="2"
   inkscape:window-width="1869"
   inkscape:window-height="1052"
   id="namedview440"
   showgrid="false"
   fit-margin-top="0"
   fit-margin-left="0"
   fit-margin-right="0"
   fit-margin-bottom="0"
   inkscape:zoom="1.0262623"
   inkscape:cx="192.96114"
   inkscape:cy="117.15499"
   inkscape:window-x="51"
   inkscape:window-y="0"
   inkscape:window-maximized="1"
   inkscape:current-layer="Calque_1" />
<style
   type="text/css"
   id="style255">
	.st0{fill:#CB9500;}
	.st1{opacity:0.82;fill:url(#SVGID_1_);}
	.st2{opacity:0.82;fill:url(#SVGID_2_);}
	.st3{opacity:0.82;fill:url(#SVGID_3_);}
	.st4{opacity:0.82;fill:url(#SVGID_4_);}
	.st5{fill:#FFFFFF;}
	.st6{fill:none;stroke:#CB9500;stroke-width:1.5;stroke-miterlimit:10;}
</style>
<g
   id="g335"
   transform="translate(-104.67887,-255.23646)">
	<path
   class="st0"
   d="m 363.03,411.47 c -0.63,-0.4 -1.46,-0.12 -1.73,0.57 -8.88,22.48 -19.68,31.74 -34.72,29.56 -17.35,-2.51 -39.26,-18.26 -64.57,-41 8.2,-12.11 18.35,-30.47 23.45,-40.02 5.99,-11.23 13.15,-22.61 27.03,-40.84 14.84,-19.48 29.85,-31.45 41.18,-32.83 6.18,-0.75 11.01,0.86 14.78,4.93 5.79,6.24 8.29,17.29 9.04,29.08 0.03,0.51 0.5,0.86 0.99,0.75 4.61,-1.01 9.38,-1.53 14.29,-1.53 1.14,0 2.28,0.03 3.44,0.08 5.8,0.28 11.76,1.25 17.86,2.88 0.69,0.18 1.36,-0.38 1.25,-1.08 -1.85,-12.5 -9.11,-27.29 -18.96,-34.17 -11.47,-8.02 -26.94,-11.13 -44.04,-8.12 -14.69,2.59 -38.36,12.18 -67.72,43.14 -14.34,15.12 -35.12,44.26 -44.39,57.38 -2.6,-2.52 -5.26,-5.12 -8.01,-7.86 -11.29,-11.22 -20.34,-21.24 -27.38,-30.24 47.67,-15.4 72.61,-42.56 69.32,-64.05 -1.18,-7.68 -7.61,-15.35 -16.74,-19.47 -8.07,-3.65 -24.92,-4.19 -35.59,-2.41 -10.5,1.75 -26.04,6.79 -40.46,20.86 -12.48,12.18 -18.66,25.32 -19.01,36.6 -0.58,18.81 11.25,33.81 11.25,33.81 -18.6,8.01 -37.83,16.29 -50.85,28.5 -17.01,15.94 -19.04,32.64 -17.74,43.84 1.82,15.76 13.97,23.56 21.16,26.91 11.77,5.49 38.37,5.01 49.44,3.3 25.92,-4.02 49.9,-13.2 71.09,-32.56 27.14,19.33 52.85,30.22 76.91,33 17.01,1.96 34.71,-1.51 47.08,-7.56 7.21,-3.53 15.72,-9.83 23.58,-20.95 0.35,-0.49 0,-1.17 -0.6,-1.19 -11.35,-0.4 -21.27,-3.42 -30.63,-9.31 z M 193.48,277.82 c 8.89,-8.69 19.69,-12.26 31.41,-13.84 6.63,-0.9 11.84,-0.12 16.41,2.45 4.31,2.42 9.11,9.45 9.53,14.2 0.61,6.97 0.44,13.24 -7.47,23.45 -12.92,16.67 -31.08,26.45 -43.12,31.99 -9.14,-12.77 -13.87,-23.38 -14.84,-32.46 -0.6,-8.92 0.51,-18.4 8.08,-25.79 z m -20.3,164.72 c -9.24,1.38 -16.99,-0.27 -23.05,-4.92 -5.85,-4.49 -9.73,-11.69 -10.66,-19.77 -3,-26.25 8.39,-45.82 38.67,-63.56 7.81,11.4 19.46,24.57 36.84,38.75 3.75,3.06 7.32,5.92 10.77,8.65 -17.29,24.07 -35.74,38.33 -52.57,40.85 z"
   id="path257"
   inkscape:connector-curvature="0"
   style="fill:#cb9500" />
	<linearGradient
   id="SVGID_1_"
   gradientUnits="userSpaceOnUse"
   x1="149.7402"
   y1="366.32721"
   x2="177.25011"
   y2="349.18259">
		<stop
   offset="0.1067"
   style="stop-color:#CB9500"
   id="stop259" />
		<stop
   offset="0.194"
   style="stop-color:#C79200"
   id="stop261" />
		<stop
   offset="0.3157"
   style="stop-color:#BA8900"
   id="stop263" />
		<stop
   offset="0.4577"
   style="stop-color:#A47A00"
   id="stop265" />
		<stop
   offset="0.6149"
   style="stop-color:#846402"
   id="stop267" />
		<stop
   offset="0.7825"
   style="stop-color:#594405"
   id="stop269" />
		<stop
   offset="0.9404"
   style="stop-color:#000000"
   id="stop271" />
		<stop
   offset="0.9947"
   style="stop-color:#000000"
   id="stop273" />
	</linearGradient>
	<path
   class="st1"
   d="m 154.57,372.08 c 6.05,-6.17 16.11,-13.25 23.57,-17.78 0,0 -1.41,-2.08 -2.35,-3.46 -0.82,-1.21 -2.2,-3.32 -2.2,-3.32 l -0.16,0.07 c -6.67,2.87 -22.74,9.87 -29.37,13.53 z"
   id="path276"
   inkscape:connector-curvature="0"
   style="opacity:0.81999966;fill:url(#SVGID_1_)" />
	<linearGradient
   id="SVGID_2_"
   gradientUnits="userSpaceOnUse"
   x1="212.29919"
   y1="433.5657"
   x2="237.2668"
   y2="408.5817">
		<stop
   offset="0.1067"
   style="stop-color:#CB9500"
   id="stop278" />
		<stop
   offset="0.194"
   style="stop-color:#C79200"
   id="stop280" />
		<stop
   offset="0.3157"
   style="stop-color:#BA8900"
   id="stop282" />
		<stop
   offset="0.4577"
   style="stop-color:#A47A00"
   id="stop284" />
		<stop
   offset="0.6149"
   style="stop-color:#846402"
   id="stop286" />
		<stop
   offset="0.7825"
   style="stop-color:#594405"
   id="stop288" />
		<stop
   offset="0.9404"
   style="stop-color:#000000"
   id="stop290" />
		<stop
   offset="0.9947"
   style="stop-color:#000000"
   id="stop292" />
	</linearGradient>
	<path
   class="st2"
   d="m 246.66,417.47 c 0,0 -4.88,-3.33 -10.78,-7.75 -5.9,-4.42 -10.05,-7.98 -10.05,-7.98 -7.37,10.26 -14.94,18.72 -22.52,25.25 l 10.68,11.99 c 11.48,-5.16 22.41,-12.13 32.67,-21.51 z"
   id="path295"
   inkscape:connector-curvature="0"
   style="opacity:0.81999966;fill:url(#SVGID_2_)" />
	<linearGradient
   id="SVGID_3_"
   gradientUnits="userSpaceOnUse"
   x1="270.18411"
   y1="363.71429"
   x2="249.16029"
   y2="393.241">
		<stop
   offset="0.1067"
   style="stop-color:#CB9500"
   id="stop297" />
		<stop
   offset="0.194"
   style="stop-color:#C79200"
   id="stop299" />
		<stop
   offset="0.3157"
   style="stop-color:#BA8900"
   id="stop301" />
		<stop
   offset="0.4577"
   style="stop-color:#A47A00"
   id="stop303" />
		<stop
   offset="0.6149"
   style="stop-color:#846402"
   id="stop305" />
		<stop
   offset="0.7825"
   style="stop-color:#594405"
   id="stop307" />
		<stop
   offset="0.9404"
   style="stop-color:#000000"
   id="stop309" />
		<stop
   offset="0.9947"
   style="stop-color:#000000"
   id="stop311" />
	</linearGradient>
	<path
   class="st3"
   d="m 262.01,400.6 c 7.49,-11.06 16.67,-27.56 21.99,-37.34 l -19.34,-16.23 c -9.67,12.57 -18.99,25.66 -24.38,33.3 0,0 5.5,5.51 11.37,10.91 5.72,5.26 10.36,9.36 10.36,9.36 z"
   id="path314"
   inkscape:connector-curvature="0"
   style="opacity:0.81999966;fill:url(#SVGID_3_)" />
	<linearGradient
   id="SVGID_4_"
   gradientUnits="userSpaceOnUse"
   x1="229.44141"
   y1="325.68771"
   x2="201.02"
   y2="339.59219">
		<stop
   offset="0.1067"
   style="stop-color:#CB9500"
   id="stop316" />
		<stop
   offset="0.194"
   style="stop-color:#C79200"
   id="stop318" />
		<stop
   offset="0.3157"
   style="stop-color:#BA8900"
   id="stop320" />
		<stop
   offset="0.4577"
   style="stop-color:#A47A00"
   id="stop322" />
		<stop
   offset="0.6149"
   style="stop-color:#846402"
   id="stop324" />
		<stop
   offset="0.7825"
   style="stop-color:#594405"
   id="stop326" />
		<stop
   offset="0.9404"
   style="stop-color:#000000"
   id="stop328" />
		<stop
   offset="0.9947"
   style="stop-color:#000000"
   id="stop330" />
	</linearGradient>
	<path
   class="st4"
   d="m 232.77,330.52 -6.23,-9.95 c -9.32,7.15 -18.94,12.11 -26.28,15.49 1.41,1.98 2.92,4 4.55,6.08 10.43,-3.36 19.77,-7.3 27.96,-11.62 z"
   id="path333"
   inkscape:connector-curvature="0"
   style="opacity:0.81999966;fill:url(#SVGID_4_)" />
</g>
<g
   id="g349"
   transform="translate(-104.67887,-255.23646)">
	<path
   d="m 391.39,334.48 c -0.63,-0.04 -1.26,-0.06 -1.88,-0.06 -8.69,-0.01 -16.55,3.69 -23.41,11.02 -6.23,6.66 -8.33,12.02 -8.31,18.5 0.01,3.46 0.62,7.24 1.53,11.71 1.71,8.4 6.7,16.52 13.69,22.26 5.35,4.4 11.32,6.64 17.61,6.68 3.26,0.02 6.6,-0.55 9.99,-1.72 10.95,-3.78 21.42,-14.6 25.46,-26.3 1.28,-3.71 1.9,-7.31 1.89,-10.74 -0.03,-8.39 -3.86,-15.74 -11.18,-20.99 -8.88,-6.38 -17.42,-9.87 -25.39,-10.36 z"
   id="path337"
   inkscape:connector-curvature="0" />
	<g
   id="g347">
		<path
   class="st5"
   d="m 378.89,369.62 h -2.41 v 0.07 c -0.02,0.47 -0.3,4.56 -3.96,4.56 -3.27,0 -4.94,-2.93 -4.94,-8.72 0,-5.79 1.66,-8.72 4.94,-8.72 3.73,0 3.95,4.38 3.96,4.56 v 0.07 h 2.41 c 0.22,0 0.44,-0.09 0.59,-0.25 0.15,-0.15 0.22,-0.35 0.21,-0.56 -0.05,-1.14 -0.63,-6.8 -7.21,-6.8 -5.32,0 -8.13,4.04 -8.13,11.69 0,7.66 2.81,11.71 8.13,11.71 6.33,0 7.12,-5.17 7.21,-6.76 0.02,-0.22 -0.06,-0.43 -0.21,-0.59 -0.15,-0.17 -0.37,-0.26 -0.59,-0.26 z"
   id="path339"
   inkscape:connector-curvature="0"
   style="fill:#ffffff" />
		<path
   class="st5"
   d="m 416.29,364.14 v 0 l -2.07,-0.9 c -1.99,-0.88 -2.7,-1.73 -2.7,-3.26 0,-1.99 1.46,-3.33 3.63,-3.33 1.28,0 2.34,0.26 3.62,1.57 l 0.07,0.07 1.11,-1.01 c 0.64,-0.59 0.46,-1.13 0.19,-1.47 -1.08,-1.27 -2.81,-1.97 -4.88,-1.97 -3.99,0 -6.89,2.6 -6.89,6.19 0,3.53 2.22,5 4.62,6.07 l 2.12,0.94 c 2.13,0.95 3.14,1.77 3.14,3.81 0,2.79 -2.52,3.53 -4.01,3.53 -1.28,0 -2.71,-0.27 -4.46,-2.26 l -0.07,-0.08 -1.15,1.01 c -0.59,0.52 -0.6,0.97 -0.02,1.71 1.59,2.04 3.91,2.47 5.58,2.47 3.62,0 7.28,-2.22 7.28,-6.47 -0.01,-3.67 -2.05,-5.3 -5.11,-6.62 z"
   id="path341"
   inkscape:connector-curvature="0"
   style="fill:#ffffff" />
		<path
   class="st5"
   d="m 395.85,360.53 c 0,-3.61 -2.93,-6.67 -6.54,-6.67 -1.7,0 -3.25,0.65 -4.41,1.71 v -1.24 h -2.18 c -0.66,0 -0.91,0.43 -0.91,0.92 v 21.08 c 0,0.59 0.36,0.91 0.9,0.91 h 2.18 c 0,0 0,-16.57 0,-16.58 0,-2.18 1.77,-3.94 3.94,-3.94 2.18,0 3.94,1.77 3.94,3.94 0,0 0,16.58 0,16.58 h 2.16 c 0.6,0 0.91,-0.33 0.91,-0.91 0.01,-0.01 0.01,-15.78 0.01,-15.8 z"
   id="path343"
   inkscape:connector-curvature="0"
   style="fill:#ffffff" />
		<path
   class="st5"
   d="m 408.33,355.43 c 0.11,-0.14 0.18,-0.32 0.18,-0.51 0,-0.36 -0.24,-0.67 -0.56,-0.78 -0.63,-0.21 -1.3,-0.33 -2,-0.33 -1.7,0 -3.25,0.65 -4.41,1.71 v -1.24 h -2.18 c -0.66,0 -0.91,0.43 -0.91,0.92 v 21.08 c 0,0.59 0.36,0.91 0.9,0.91 h 2.18 c 0,0 0,-16.57 0,-16.57 0,-2.18 1.77,-3.94 3.94,-3.94 0.57,0 1.11,0.12 1.6,0.34 z"
   id="path345"
   inkscape:connector-curvature="0"
   style="fill:#ffffff" />
	</g>
</g>
<line
   class="st6"
   x1="2.6311264"
   y1="231.11356"
   x2="2.6311264"
   y2="278.31354"
   id="line351"
   style="fill:none;stroke:#cb9500;stroke-width:1.5;stroke-miterlimit:10" />
<g
   id="g437"
   transform="translate(-104.67887,-255.23646)">
	<path
   d="m 137.1,497.25 c 0.51,0.45 0.95,1 1.32,1.64 0.37,0.64 0.56,1.38 0.56,2.2 0,0.92 -0.23,1.74 -0.69,2.46 -0.46,0.72 -1.09,1.27 -1.9,1.67 -0.81,0.4 -1.72,0.59 -2.74,0.59 -1.4,0 -2.58,-0.36 -3.53,-1.07 -0.95,-0.72 -1.43,-1.74 -1.43,-3.07 0,-1.13 0.36,-2.15 1.09,-3.04 0.73,-0.89 1.68,-1.63 2.86,-2.22 -1,-0.82 -1.78,-1.6 -2.32,-2.35 -0.54,-0.74 -0.81,-1.6 -0.81,-2.57 0,-0.76 0.2,-1.43 0.59,-2.01 0.39,-0.58 0.94,-1.04 1.63,-1.36 0.69,-0.32 1.46,-0.48 2.3,-0.48 1.17,0 2.14,0.3 2.91,0.89 0.77,0.59 1.16,1.42 1.16,2.49 0,0.89 -0.27,1.7 -0.81,2.44 -0.54,0.74 -1.32,1.44 -2.32,2.1 0.91,0.68 1.62,1.24 2.13,1.69 z m -1.11,7.25 c 0.59,-0.58 0.89,-1.37 0.89,-2.37 0,-0.77 -0.18,-1.47 -0.53,-2.09 -0.35,-0.62 -0.77,-1.15 -1.26,-1.59 -0.49,-0.44 -1.18,-1.03 -2.09,-1.75 -1.43,1.04 -2.15,2.57 -2.15,4.59 0,1.17 0.24,2.14 0.72,2.91 0.48,0.77 1.22,1.16 2.22,1.16 0.88,0 1.61,-0.29 2.2,-0.86 z m -3.91,-15.7 c -0.44,0.48 -0.65,1.12 -0.65,1.93 0,0.94 0.27,1.74 0.8,2.41 0.53,0.67 1.32,1.39 2.36,2.16 1.02,-0.97 1.53,-2.29 1.53,-3.95 0,-0.99 -0.21,-1.78 -0.62,-2.37 -0.41,-0.59 -1,-0.89 -1.75,-0.89 -0.68,-0.01 -1.23,0.23 -1.67,0.71 z"
   id="path353"
   inkscape:connector-curvature="0" />
	<path
   d="m 150.85,493.21 c 0.9,0.54 1.61,1.3 2.12,2.28 0.51,0.98 0.77,2.12 0.77,3.41 0,1.32 -0.26,2.5 -0.79,3.54 -0.53,1.04 -1.26,1.87 -2.21,2.47 -0.95,0.6 -2.03,0.9 -3.25,0.9 -1.14,0 -2.16,-0.27 -3.06,-0.8 -0.91,-0.53 -1.62,-1.3 -2.14,-2.28 -0.52,-0.99 -0.78,-2.13 -0.78,-3.43 0,-1.3 0.26,-2.47 0.78,-3.52 0.52,-1.04 1.25,-1.87 2.2,-2.47 0.95,-0.6 2.04,-0.9 3.27,-0.9 1.16,-0.01 2.19,0.26 3.09,0.8 z m -5.19,0.39 c -0.55,0.5 -0.98,1.23 -1.28,2.2 -0.3,0.96 -0.46,2.1 -0.46,3.42 0,2.09 0.35,3.64 1.06,4.64 0.71,1 1.62,1.51 2.74,1.51 0.71,0 1.34,-0.25 1.89,-0.77 0.55,-0.51 0.98,-1.25 1.28,-2.21 0.3,-0.96 0.46,-2.1 0.46,-3.42 0,-2.07 -0.35,-3.61 -1.06,-4.62 -0.71,-1.01 -1.62,-1.51 -2.74,-1.51 -0.71,0.01 -1.34,0.26 -1.89,0.76 z"
   id="path355"
   inkscape:connector-curvature="0" />
	<path
   d="m 172.75,492.75 v 0.49 c -0.33,0.03 -0.62,0.18 -0.88,0.44 -0.25,0.26 -0.5,0.69 -0.73,1.28 l -4.05,10.61 -0.84,2.15 c -0.31,0.81 -0.67,1.38 -1.06,1.73 -0.25,0.23 -0.54,0.39 -0.89,0.49 -0.35,0.1 -0.69,0.15 -1.04,0.15 -0.49,0 -0.9,-0.13 -1.21,-0.39 -0.31,-0.26 -0.47,-0.63 -0.47,-1.09 0,-0.39 0.12,-0.71 0.35,-0.95 0.23,-0.24 0.55,-0.36 0.96,-0.36 0.36,0 0.66,0.1 0.9,0.31 0.24,0.21 0.36,0.49 0.36,0.85 0,0.49 -0.22,0.86 -0.67,1.11 0.03,0.02 0.08,0.02 0.15,0.02 0.9,0 1.6,-0.64 2.1,-1.92 l 0.86,-2.25 -4.47,-10.79 c -0.28,-0.56 -0.56,-0.93 -0.84,-1.11 -0.28,-0.18 -0.56,-0.27 -0.84,-0.27 v -0.52 c 0.71,0.1 1.51,0.15 2.42,0.15 0.82,0 1.89,-0.05 3.21,-0.15 v 0.52 c -0.59,0 -1.02,0.05 -1.3,0.15 -0.28,0.1 -0.41,0.34 -0.41,0.72 0,0.35 0.1,0.75 0.3,1.21 l 2.96,7.36 2.74,-7.13 c 0.18,-0.49 0.27,-0.87 0.27,-1.14 0,-0.38 -0.15,-0.66 -0.44,-0.84 -0.3,-0.18 -0.77,-0.3 -1.41,-0.35 v -0.49 c 0.87,0.05 1.56,0.07 2.07,0.07 0.75,0.01 1.37,-0.01 1.9,-0.06 z"
   id="path357"
   inkscape:connector-curvature="0" />
	<path
   d="m 184.2,502.5 c -0.3,0.91 -0.85,1.68 -1.67,2.33 -0.81,0.65 -1.8,0.98 -2.95,0.98 -1.17,0 -2.18,-0.27 -3.04,-0.8 -0.86,-0.53 -1.51,-1.28 -1.96,-2.25 -0.45,-0.96 -0.68,-2.08 -0.68,-3.34 0,-1.43 0.23,-2.67 0.69,-3.73 0.46,-1.05 1.11,-1.86 1.95,-2.43 0.84,-0.57 1.82,-0.85 2.94,-0.85 1.48,0 2.62,0.45 3.42,1.34 0.8,0.9 1.2,2.26 1.2,4.09 h -7.73 c -0.05,0.46 -0.07,0.99 -0.07,1.58 0,1.09 0.18,2.03 0.53,2.84 0.35,0.81 0.82,1.43 1.41,1.86 0.58,0.44 1.2,0.65 1.84,0.65 0.79,0 1.49,-0.19 2.1,-0.57 0.61,-0.38 1.12,-1.01 1.53,-1.9 z m -6.81,-8.49 c -0.56,0.76 -0.9,1.88 -1.04,3.36 h 5.38 c 0.03,-1.28 -0.15,-2.35 -0.56,-3.21 -0.4,-0.86 -1,-1.28 -1.79,-1.28 -0.77,-0.01 -1.43,0.37 -1.99,1.13 z"
   id="path359"
   inkscape:connector-curvature="0" />
	<path
   d="m 186.98,504.86 c -0.5,-0.52 -0.75,-1.24 -0.75,-2.16 0,-0.74 0.2,-1.35 0.6,-1.83 0.4,-0.48 0.88,-0.86 1.43,-1.14 0.55,-0.28 1.28,-0.58 2.18,-0.89 0.92,-0.31 1.6,-0.6 2.05,-0.86 0.44,-0.26 0.67,-0.62 0.67,-1.06 v -1.53 c 0,-0.95 -0.2,-1.61 -0.6,-1.96 -0.4,-0.35 -0.97,-0.53 -1.69,-0.53 -1.15,0 -1.97,0.3 -2.44,0.89 0.33,0.08 0.6,0.26 0.83,0.52 0.22,0.26 0.33,0.59 0.33,0.99 0,0.41 -0.13,0.74 -0.4,0.98 -0.26,0.24 -0.6,0.36 -1.01,0.36 -0.46,0 -0.81,-0.14 -1.04,-0.43 -0.23,-0.29 -0.35,-0.64 -0.35,-1.05 0,-0.39 0.09,-0.72 0.28,-0.99 0.19,-0.26 0.47,-0.53 0.85,-0.79 0.4,-0.28 0.9,-0.51 1.51,-0.69 0.61,-0.18 1.28,-0.27 2,-0.27 1.28,0 2.25,0.3 2.91,0.91 0.41,0.38 0.69,0.83 0.83,1.37 0.14,0.54 0.21,1.24 0.21,2.11 v 6.86 c 0,0.41 0.06,0.71 0.17,0.89 0.11,0.18 0.31,0.27 0.59,0.27 0.2,0 0.38,-0.04 0.56,-0.14 0.18,-0.1 0.36,-0.22 0.56,-0.38 l 0.27,0.42 c -0.43,0.33 -0.79,0.56 -1.1,0.7 -0.3,0.14 -0.69,0.21 -1.15,0.21 -0.79,0 -1.34,-0.2 -1.65,-0.59 -0.31,-0.39 -0.47,-0.93 -0.47,-1.6 -0.49,0.82 -1.06,1.39 -1.7,1.72 -0.64,0.32 -1.37,0.48 -2.17,0.48 -1.04,-0.02 -1.81,-0.27 -2.31,-0.79 z m 6.18,-2.09 v -4.84 c -0.15,0.23 -0.35,0.42 -0.62,0.57 -0.27,0.15 -0.67,0.35 -1.21,0.59 -0.63,0.26 -1.13,0.51 -1.52,0.75 -0.39,0.24 -0.72,0.56 -1,0.97 -0.28,0.41 -0.42,0.94 -0.42,1.58 0,0.74 0.18,1.3 0.54,1.68 0.36,0.38 0.84,0.57 1.43,0.57 1.1,0.01 2.03,-0.62 2.8,-1.87 z"
   id="path361"
   inkscape:connector-curvature="0" />
	<path
   d="m 207.56,492.97 c 0.42,0.38 0.63,0.84 0.63,1.38 0,0.43 -0.13,0.79 -0.38,1.1 -0.26,0.3 -0.6,0.46 -1.02,0.46 -0.36,0 -0.67,-0.12 -0.93,-0.35 -0.26,-0.23 -0.38,-0.54 -0.38,-0.94 0,-0.54 0.28,-0.99 0.84,-1.33 -0.12,-0.17 -0.29,-0.25 -0.52,-0.25 -0.64,0 -1.23,0.25 -1.75,0.75 -0.52,0.5 -0.94,1.12 -1.23,1.84 -0.3,0.72 -0.44,1.41 -0.44,2.05 v 5.23 c 0,0.76 0.22,1.28 0.65,1.58 0.44,0.3 1.09,0.44 1.96,0.44 v 0.52 l -0.59,-0.02 c -1.68,-0.05 -2.75,-0.07 -3.21,-0.07 -0.43,0 -1.4,0.03 -2.91,0.1 v -0.52 c 0.69,0 1.18,-0.13 1.46,-0.38 0.28,-0.25 0.42,-0.72 0.42,-1.39 v -7.73 c 0,-0.76 -0.14,-1.31 -0.42,-1.65 -0.28,-0.35 -0.77,-0.52 -1.46,-0.52 v -0.52 c 0.53,0.05 1.04,0.07 1.53,0.07 1.04,0 1.89,-0.11 2.57,-0.34 v 3.08 c 0.3,-0.82 0.77,-1.55 1.42,-2.2 0.65,-0.64 1.37,-0.96 2.16,-0.96 0.65,0 1.18,0.19 1.6,0.57 z"
   id="path363"
   inkscape:connector-curvature="0" />
	<path
   d="m 215.25,492.67 c 0.46,0.18 0.83,0.39 1.11,0.64 0.18,0.13 0.33,0.2 0.44,0.2 0.3,0 0.48,-0.36 0.54,-1.09 h 0.57 c -0.07,0.81 -0.1,2.21 -0.1,4.2 h -0.57 c -0.18,-1.09 -0.53,-1.98 -1.05,-2.69 -0.52,-0.71 -1.29,-1.06 -2.31,-1.06 -0.59,0 -1.08,0.17 -1.46,0.51 -0.38,0.34 -0.57,0.8 -0.57,1.39 0,0.58 0.2,1.06 0.59,1.44 0.39,0.38 1.03,0.85 1.9,1.39 0.15,0.08 0.37,0.22 0.67,0.42 0.76,0.49 1.37,0.93 1.83,1.31 0.46,0.38 0.83,0.82 1.12,1.31 0.29,0.49 0.43,1.06 0.43,1.7 0,1.09 -0.41,1.93 -1.22,2.54 -0.81,0.61 -1.81,0.91 -3,0.91 -0.74,0 -1.39,-0.12 -1.95,-0.35 -0.36,-0.18 -0.7,-0.4 -1.01,-0.67 -0.07,-0.07 -0.14,-0.1 -0.22,-0.1 -0.12,0 -0.22,0.08 -0.31,0.25 -0.09,0.17 -0.16,0.4 -0.21,0.69 h -0.57 c 0.07,-0.94 0.1,-2.58 0.1,-4.94 h 0.57 c 0.18,1.55 0.51,2.7 0.99,3.47 0.48,0.77 1.29,1.15 2.44,1.15 0.58,0 1.09,-0.19 1.53,-0.57 0.44,-0.38 0.67,-0.97 0.67,-1.78 0,-0.64 -0.22,-1.18 -0.65,-1.63 -0.43,-0.45 -1.15,-0.98 -2.14,-1.6 -0.81,-0.51 -1.43,-0.93 -1.86,-1.26 -0.44,-0.33 -0.8,-0.73 -1.1,-1.21 -0.3,-0.48 -0.44,-1.04 -0.44,-1.68 0,-1.04 0.35,-1.83 1.04,-2.37 0.69,-0.54 1.56,-0.81 2.62,-0.81 0.6,0.02 1.12,0.11 1.58,0.29 z"
   id="path365"
   inkscape:connector-curvature="0" />
	<path
   d="m 236.54,494.07 c 1.03,1.11 1.54,2.79 1.54,5.05 0,2.25 -0.51,3.93 -1.54,5.04 -1.03,1.1 -2.38,1.65 -4.06,1.65 -1.68,0 -3.03,-0.55 -4.06,-1.65 -1.03,-1.1 -1.54,-2.78 -1.54,-5.04 0,-2.25 0.51,-3.94 1.54,-5.05 1.03,-1.11 2.38,-1.67 4.06,-1.67 1.68,0 3.03,0.56 4.06,1.67 z m -6.4,0.35 c -0.58,1.01 -0.86,2.58 -0.86,4.7 0,2.12 0.29,3.69 0.86,4.69 0.58,1 1.36,1.51 2.34,1.51 0.99,0 1.77,-0.5 2.35,-1.51 0.58,-1 0.86,-2.57 0.86,-4.69 0,-2.12 -0.29,-3.69 -0.86,-4.7 -0.58,-1.01 -1.36,-1.52 -2.35,-1.52 -0.99,0 -1.77,0.5 -2.34,1.52 z"
   id="path367"
   inkscape:connector-curvature="0" />
	<path
   d="m 248.21,486.82 c 0.51,0.41 0.77,0.92 0.77,1.53 0,0.38 -0.12,0.69 -0.37,0.94 -0.25,0.25 -0.56,0.37 -0.94,0.37 -0.38,0 -0.7,-0.12 -0.96,-0.36 -0.26,-0.24 -0.39,-0.56 -0.39,-0.98 0,-0.35 0.09,-0.62 0.28,-0.84 0.19,-0.21 0.44,-0.35 0.75,-0.42 -0.05,-0.16 -0.18,-0.3 -0.4,-0.39 -0.22,-0.09 -0.49,-0.15 -0.81,-0.15 -0.36,0 -0.68,0.08 -0.96,0.25 -0.28,0.16 -0.49,0.39 -0.64,0.67 -0.18,0.33 -0.3,0.81 -0.36,1.46 -0.06,0.64 -0.09,1.72 -0.09,3.23 v 0.64 h 2.64 v 0.49 h -2.64 v 9.65 c 0,0.76 0.22,1.28 0.65,1.58 0.44,0.3 1.09,0.44 1.96,0.44 v 0.52 l -0.59,-0.02 c -1.68,-0.05 -2.75,-0.07 -3.21,-0.07 -0.43,0 -1.4,0.03 -2.91,0.1 v -0.52 c 0.69,0 1.18,-0.13 1.46,-0.38 0.28,-0.25 0.42,-0.72 0.42,-1.39 v -9.9 h -1.97 v -0.49 h 1.97 c 0,-1.45 0.09,-2.57 0.27,-3.36 0.18,-0.79 0.51,-1.46 0.99,-2.02 0.33,-0.38 0.75,-0.68 1.26,-0.9 0.51,-0.22 1.07,-0.33 1.68,-0.33 0.84,-0.01 1.56,0.21 2.14,0.65 z"
   id="path369"
   inkscape:connector-curvature="0" />
	<path
   d="m 265.03,494.13 c 0.86,1.15 1.3,2.81 1.3,4.99 0,1.43 -0.25,2.65 -0.74,3.65 -0.49,1 -1.16,1.76 -1.99,2.27 -0.83,0.51 -1.76,0.77 -2.78,0.77 -0.61,0 -1.2,-0.12 -1.76,-0.37 -0.57,-0.25 -1.07,-0.6 -1.49,-1.06 l -1.75,1.48 -0.42,-0.17 c 0.12,-0.41 0.17,-0.89 0.17,-1.43 V 489.1 c 0,-0.76 -0.14,-1.31 -0.42,-1.65 -0.28,-0.35 -0.76,-0.52 -1.46,-0.52 v -0.52 c 0.53,0.05 1.04,0.07 1.53,0.07 1.04,0 1.89,-0.11 2.57,-0.34 v 8.91 c 0.36,-0.84 0.88,-1.49 1.57,-1.95 0.68,-0.46 1.44,-0.69 2.28,-0.69 1.39,-0.01 2.52,0.57 3.39,1.72 z m -1.93,9.62 c 0.55,-1 0.83,-2.54 0.83,-4.63 0,-2.01 -0.25,-3.5 -0.74,-4.49 -0.49,-0.99 -1.25,-1.48 -2.27,-1.48 -0.69,0 -1.33,0.27 -1.9,0.8 -0.58,0.53 -0.99,1.29 -1.23,2.26 v 7.83 c 0.38,0.39 0.81,0.7 1.31,0.9 0.49,0.21 1,0.31 1.53,0.31 1.09,-0.01 1.92,-0.51 2.47,-1.5 z"
   id="path371"
   inkscape:connector-curvature="0" />
	<path
   d="m 279.41,502.79 c 0,0.76 0.14,1.31 0.42,1.65 0.28,0.34 0.77,0.52 1.46,0.52 v 0.52 c -0.51,-0.05 -1.02,-0.07 -1.53,-0.07 -1.04,0 -1.89,0.12 -2.57,0.35 v -2.91 c -0.4,1.02 -0.96,1.77 -1.68,2.25 -0.72,0.48 -1.51,0.72 -2.37,0.72 -1.12,0 -1.97,-0.31 -2.57,-0.94 -0.3,-0.33 -0.51,-0.75 -0.63,-1.26 -0.12,-0.51 -0.19,-1.17 -0.19,-1.97 v -6.2 c 0,-0.76 -0.14,-1.31 -0.42,-1.65 -0.28,-0.35 -0.77,-0.52 -1.46,-0.52 v -0.52 c 0.51,0.05 1.02,0.07 1.53,0.07 1.04,0 1.89,-0.11 2.57,-0.34 v 9.7 c 0,0.63 0.04,1.13 0.11,1.52 0.07,0.39 0.25,0.7 0.52,0.95 0.27,0.25 0.69,0.37 1.25,0.37 0.63,0 1.19,-0.2 1.7,-0.59 0.51,-0.39 0.91,-0.93 1.2,-1.62 0.29,-0.69 0.43,-1.44 0.43,-2.26 v -5.11 c 0,-0.76 -0.14,-1.31 -0.42,-1.65 -0.28,-0.35 -0.77,-0.52 -1.46,-0.52 v -0.52 c 0.51,0.05 1.02,0.07 1.53,0.07 1.04,0 1.89,-0.11 2.57,-0.34 v 10.3 z"
   id="path373"
   inkscape:connector-curvature="0" />
	<path
   d="m 286.64,503.17 c 0,0.67 0.14,1.14 0.42,1.39 0.28,0.26 0.76,0.38 1.46,0.38 v 0.52 c -1.51,-0.07 -2.51,-0.1 -2.99,-0.1 -0.48,0 -1.47,0.03 -2.99,0.1 v -0.52 c 0.69,0 1.18,-0.13 1.46,-0.38 0.28,-0.25 0.42,-0.72 0.42,-1.39 v -7.73 c 0,-0.76 -0.14,-1.31 -0.42,-1.65 -0.28,-0.35 -0.76,-0.52 -1.46,-0.52 v -0.52 c 0.53,0.05 1.04,0.07 1.53,0.07 1.04,0 1.89,-0.11 2.57,-0.34 z m -0.18,-16.12 c 0.31,0.31 0.47,0.68 0.47,1.11 0,0.43 -0.16,0.8 -0.47,1.11 -0.31,0.31 -0.68,0.47 -1.11,0.47 -0.43,0 -0.8,-0.16 -1.11,-0.47 -0.31,-0.31 -0.47,-0.68 -0.47,-1.11 0,-0.43 0.16,-0.8 0.47,-1.11 0.31,-0.31 0.68,-0.47 1.11,-0.47 0.43,0 0.8,0.15 1.11,0.47 z"
   id="path375"
   inkscape:connector-curvature="0" />
	<path
   d="m 293.7,503.17 c 0,0.67 0.14,1.14 0.42,1.39 0.28,0.26 0.76,0.38 1.46,0.38 v 0.52 c -1.51,-0.07 -2.51,-0.1 -2.99,-0.1 -0.48,0 -1.47,0.03 -2.99,0.1 v -0.52 c 0.69,0 1.18,-0.13 1.46,-0.38 0.28,-0.25 0.42,-0.72 0.42,-1.39 v -14.09 c 0,-0.76 -0.14,-1.31 -0.42,-1.65 -0.28,-0.35 -0.76,-0.52 -1.46,-0.52 v -0.52 c 0.51,0.05 1.02,0.07 1.53,0.07 1.04,0 1.89,-0.12 2.57,-0.35 z"
   id="path377"
   inkscape:connector-curvature="0" />
	<path
   d="m 308.24,504.42 c 0.28,0.35 0.77,0.52 1.46,0.52 v 0.52 c -0.51,-0.05 -1.02,-0.07 -1.53,-0.07 -1.04,0 -1.89,0.12 -2.57,0.35 v -2.2 c -0.3,0.74 -0.74,1.3 -1.33,1.69 -0.59,0.39 -1.32,0.58 -2.17,0.58 -1.58,0 -2.82,-0.57 -3.71,-1.7 -0.9,-1.14 -1.34,-2.8 -1.32,-4.99 0,-1.43 0.25,-2.65 0.75,-3.67 0.5,-1.01 1.18,-1.77 2.02,-2.28 0.85,-0.51 1.78,-0.76 2.8,-0.76 0.62,0 1.2,0.12 1.71,0.36 0.52,0.24 0.93,0.61 1.25,1.1 v -4.79 c 0,-0.76 -0.14,-1.31 -0.42,-1.65 -0.28,-0.34 -0.76,-0.52 -1.46,-0.52 v -0.52 c 0.53,0.05 1.04,0.07 1.53,0.07 1.04,0 1.89,-0.12 2.57,-0.35 v 16.66 c 0,0.76 0.14,1.31 0.42,1.65 z m -3.71,-0.09 c 0.51,-0.49 0.86,-1.19 1.06,-2.1 v -7.36 c -0.44,-1.27 -1.37,-1.9 -2.76,-1.9 -1.02,0 -1.84,0.52 -2.47,1.57 -0.62,1.04 -0.93,2.57 -0.91,4.58 -0.02,1.97 0.26,3.46 0.84,4.46 0.58,1 1.42,1.49 2.52,1.49 0.64,0 1.21,-0.25 1.72,-0.74 z"
   id="path379"
   inkscape:connector-curvature="0" />
	<path
   d="m 315.02,503.17 c 0,0.67 0.14,1.14 0.42,1.39 0.28,0.26 0.76,0.38 1.46,0.38 v 0.52 c -1.51,-0.07 -2.51,-0.1 -2.99,-0.1 -0.48,0 -1.47,0.03 -2.99,0.1 v -0.52 c 0.69,0 1.18,-0.13 1.46,-0.38 0.28,-0.25 0.42,-0.72 0.42,-1.39 v -7.73 c 0,-0.76 -0.14,-1.31 -0.42,-1.65 -0.28,-0.35 -0.76,-0.52 -1.46,-0.52 v -0.52 c 0.53,0.05 1.04,0.07 1.53,0.07 1.04,0 1.89,-0.11 2.57,-0.34 z m -0.17,-16.12 c 0.31,0.31 0.47,0.68 0.47,1.11 0,0.43 -0.16,0.8 -0.47,1.11 -0.31,0.31 -0.68,0.47 -1.11,0.47 -0.43,0 -0.8,-0.16 -1.11,-0.47 -0.31,-0.31 -0.47,-0.68 -0.47,-1.11 0,-0.43 0.16,-0.8 0.47,-1.11 0.31,-0.31 0.68,-0.47 1.11,-0.47 0.43,0 0.8,0.15 1.11,0.47 z"
   id="path381"
   inkscape:connector-curvature="0" />
	<path
   d="m 329.07,493.34 c 0.31,0.33 0.54,0.74 0.67,1.23 0.13,0.49 0.2,1.16 0.2,2 v 6.59 c 0,0.67 0.14,1.14 0.42,1.39 0.28,0.26 0.76,0.38 1.46,0.38 v 0.52 c -1.51,-0.07 -2.5,-0.1 -2.96,-0.1 -0.46,0 -1.38,0.03 -2.76,0.1 v -0.52 c 0.61,0 1.03,-0.13 1.27,-0.38 0.24,-0.25 0.36,-0.72 0.36,-1.39 v -7.13 c 0,-0.92 -0.13,-1.62 -0.39,-2.11 -0.26,-0.49 -0.8,-0.73 -1.6,-0.73 -0.68,0 -1.28,0.2 -1.8,0.59 -0.53,0.4 -0.93,0.93 -1.22,1.62 -0.29,0.69 -0.43,1.44 -0.43,2.28 v 5.48 c 0,0.67 0.12,1.14 0.36,1.39 0.24,0.26 0.66,0.38 1.27,0.38 v 0.52 c -1.38,-0.07 -2.3,-0.1 -2.76,-0.1 -0.46,0 -1.45,0.03 -2.96,0.1 v -0.52 c 0.69,0 1.18,-0.13 1.46,-0.38 0.28,-0.25 0.42,-0.72 0.42,-1.39 v -7.73 c 0,-0.76 -0.14,-1.31 -0.42,-1.65 -0.28,-0.35 -0.76,-0.52 -1.46,-0.52 v -0.52 c 0.53,0.05 1.04,0.07 1.53,0.07 1.04,0 1.89,-0.11 2.57,-0.34 v 2.91 c 0.41,-1.05 0.98,-1.81 1.72,-2.28 0.73,-0.47 1.56,-0.7 2.48,-0.7 1.1,0 1.98,0.32 2.57,0.94 z"
   id="path383"
   inkscape:connector-curvature="0" />
	<path
   d="m 342.81,494.67 c -0.21,-0.2 -0.31,-0.49 -0.31,-0.86 0,-0.33 0.08,-0.71 0.25,-1.14 -0.43,0.18 -0.76,0.38 -1.01,0.6 -0.25,0.22 -0.47,0.5 -0.67,0.83 0.38,0.58 0.57,1.31 0.57,2.2 0,1.3 -0.4,2.28 -1.19,2.93 -0.79,0.65 -1.83,0.97 -3.13,0.97 h -0.02 c -0.54,0.31 -0.96,0.6 -1.23,0.86 -0.28,0.26 -0.42,0.56 -0.42,0.89 0,0.53 0.4,0.79 1.19,0.79 h 3.08 c 1.12,0 2.04,0.24 2.78,0.73 0.73,0.49 1.1,1.21 1.1,2.18 0,0.79 -0.26,1.52 -0.77,2.2 -0.51,0.68 -1.26,1.22 -2.25,1.63 -0.99,0.41 -2.18,0.62 -3.58,0.62 -1.43,0 -2.63,-0.22 -3.59,-0.65 -0.96,-0.44 -1.44,-1.08 -1.44,-1.94 0,-0.56 0.23,-1.04 0.68,-1.46 0.45,-0.41 1.08,-0.73 1.89,-0.96 l 0.15,0.39 c -0.36,0.12 -0.65,0.35 -0.86,0.69 -0.21,0.34 -0.32,0.73 -0.32,1.16 0,0.76 0.34,1.34 1.02,1.74 0.68,0.4 1.6,0.6 2.75,0.6 1.27,0 2.35,-0.24 3.26,-0.73 0.91,-0.49 1.36,-1.24 1.36,-2.26 0,-0.59 -0.21,-1.05 -0.63,-1.38 -0.42,-0.33 -1.16,-0.49 -2.23,-0.49 h -1.83 c -0.97,0 -1.75,-0.12 -2.33,-0.37 -0.58,-0.25 -0.88,-0.74 -0.88,-1.48 0,-0.51 0.19,-1 0.56,-1.46 0.37,-0.46 0.98,-0.91 1.84,-1.36 -1.09,-0.12 -1.95,-0.49 -2.6,-1.14 -0.65,-0.65 -0.97,-1.55 -0.97,-2.72 0,-1.3 0.39,-2.27 1.18,-2.92 0.79,-0.65 1.83,-0.97 3.13,-0.97 1.55,0 2.69,0.43 3.43,1.28 0.31,-0.44 0.71,-0.81 1.18,-1.1 0.48,-0.29 0.95,-0.43 1.43,-0.43 0.43,0 0.77,0.12 1.04,0.37 0.26,0.25 0.39,0.6 0.39,1.06 0,0.46 -0.13,0.81 -0.38,1.04 -0.25,0.23 -0.54,0.35 -0.85,0.35 -0.32,0.01 -0.57,-0.09 -0.77,-0.29 z m -4,4.31 c 0.34,-0.52 0.51,-1.41 0.51,-2.68 0,-1.27 -0.17,-2.16 -0.51,-2.68 -0.34,-0.52 -0.83,-0.78 -1.49,-0.78 -0.66,0 -1.16,0.26 -1.49,0.78 -0.34,0.52 -0.51,1.41 -0.51,2.68 0,1.27 0.17,2.16 0.51,2.68 0.34,0.52 0.83,0.78 1.49,0.78 0.66,0 1.15,-0.26 1.49,-0.78 z"
   id="path385"
   inkscape:connector-curvature="0" />
	<path
   d="m 362.74,493.34 c 0.31,0.33 0.54,0.74 0.67,1.23 0.13,0.49 0.2,1.16 0.2,2 v 6.59 c 0,0.67 0.14,1.14 0.42,1.39 0.28,0.26 0.76,0.38 1.46,0.38 v 0.52 c -1.51,-0.07 -2.5,-0.1 -2.96,-0.1 -0.46,0 -1.38,0.03 -2.76,0.1 v -0.52 c 0.61,0 1.03,-0.13 1.27,-0.38 0.24,-0.25 0.36,-0.72 0.36,-1.39 v -7.13 c 0,-0.92 -0.13,-1.62 -0.39,-2.11 -0.26,-0.49 -0.8,-0.73 -1.6,-0.73 -0.68,0 -1.28,0.2 -1.8,0.59 -0.53,0.4 -0.93,0.93 -1.22,1.62 -0.29,0.69 -0.43,1.44 -0.43,2.28 v 5.48 c 0,0.67 0.12,1.14 0.36,1.39 0.24,0.26 0.66,0.38 1.27,0.38 v 0.52 c -1.38,-0.07 -2.3,-0.1 -2.76,-0.1 -0.46,0 -1.45,0.03 -2.96,0.1 v -0.52 c 0.69,0 1.18,-0.13 1.46,-0.38 0.28,-0.25 0.42,-0.72 0.42,-1.39 v -7.73 c 0,-0.76 -0.14,-1.31 -0.42,-1.65 -0.28,-0.35 -0.76,-0.52 -1.46,-0.52 v -0.52 c 0.53,0.05 1.04,0.07 1.53,0.07 1.04,0 1.89,-0.11 2.57,-0.34 v 2.91 c 0.41,-1.05 0.98,-1.81 1.72,-2.28 0.73,-0.47 1.56,-0.7 2.48,-0.7 1.1,0 1.98,0.32 2.57,0.94 z"
   id="path387"
   inkscape:connector-curvature="0" />
	<path
   d="m 377.28,502.5 c -0.3,0.91 -0.85,1.68 -1.67,2.33 -0.81,0.65 -1.8,0.98 -2.95,0.98 -1.17,0 -2.18,-0.27 -3.04,-0.8 -0.86,-0.53 -1.51,-1.28 -1.96,-2.25 -0.45,-0.96 -0.68,-2.08 -0.68,-3.34 0,-1.43 0.23,-2.67 0.69,-3.73 0.46,-1.05 1.11,-1.86 1.95,-2.43 0.84,-0.57 1.82,-0.85 2.94,-0.85 1.48,0 2.62,0.45 3.42,1.34 0.8,0.9 1.2,2.26 1.2,4.09 h -7.73 c -0.05,0.46 -0.07,0.99 -0.07,1.58 0,1.09 0.18,2.03 0.53,2.84 0.35,0.81 0.82,1.43 1.41,1.86 0.58,0.44 1.2,0.65 1.84,0.65 0.79,0 1.49,-0.19 2.1,-0.57 0.61,-0.38 1.12,-1.01 1.53,-1.9 z m -6.82,-8.49 c -0.56,0.76 -0.91,1.88 -1.04,3.36 h 5.38 c 0.03,-1.28 -0.15,-2.35 -0.55,-3.21 -0.4,-0.86 -1,-1.28 -1.79,-1.28 -0.77,-0.01 -1.44,0.37 -2,1.13 z"
   id="path389"
   inkscape:connector-curvature="0" />
	<path
   d="m 397.17,492.75 v 0.49 c -0.35,0.05 -0.65,0.2 -0.91,0.46 -0.26,0.25 -0.49,0.68 -0.69,1.27 l -3.58,10.61 h -0.42 l -3.9,-9.92 -3.53,9.92 h -0.42 l -4.05,-10.93 c -0.23,-0.58 -0.46,-0.95 -0.7,-1.12 -0.24,-0.17 -0.48,-0.26 -0.73,-0.26 v -0.52 c 0.64,0.1 1.37,0.15 2.17,0.15 0.82,0 1.89,-0.05 3.21,-0.15 v 0.52 c -0.61,0 -1.05,0.05 -1.32,0.15 -0.27,0.1 -0.41,0.35 -0.41,0.77 0,0.3 0.08,0.68 0.25,1.16 l 2.47,7.11 3.55,-9.8 h 0.57 l 3.78,9.97 2.32,-7.06 c 0.15,-0.44 0.22,-0.81 0.22,-1.11 0,-0.4 -0.14,-0.68 -0.42,-0.86 -0.28,-0.18 -0.75,-0.3 -1.41,-0.35 v -0.49 c 0.87,0.05 1.56,0.07 2.07,0.07 0.73,-0.01 1.36,-0.03 1.88,-0.08 z"
   id="path391"
   inkscape:connector-curvature="0" />
	<path
   d="m 421.04,492.75 v 0.49 c -0.35,0.05 -0.65,0.2 -0.91,0.46 -0.26,0.25 -0.49,0.68 -0.69,1.27 l -3.58,10.61 h -0.42 l -3.9,-9.92 -3.53,9.92 h -0.42 l -4.05,-10.93 c -0.23,-0.58 -0.46,-0.95 -0.7,-1.12 -0.24,-0.17 -0.48,-0.26 -0.73,-0.26 v -0.52 c 0.64,0.1 1.37,0.15 2.17,0.15 0.82,0 1.89,-0.05 3.21,-0.15 v 0.52 c -0.61,0 -1.05,0.05 -1.32,0.15 -0.27,0.1 -0.41,0.35 -0.41,0.77 0,0.3 0.08,0.68 0.25,1.16 l 2.47,7.11 3.55,-9.8 h 0.57 l 3.78,9.97 2.32,-7.06 c 0.15,-0.44 0.22,-0.81 0.22,-1.11 0,-0.4 -0.14,-0.68 -0.42,-0.86 -0.28,-0.18 -0.75,-0.3 -1.41,-0.35 v -0.49 c 0.87,0.05 1.56,0.07 2.07,0.07 0.73,-0.01 1.35,-0.03 1.88,-0.08 z"
   id="path393"
   inkscape:connector-curvature="0" />
	<path
   d="m 431.72,494.07 c 1.03,1.11 1.54,2.79 1.54,5.05 0,2.25 -0.51,3.93 -1.54,5.04 -1.03,1.1 -2.38,1.65 -4.06,1.65 -1.68,0 -3.03,-0.55 -4.06,-1.65 -1.03,-1.1 -1.54,-2.78 -1.54,-5.04 0,-2.25 0.51,-3.94 1.54,-5.05 1.03,-1.11 2.38,-1.67 4.06,-1.67 1.68,0 3.03,0.56 4.06,1.67 z m -6.41,0.35 c -0.58,1.01 -0.86,2.58 -0.86,4.7 0,2.12 0.29,3.69 0.86,4.69 0.58,1 1.36,1.51 2.35,1.51 0.99,0 1.77,-0.5 2.34,-1.51 0.58,-1 0.86,-2.57 0.86,-4.69 0,-2.12 -0.29,-3.69 -0.86,-4.7 -0.58,-1.01 -1.36,-1.52 -2.34,-1.52 -0.98,0 -1.77,0.5 -2.35,1.52 z"
   id="path395"
   inkscape:connector-curvature="0" />
	<path
   d="m 444.43,492.97 c 0.42,0.38 0.63,0.84 0.63,1.38 0,0.43 -0.13,0.79 -0.38,1.1 -0.25,0.3 -0.6,0.46 -1.02,0.46 -0.36,0 -0.67,-0.12 -0.92,-0.35 -0.26,-0.23 -0.38,-0.54 -0.38,-0.94 0,-0.54 0.28,-0.99 0.84,-1.33 -0.12,-0.17 -0.29,-0.25 -0.52,-0.25 -0.64,0 -1.23,0.25 -1.75,0.75 -0.53,0.5 -0.94,1.12 -1.23,1.84 -0.3,0.72 -0.44,1.41 -0.44,2.05 v 5.23 c 0,0.76 0.22,1.28 0.65,1.58 0.44,0.3 1.09,0.44 1.96,0.44 v 0.52 l -0.59,-0.02 c -1.68,-0.05 -2.75,-0.07 -3.21,-0.07 -0.43,0 -1.4,0.03 -2.91,0.1 v -0.52 c 0.69,0 1.18,-0.13 1.46,-0.38 0.28,-0.25 0.42,-0.72 0.42,-1.39 v -7.73 c 0,-0.76 -0.14,-1.31 -0.42,-1.65 -0.28,-0.35 -0.76,-0.52 -1.46,-0.52 v -0.52 c 0.53,0.05 1.04,0.07 1.53,0.07 1.04,0 1.89,-0.11 2.57,-0.34 v 3.08 c 0.3,-0.82 0.77,-1.55 1.42,-2.2 0.65,-0.64 1.37,-0.96 2.16,-0.96 0.63,0 1.17,0.19 1.59,0.57 z"
   id="path397"
   inkscape:connector-curvature="0" />
	<path
   d="m 449.55,503.17 c 0,0.67 0.14,1.14 0.42,1.39 0.28,0.26 0.76,0.38 1.46,0.38 v 0.52 c -1.51,-0.07 -2.51,-0.1 -2.99,-0.1 -0.48,0 -1.47,0.03 -2.99,0.1 v -0.52 c 0.69,0 1.18,-0.13 1.46,-0.38 0.28,-0.25 0.42,-0.72 0.42,-1.39 v -14.09 c 0,-0.76 -0.14,-1.31 -0.42,-1.65 -0.28,-0.35 -0.76,-0.52 -1.46,-0.52 v -0.52 c 0.51,0.05 1.02,0.07 1.53,0.07 1.04,0 1.89,-0.12 2.57,-0.35 z"
   id="path399"
   inkscape:connector-curvature="0" />
	<path
   d="m 464.09,504.42 c 0.28,0.35 0.77,0.52 1.46,0.52 v 0.52 c -0.51,-0.05 -1.02,-0.07 -1.53,-0.07 -1.04,0 -1.89,0.12 -2.57,0.35 v -2.2 c -0.3,0.74 -0.74,1.3 -1.33,1.69 -0.59,0.39 -1.32,0.58 -2.17,0.58 -1.58,0 -2.82,-0.57 -3.71,-1.7 -0.9,-1.14 -1.34,-2.8 -1.32,-4.99 0,-1.43 0.25,-2.65 0.75,-3.67 0.5,-1.01 1.18,-1.77 2.02,-2.28 0.85,-0.51 1.78,-0.76 2.8,-0.76 0.62,0 1.2,0.12 1.71,0.36 0.52,0.24 0.93,0.61 1.25,1.1 v -4.79 c 0,-0.76 -0.14,-1.31 -0.42,-1.65 -0.28,-0.34 -0.76,-0.52 -1.46,-0.52 v -0.52 c 0.53,0.05 1.04,0.07 1.53,0.07 1.04,0 1.89,-0.12 2.57,-0.35 v 16.66 c 0,0.76 0.14,1.31 0.42,1.65 z m -3.7,-0.09 c 0.51,-0.49 0.86,-1.19 1.06,-2.1 v -7.36 c -0.44,-1.27 -1.37,-1.9 -2.76,-1.9 -1.02,0 -1.84,0.52 -2.47,1.57 -0.62,1.04 -0.93,2.57 -0.91,4.58 -0.02,1.97 0.26,3.46 0.84,4.46 0.58,1 1.42,1.49 2.52,1.49 0.63,0 1.21,-0.25 1.72,-0.74 z"
   id="path401"
   inkscape:connector-curvature="0" />
	<path
   d="m 472.78,492.67 c 0.46,0.18 0.83,0.39 1.11,0.64 0.18,0.13 0.33,0.2 0.44,0.2 0.3,0 0.48,-0.36 0.54,-1.09 h 0.57 c -0.07,0.81 -0.1,2.21 -0.1,4.2 h -0.57 c -0.18,-1.09 -0.53,-1.98 -1.05,-2.69 -0.52,-0.71 -1.29,-1.06 -2.31,-1.06 -0.59,0 -1.08,0.17 -1.46,0.51 -0.38,0.34 -0.57,0.8 -0.57,1.39 0,0.58 0.2,1.06 0.59,1.44 0.39,0.38 1.03,0.85 1.9,1.39 0.15,0.08 0.37,0.22 0.67,0.42 0.76,0.49 1.37,0.93 1.83,1.31 0.46,0.38 0.83,0.82 1.12,1.31 0.29,0.49 0.43,1.06 0.43,1.7 0,1.09 -0.41,1.93 -1.22,2.54 -0.81,0.61 -1.81,0.91 -3,0.91 -0.74,0 -1.39,-0.12 -1.95,-0.35 -0.36,-0.18 -0.7,-0.4 -1.01,-0.67 -0.07,-0.07 -0.14,-0.1 -0.22,-0.1 -0.12,0 -0.22,0.08 -0.31,0.25 -0.09,0.17 -0.16,0.4 -0.21,0.69 h -0.57 c 0.07,-0.94 0.1,-2.58 0.1,-4.94 h 0.57 c 0.18,1.55 0.51,2.7 0.99,3.47 0.48,0.77 1.29,1.15 2.44,1.15 0.58,0 1.09,-0.19 1.53,-0.57 0.44,-0.38 0.67,-0.97 0.67,-1.78 0,-0.64 -0.22,-1.18 -0.65,-1.63 -0.44,-0.44 -1.15,-0.98 -2.13,-1.6 -0.81,-0.51 -1.43,-0.93 -1.86,-1.26 -0.44,-0.33 -0.8,-0.73 -1.1,-1.21 -0.3,-0.48 -0.44,-1.04 -0.44,-1.68 0,-1.04 0.34,-1.83 1.04,-2.37 0.7,-0.54 1.56,-0.81 2.62,-0.81 0.58,0.02 1.11,0.11 1.57,0.29 z"
   id="path403"
   inkscape:connector-curvature="0" />
	<path
   d="m 132.09,520.77 h 3.65 v 0.49 h -3.65 v 9.55 c 0,0.74 0.14,1.28 0.41,1.6 0.27,0.33 0.66,0.49 1.17,0.49 0.51,0 0.95,-0.21 1.31,-0.62 0.36,-0.41 0.67,-1.09 0.91,-2.02 l 0.49,0.12 c -0.41,2.27 -1.48,3.41 -3.21,3.41 -0.56,0 -1.02,-0.07 -1.38,-0.2 -0.36,-0.13 -0.68,-0.34 -0.96,-0.62 -0.36,-0.36 -0.61,-0.81 -0.75,-1.33 -0.14,-0.53 -0.21,-1.23 -0.21,-2.12 v -8.27 h -2.37 v -0.49 h 2.37 V 517 c 0.92,-0.03 1.66,-0.15 2.22,-0.35 z"
   id="path405"
   inkscape:connector-curvature="0" />
	<path
   d="m 140.73,523.37 c 0.41,-1.04 0.98,-1.79 1.72,-2.26 0.73,-0.47 1.56,-0.7 2.48,-0.7 1.15,0 2.02,0.31 2.62,0.94 0.31,0.33 0.53,0.74 0.67,1.23 0.13,0.49 0.2,1.16 0.2,2 v 6.59 c 0,0.67 0.14,1.14 0.42,1.39 0.28,0.26 0.77,0.38 1.46,0.38 v 0.52 c -1.51,-0.07 -2.5,-0.1 -2.96,-0.1 -0.46,0 -1.38,0.03 -2.76,0.1 v -0.52 c 0.61,0 1.03,-0.13 1.27,-0.38 0.24,-0.25 0.36,-0.72 0.36,-1.39 v -7.13 c 0,-0.92 -0.13,-1.62 -0.4,-2.11 -0.27,-0.49 -0.8,-0.73 -1.6,-0.73 -0.67,0 -1.27,0.19 -1.79,0.57 -0.52,0.38 -0.93,0.91 -1.22,1.59 -0.3,0.68 -0.44,1.45 -0.44,2.31 v 5.5 c 0,0.67 0.12,1.14 0.36,1.39 0.24,0.26 0.66,0.38 1.27,0.38 v 0.52 c -1.38,-0.07 -2.3,-0.1 -2.76,-0.1 -0.46,0 -1.45,0.03 -2.96,0.1 v -0.52 c 0.69,0 1.18,-0.13 1.46,-0.38 0.28,-0.25 0.42,-0.72 0.42,-1.39 V 517.1 c 0,-0.76 -0.14,-1.31 -0.42,-1.65 -0.28,-0.35 -0.77,-0.52 -1.46,-0.52 v -0.52 c 0.53,0.05 1.04,0.07 1.53,0.07 1.04,0 1.89,-0.11 2.57,-0.34 v 9.23 z"
   id="path407"
   inkscape:connector-curvature="0" />
	<path
   d="m 160.66,520.97 c 0.42,0.38 0.63,0.84 0.63,1.38 0,0.43 -0.13,0.79 -0.38,1.1 -0.26,0.3 -0.6,0.46 -1.02,0.46 -0.36,0 -0.67,-0.12 -0.93,-0.35 -0.26,-0.23 -0.38,-0.54 -0.38,-0.94 0,-0.54 0.28,-0.99 0.84,-1.33 -0.12,-0.17 -0.29,-0.25 -0.52,-0.25 -0.64,0 -1.23,0.25 -1.75,0.75 -0.52,0.5 -0.94,1.12 -1.23,1.84 -0.3,0.72 -0.44,1.41 -0.44,2.05 v 5.23 c 0,0.76 0.22,1.28 0.65,1.58 0.44,0.3 1.09,0.44 1.96,0.44 v 0.52 l -0.59,-0.02 c -1.68,-0.05 -2.75,-0.07 -3.21,-0.07 -0.43,0 -1.4,0.03 -2.91,0.1 v -0.52 c 0.69,0 1.18,-0.13 1.46,-0.38 0.28,-0.25 0.42,-0.72 0.42,-1.39 v -7.73 c 0,-0.76 -0.14,-1.31 -0.42,-1.65 -0.28,-0.35 -0.77,-0.52 -1.46,-0.52 v -0.52 c 0.53,0.05 1.04,0.07 1.53,0.07 1.04,0 1.89,-0.11 2.57,-0.34 v 3.08 c 0.3,-0.82 0.77,-1.55 1.42,-2.2 0.65,-0.64 1.37,-0.96 2.16,-0.96 0.65,0 1.19,0.19 1.6,0.57 z"
   id="path409"
   inkscape:connector-curvature="0" />
	<path
   d="m 171.97,522.07 c 1.03,1.11 1.54,2.79 1.54,5.05 0,2.25 -0.51,3.93 -1.54,5.04 -1.03,1.1 -2.38,1.65 -4.06,1.65 -1.68,0 -3.03,-0.55 -4.06,-1.65 -1.03,-1.1 -1.54,-2.78 -1.54,-5.04 0,-2.25 0.51,-3.94 1.54,-5.05 1.03,-1.11 2.38,-1.67 4.06,-1.67 1.68,0 3.03,0.56 4.06,1.67 z m -6.41,0.35 c -0.58,1.01 -0.86,2.58 -0.86,4.7 0,2.12 0.29,3.69 0.86,4.69 0.58,1 1.36,1.51 2.34,1.51 0.99,0 1.77,-0.5 2.35,-1.51 0.58,-1 0.86,-2.57 0.86,-4.69 0,-2.12 -0.29,-3.69 -0.86,-4.7 -0.58,-1.01 -1.36,-1.52 -2.35,-1.52 -0.98,0 -1.76,0.5 -2.34,1.52 z"
   id="path411"
   inkscape:connector-curvature="0" />
	<path
   d="m 186.6,530.79 c 0,0.76 0.14,1.31 0.42,1.65 0.28,0.34 0.77,0.52 1.46,0.52 v 0.52 c -0.51,-0.05 -1.02,-0.07 -1.53,-0.07 -1.04,0 -1.89,0.12 -2.57,0.35 v -2.91 c -0.4,1.02 -0.95,1.77 -1.68,2.25 -0.72,0.48 -1.51,0.72 -2.37,0.72 -1.12,0 -1.98,-0.31 -2.57,-0.94 -0.3,-0.33 -0.51,-0.75 -0.63,-1.26 -0.12,-0.51 -0.19,-1.17 -0.19,-1.97 v -6.2 c 0,-0.76 -0.14,-1.31 -0.42,-1.65 -0.28,-0.34 -0.77,-0.52 -1.46,-0.52 v -0.52 c 0.51,0.05 1.02,0.07 1.53,0.07 1.04,0 1.89,-0.11 2.57,-0.34 v 9.7 c 0,0.63 0.04,1.13 0.11,1.52 0.07,0.39 0.25,0.7 0.52,0.95 0.27,0.25 0.69,0.37 1.25,0.37 0.62,0 1.19,-0.2 1.7,-0.59 0.51,-0.39 0.91,-0.93 1.2,-1.62 0.29,-0.68 0.43,-1.44 0.43,-2.26 v -5.11 c 0,-0.76 -0.14,-1.31 -0.42,-1.65 -0.28,-0.35 -0.77,-0.52 -1.46,-0.52 v -0.52 c 0.51,0.05 1.02,0.07 1.53,0.07 1.04,0 1.89,-0.11 2.57,-0.34 v 10.3 z"
   id="path413"
   inkscape:connector-curvature="0" />
	<path
   d="m 199.89,522.67 c -0.21,-0.2 -0.31,-0.49 -0.31,-0.86 0,-0.33 0.08,-0.71 0.25,-1.14 -0.43,0.18 -0.77,0.38 -1.01,0.6 -0.25,0.22 -0.47,0.5 -0.67,0.83 0.38,0.58 0.57,1.31 0.57,2.2 0,1.3 -0.4,2.28 -1.18,2.93 -0.79,0.65 -1.84,0.97 -3.13,0.97 h -0.02 c -0.54,0.31 -0.95,0.6 -1.23,0.86 -0.28,0.26 -0.42,0.56 -0.42,0.89 0,0.53 0.4,0.79 1.18,0.79 h 3.09 c 1.12,0 2.04,0.24 2.78,0.73 0.73,0.49 1.1,1.21 1.1,2.18 0,0.79 -0.26,1.52 -0.77,2.2 -0.51,0.67 -1.26,1.22 -2.25,1.63 -0.99,0.41 -2.18,0.62 -3.58,0.62 -1.43,0 -2.63,-0.22 -3.59,-0.65 -0.96,-0.44 -1.44,-1.08 -1.44,-1.94 0,-0.56 0.23,-1.04 0.68,-1.46 0.45,-0.41 1.08,-0.73 1.89,-0.96 l 0.15,0.39 c -0.36,0.12 -0.65,0.35 -0.86,0.69 -0.21,0.34 -0.32,0.73 -0.32,1.16 0,0.76 0.34,1.34 1.02,1.74 0.68,0.4 1.6,0.6 2.75,0.6 1.27,0 2.35,-0.24 3.26,-0.73 0.9,-0.49 1.36,-1.24 1.36,-2.26 0,-0.59 -0.21,-1.05 -0.63,-1.38 -0.42,-0.33 -1.16,-0.49 -2.23,-0.49 h -1.83 c -0.97,0 -1.75,-0.12 -2.33,-0.37 -0.58,-0.25 -0.88,-0.74 -0.88,-1.48 0,-0.51 0.19,-1 0.56,-1.46 0.37,-0.46 0.98,-0.91 1.84,-1.36 -1.09,-0.12 -1.95,-0.49 -2.6,-1.14 -0.65,-0.64 -0.98,-1.55 -0.98,-2.72 0,-1.3 0.4,-2.27 1.18,-2.92 0.79,-0.65 1.83,-0.97 3.14,-0.97 1.55,0 2.69,0.43 3.43,1.28 0.31,-0.44 0.71,-0.81 1.19,-1.1 0.48,-0.29 0.95,-0.43 1.43,-0.43 0.43,0 0.77,0.12 1.04,0.37 0.27,0.25 0.4,0.6 0.4,1.06 0,0.46 -0.13,0.81 -0.38,1.04 -0.25,0.23 -0.54,0.35 -0.85,0.35 -0.35,0.01 -0.6,-0.09 -0.8,-0.29 z m -4,4.31 c 0.34,-0.52 0.51,-1.41 0.51,-2.68 0,-1.27 -0.17,-2.16 -0.51,-2.68 -0.34,-0.52 -0.84,-0.78 -1.49,-0.78 -0.66,0 -1.16,0.26 -1.49,0.78 -0.34,0.52 -0.51,1.41 -0.51,2.68 0,1.27 0.17,2.16 0.51,2.68 0.34,0.52 0.83,0.78 1.49,0.78 0.65,0 1.15,-0.26 1.49,-0.78 z"
   id="path415"
   inkscape:connector-curvature="0" />
	<path
   d="m 206.64,523.37 c 0.41,-1.04 0.98,-1.79 1.72,-2.26 0.73,-0.47 1.56,-0.7 2.48,-0.7 1.15,0 2.02,0.31 2.62,0.94 0.31,0.33 0.53,0.74 0.67,1.23 0.13,0.49 0.2,1.16 0.2,2 v 6.59 c 0,0.67 0.14,1.14 0.42,1.39 0.28,0.26 0.77,0.38 1.46,0.38 v 0.52 c -1.51,-0.07 -2.5,-0.1 -2.96,-0.1 -0.46,0 -1.38,0.03 -2.76,0.1 v -0.52 c 0.61,0 1.03,-0.13 1.27,-0.38 0.24,-0.25 0.36,-0.72 0.36,-1.39 v -7.13 c 0,-0.92 -0.13,-1.62 -0.4,-2.11 -0.27,-0.49 -0.8,-0.73 -1.6,-0.73 -0.67,0 -1.27,0.19 -1.79,0.57 -0.52,0.38 -0.93,0.91 -1.22,1.59 -0.3,0.68 -0.44,1.45 -0.44,2.31 v 5.5 c 0,0.67 0.12,1.14 0.36,1.39 0.24,0.26 0.66,0.38 1.27,0.38 v 0.52 c -1.38,-0.07 -2.3,-0.1 -2.76,-0.1 -0.46,0 -1.45,0.03 -2.96,0.1 v -0.52 c 0.69,0 1.18,-0.13 1.46,-0.38 0.28,-0.25 0.42,-0.72 0.42,-1.39 V 517.1 c 0,-0.76 -0.14,-1.31 -0.42,-1.65 -0.28,-0.35 -0.77,-0.52 -1.46,-0.52 v -0.52 c 0.53,0.05 1.04,0.07 1.53,0.07 1.04,0 1.89,-0.11 2.57,-0.34 v 9.23 z"
   id="path417"
   inkscape:connector-curvature="0" />
	<path
   d="m 234.48,532.57 c 0.25,0.2 0.54,0.32 0.89,0.37 v 0.52 c -0.99,-0.07 -1.65,-0.1 -2,-0.1 -0.44,0 -1.36,0.03 -2.74,0.1 v -0.52 c 0.23,0 0.42,-0.04 0.56,-0.14 0.14,-0.09 0.21,-0.2 0.21,-0.33 0,-0.13 -0.05,-0.25 -0.15,-0.37 l -2.84,-4.15 c -0.28,-0.41 -0.55,-0.69 -0.8,-0.83 -0.26,-0.14 -0.6,-0.23 -1.05,-0.26 v 4.29 c 0,0.67 0.12,1.14 0.36,1.39 0.24,0.26 0.66,0.38 1.27,0.38 v 0.52 c -1.38,-0.07 -2.3,-0.1 -2.74,-0.1 -0.48,0 -1.47,0.03 -2.99,0.1 v -0.52 c 0.69,0 1.18,-0.13 1.46,-0.38 0.28,-0.25 0.42,-0.72 0.42,-1.39 v -14.09 c 0,-0.76 -0.14,-1.31 -0.42,-1.65 -0.28,-0.35 -0.77,-0.52 -1.46,-0.52 v -0.52 c 0.53,0.05 1.04,0.07 1.53,0.07 1.04,0 1.89,-0.12 2.57,-0.35 v 12.24 c 0.48,-0.07 0.88,-0.18 1.2,-0.33 0.32,-0.16 0.63,-0.38 0.93,-0.68 l 1.83,-1.9 c 0.53,-0.54 0.79,-1 0.79,-1.36 0,-0.28 -0.17,-0.49 -0.51,-0.63 -0.34,-0.14 -0.78,-0.21 -1.32,-0.21 v -0.49 c 1.15,0.07 2.08,0.1 2.79,0.1 0.77,0 1.49,-0.03 2.15,-0.1 v 0.49 c -0.81,0.07 -1.55,0.45 -2.22,1.16 l -3.01,3.16 4.47,6.1 c 0.29,0.43 0.57,0.74 0.82,0.93 z"
   id="path419"
   inkscape:connector-curvature="0" />
	<path
   d="m 247.17,521.34 c 0.31,0.33 0.54,0.74 0.67,1.23 0.13,0.49 0.2,1.16 0.2,2 v 6.59 c 0,0.67 0.14,1.14 0.42,1.39 0.28,0.26 0.76,0.38 1.46,0.38 v 0.52 c -1.51,-0.07 -2.5,-0.1 -2.96,-0.1 -0.46,0 -1.38,0.03 -2.76,0.1 v -0.52 c 0.61,0 1.03,-0.13 1.27,-0.38 0.24,-0.25 0.36,-0.72 0.36,-1.39 v -7.13 c 0,-0.92 -0.13,-1.62 -0.39,-2.11 -0.26,-0.49 -0.8,-0.73 -1.6,-0.73 -0.68,0 -1.28,0.2 -1.8,0.59 -0.53,0.4 -0.93,0.93 -1.22,1.62 -0.29,0.69 -0.43,1.44 -0.43,2.28 v 5.48 c 0,0.67 0.12,1.14 0.36,1.39 0.24,0.26 0.66,0.38 1.27,0.38 v 0.52 c -1.38,-0.07 -2.3,-0.1 -2.76,-0.1 -0.46,0 -1.45,0.03 -2.96,0.1 v -0.52 c 0.69,0 1.18,-0.13 1.46,-0.38 0.28,-0.25 0.42,-0.72 0.42,-1.39 v -7.73 c 0,-0.76 -0.14,-1.31 -0.42,-1.65 -0.28,-0.35 -0.77,-0.52 -1.46,-0.52 v -0.52 c 0.53,0.05 1.04,0.07 1.53,0.07 1.04,0 1.89,-0.11 2.57,-0.34 v 2.91 c 0.41,-1.05 0.98,-1.81 1.72,-2.28 0.73,-0.47 1.56,-0.7 2.48,-0.7 1.1,0 1.98,0.32 2.57,0.94 z"
   id="path421"
   inkscape:connector-curvature="0" />
	<path
   d="m 261.1,522.07 c 1.03,1.11 1.54,2.79 1.54,5.05 0,2.25 -0.51,3.93 -1.54,5.04 -1.03,1.1 -2.38,1.65 -4.06,1.65 -1.68,0 -3.03,-0.55 -4.06,-1.65 -1.03,-1.1 -1.54,-2.78 -1.54,-5.04 0,-2.25 0.51,-3.94 1.54,-5.05 1.03,-1.11 2.38,-1.67 4.06,-1.67 1.68,0 3.03,0.56 4.06,1.67 z m -6.4,0.35 c -0.58,1.01 -0.86,2.58 -0.86,4.7 0,2.12 0.29,3.69 0.86,4.69 0.58,1 1.36,1.51 2.35,1.51 0.99,0 1.77,-0.5 2.34,-1.51 0.58,-1 0.86,-2.57 0.86,-4.69 0,-2.12 -0.29,-3.69 -0.86,-4.7 -0.58,-1.01 -1.36,-1.52 -2.34,-1.52 -0.98,0 -1.78,0.5 -2.35,1.52 z"
   id="path423"
   inkscape:connector-curvature="0" />
	<path
   d="m 282.57,520.75 v 0.49 c -0.35,0.05 -0.65,0.2 -0.91,0.46 -0.26,0.25 -0.49,0.68 -0.69,1.27 l -3.58,10.61 h -0.42 l -3.9,-9.92 -3.53,9.92 h -0.42 l -4.05,-10.93 c -0.23,-0.58 -0.46,-0.95 -0.7,-1.12 -0.24,-0.17 -0.48,-0.26 -0.73,-0.26 v -0.52 c 0.64,0.1 1.37,0.15 2.17,0.15 0.82,0 1.89,-0.05 3.21,-0.15 v 0.52 c -0.61,0 -1.05,0.05 -1.32,0.15 -0.27,0.1 -0.41,0.35 -0.41,0.77 0,0.3 0.08,0.68 0.25,1.16 l 2.47,7.11 3.55,-9.8 h 0.57 l 3.78,9.97 2.32,-7.06 c 0.15,-0.44 0.22,-0.81 0.22,-1.11 0,-0.4 -0.14,-0.68 -0.42,-0.86 -0.28,-0.18 -0.75,-0.3 -1.41,-0.35 v -0.49 c 0.87,0.05 1.56,0.07 2.07,0.07 0.72,-0.01 1.35,-0.03 1.88,-0.08 z"
   id="path425"
   inkscape:connector-curvature="0" />
	<path
   d="m 286.66,531.17 c 0,0.67 0.14,1.14 0.42,1.39 0.28,0.26 0.76,0.38 1.46,0.38 v 0.52 c -1.51,-0.07 -2.51,-0.1 -2.99,-0.1 -0.48,0 -1.47,0.03 -2.99,0.1 v -0.52 c 0.69,0 1.18,-0.13 1.46,-0.38 0.28,-0.25 0.42,-0.72 0.42,-1.39 v -14.09 c 0,-0.76 -0.14,-1.31 -0.42,-1.65 -0.28,-0.35 -0.76,-0.52 -1.46,-0.52 v -0.52 c 0.51,0.05 1.02,0.07 1.53,0.07 1.04,0 1.89,-0.12 2.57,-0.35 z"
   id="path427"
   inkscape:connector-curvature="0" />
	<path
   d="m 300.26,530.5 c -0.3,0.91 -0.85,1.68 -1.67,2.33 -0.81,0.65 -1.8,0.98 -2.95,0.98 -1.17,0 -2.18,-0.27 -3.04,-0.8 -0.86,-0.53 -1.51,-1.28 -1.96,-2.25 -0.45,-0.96 -0.68,-2.08 -0.68,-3.34 0,-1.43 0.23,-2.67 0.69,-3.73 0.46,-1.05 1.11,-1.86 1.95,-2.43 0.84,-0.57 1.82,-0.85 2.94,-0.85 1.48,0 2.62,0.45 3.42,1.34 0.8,0.9 1.2,2.26 1.2,4.09 h -7.73 c -0.05,0.46 -0.07,0.99 -0.07,1.58 0,1.09 0.18,2.03 0.53,2.84 0.35,0.81 0.82,1.43 1.41,1.86 0.58,0.44 1.2,0.65 1.84,0.65 0.79,0 1.49,-0.19 2.1,-0.57 0.61,-0.38 1.12,-1.01 1.53,-1.9 z m -6.81,-8.49 c -0.56,0.76 -0.91,1.88 -1.04,3.36 h 5.38 c 0.03,-1.28 -0.15,-2.35 -0.55,-3.21 -0.4,-0.86 -1,-1.28 -1.79,-1.28 -0.77,-0.01 -1.44,0.37 -2,1.13 z"
   id="path429"
   inkscape:connector-curvature="0" />
	<path
   d="m 313.69,532.42 c 0.28,0.35 0.77,0.52 1.46,0.52 v 0.52 c -0.51,-0.05 -1.02,-0.07 -1.53,-0.07 -1.04,0 -1.89,0.12 -2.57,0.35 v -2.2 c -0.3,0.74 -0.74,1.3 -1.33,1.69 -0.59,0.39 -1.32,0.58 -2.17,0.58 -1.58,0 -2.82,-0.57 -3.71,-1.7 -0.9,-1.14 -1.34,-2.8 -1.32,-4.99 0,-1.43 0.25,-2.65 0.75,-3.67 0.5,-1.01 1.18,-1.77 2.02,-2.28 0.85,-0.51 1.78,-0.76 2.8,-0.76 0.62,0 1.2,0.12 1.71,0.36 0.52,0.24 0.93,0.61 1.25,1.1 v -4.79 c 0,-0.76 -0.14,-1.31 -0.42,-1.65 -0.28,-0.34 -0.76,-0.52 -1.46,-0.52 v -0.52 c 0.53,0.05 1.04,0.07 1.53,0.07 1.04,0 1.89,-0.12 2.57,-0.35 v 16.66 c 0,0.76 0.14,1.31 0.42,1.65 z m -3.7,-0.09 c 0.51,-0.49 0.86,-1.19 1.06,-2.1 v -7.36 c -0.44,-1.27 -1.37,-1.9 -2.76,-1.9 -1.02,0 -1.84,0.52 -2.47,1.57 -0.62,1.04 -0.93,2.57 -0.91,4.58 -0.02,1.97 0.26,3.46 0.84,4.46 0.58,1 1.42,1.49 2.52,1.49 0.63,0 1.21,-0.25 1.72,-0.74 z"
   id="path431"
   inkscape:connector-curvature="0" />
	<path
   d="m 326.54,522.67 c -0.21,-0.2 -0.31,-0.49 -0.31,-0.86 0,-0.33 0.08,-0.71 0.25,-1.14 -0.43,0.18 -0.76,0.38 -1.01,0.6 -0.25,0.22 -0.47,0.5 -0.67,0.83 0.38,0.58 0.57,1.31 0.57,2.2 0,1.3 -0.4,2.28 -1.19,2.93 -0.79,0.65 -1.83,0.97 -3.13,0.97 h -0.02 c -0.54,0.31 -0.96,0.6 -1.23,0.86 -0.28,0.26 -0.42,0.56 -0.42,0.89 0,0.53 0.4,0.79 1.19,0.79 h 3.08 c 1.12,0 2.04,0.24 2.78,0.73 0.73,0.49 1.1,1.21 1.1,2.18 0,0.79 -0.26,1.52 -0.77,2.2 -0.51,0.68 -1.26,1.22 -2.25,1.63 -0.99,0.41 -2.18,0.62 -3.58,0.62 -1.43,0 -2.63,-0.22 -3.59,-0.65 -0.96,-0.44 -1.44,-1.08 -1.44,-1.94 0,-0.56 0.23,-1.04 0.68,-1.46 0.45,-0.41 1.08,-0.73 1.89,-0.96 l 0.15,0.39 c -0.36,0.12 -0.65,0.35 -0.86,0.69 -0.21,0.34 -0.32,0.73 -0.32,1.16 0,0.76 0.34,1.34 1.02,1.74 0.68,0.4 1.6,0.6 2.75,0.6 1.27,0 2.35,-0.24 3.26,-0.73 0.91,-0.49 1.36,-1.24 1.36,-2.26 0,-0.59 -0.21,-1.05 -0.63,-1.38 -0.42,-0.33 -1.16,-0.49 -2.23,-0.49 h -1.83 c -0.97,0 -1.75,-0.12 -2.33,-0.37 -0.58,-0.25 -0.88,-0.74 -0.88,-1.48 0,-0.51 0.19,-1 0.56,-1.46 0.37,-0.46 0.98,-0.91 1.84,-1.36 -1.09,-0.12 -1.95,-0.49 -2.6,-1.14 -0.65,-0.65 -0.97,-1.55 -0.97,-2.72 0,-1.3 0.39,-2.27 1.18,-2.92 0.79,-0.65 1.83,-0.97 3.13,-0.97 1.55,0 2.69,0.43 3.43,1.28 0.31,-0.44 0.71,-0.81 1.18,-1.1 0.48,-0.29 0.95,-0.43 1.43,-0.43 0.43,0 0.77,0.12 1.04,0.37 0.26,0.25 0.39,0.6 0.39,1.06 0,0.46 -0.13,0.81 -0.38,1.04 -0.25,0.23 -0.54,0.35 -0.85,0.35 -0.31,0.01 -0.56,-0.09 -0.77,-0.29 z m -4,4.31 c 0.34,-0.52 0.51,-1.41 0.51,-2.68 0,-1.27 -0.17,-2.16 -0.51,-2.68 -0.34,-0.52 -0.83,-0.78 -1.49,-0.78 -0.66,0 -1.16,0.26 -1.49,0.78 -0.34,0.52 -0.51,1.41 -0.51,2.68 0,1.27 0.17,2.16 0.51,2.68 0.34,0.52 0.83,0.78 1.49,0.78 0.66,0 1.15,-0.26 1.49,-0.78 z"
   id="path433"
   inkscape:connector-curvature="0" />
	<path
   d="m 339.88,530.5 c -0.3,0.91 -0.85,1.68 -1.67,2.33 -0.81,0.65 -1.8,0.98 -2.95,0.98 -1.17,0 -2.18,-0.27 -3.04,-0.8 -0.86,-0.53 -1.51,-1.28 -1.96,-2.25 -0.45,-0.96 -0.68,-2.08 -0.68,-3.34 0,-1.43 0.23,-2.67 0.69,-3.73 0.46,-1.05 1.11,-1.86 1.95,-2.43 0.84,-0.57 1.82,-0.85 2.94,-0.85 1.48,0 2.62,0.45 3.42,1.34 0.8,0.9 1.2,2.26 1.2,4.09 h -7.73 c -0.05,0.46 -0.07,0.99 -0.07,1.58 0,1.09 0.18,2.03 0.53,2.84 0.35,0.81 0.82,1.43 1.41,1.86 0.58,0.44 1.2,0.65 1.84,0.65 0.79,0 1.49,-0.19 2.1,-0.57 0.61,-0.38 1.12,-1.01 1.53,-1.9 z m -6.81,-8.49 c -0.56,0.76 -0.91,1.88 -1.04,3.36 h 5.38 c 0.03,-1.28 -0.15,-2.35 -0.55,-3.21 -0.4,-0.86 -1,-1.28 -1.79,-1.28 -0.78,-0.01 -1.44,0.37 -2,1.13 z"
   id="path435"
   inkscape:connector-curvature="0" />
</g>
</svg>