<?xml version="1.0" encoding="UTF-8"?>
<!DOCTYPE svg PUBLIC "-//W3C//DTD SVG 1.1//EN" "http://www.w3.org/Graphics/SVG/1.1/DTD/svg11.dtd">
<svg width="889pt" height="214pt" viewBox="0 0 889 214" version="1.1" xmlns="http://www.w3.org/2000/svg">
<path fill="#ffffff" d=" M 0.00 0.00 L 889.00 0.00 L 889.00 214.00 L 409.00 214.00 C 409.00 156.95 408.99 99.89 409.00 42.84 C 428.36 42.62 447.72 42.76 467.08 42.77 C 467.49 30.20 467.22 17.61 467.20 5.03 C 411.54 5.03 355.87 4.87 300.20 5.11 C 300.32 17.63 300.25 30.16 300.25 42.69 C 319.76 42.94 339.28 42.44 358.79 42.93 C 358.73 99.95 358.63 156.98 358.83 214.00 L 50.78 214.00 C 50.73 144.62 50.66 75.24 50.81 5.86 C 44.29 4.68 37.61 5.48 31.02 5.28 C 20.68 5.02 10.34 4.84 0.00 5.10 L 0.00 0.00 Z"/>
<path fill="#458ca5" d=" M 156.50 2.64 C 179.59 -1.59 203.42 1.20 225.98 7.03 C 232.82 8.78 239.43 11.27 245.95 13.96 C 246.05 29.03 245.99 44.10 245.98 59.17 C 244.12 59.20 241.98 59.78 240.40 58.48 C 222.13 44.83 199.06 36.67 176.11 38.86 C 167.54 39.70 158.38 42.88 153.14 50.09 C 147.75 57.20 149.91 68.88 157.85 73.19 C 164.62 77.32 172.52 78.79 180.10 80.74 C 195.10 84.31 210.36 87.80 224.19 94.84 C 235.92 100.86 246.53 110.37 250.89 123.12 C 255.34 136.22 255.33 150.70 252.01 164.06 C 246.71 183.64 230.53 198.65 212.04 205.97 C 202.44 209.67 192.33 212.04 182.08 212.90 C 174.40 213.81 166.68 212.32 159.01 213.30 C 137.42 212.89 116.22 207.04 96.47 198.52 C 96.30 198.16 95.97 197.45 95.80 197.09 C 95.72 181.65 95.61 166.20 95.86 150.76 C 97.98 150.75 100.38 150.30 102.02 152.01 C 117.40 164.55 136.36 172.68 156.05 175.13 C 165.03 176.31 174.19 175.72 182.98 173.59 C 189.60 171.70 196.22 167.59 198.89 160.96 C 200.96 155.07 200.16 147.94 195.67 143.34 C 188.66 136.07 178.32 134.43 168.99 131.95 C 149.96 127.67 129.94 123.26 114.47 110.63 C 102.99 101.29 96.76 86.68 96.01 72.09 C 94.50 57.44 98.00 42.00 107.27 30.36 C 119.37 15.24 137.74 6.24 156.50 2.64 Z"/>
<path fill="#458ca5" d=" M 0.00 5.10 C 10.34 4.84 20.68 5.02 31.02 5.28 C 37.61 5.48 44.29 4.68 50.81 5.86 C 50.66 75.24 50.73 144.62 50.78 214.00 L 0.00 214.00 L 0.00 5.10 Z"/>
<path fill="#458ca5" d=" M 300.20 5.11 C 355.87 4.87 411.54 5.03 467.20 5.03 C 467.22 17.61 467.49 30.20 467.08 42.77 C 447.72 42.76 428.36 42.62 409.00 42.84 C 408.99 99.89 409.00 156.95 409.00 214.00 L 358.83 214.00 C 358.63 156.98 358.73 99.95 358.79 42.93 C 339.28 42.44 319.76 42.94 300.25 42.69 C 300.25 30.16 300.32 17.63 300.20 5.11 Z"/>
<path fill="#458ca5" d=" M 508.22 10.87 C 507.81 7.72 510.70 4.66 513.90 5.09 C 558.61 5.05 603.32 5.07 648.03 5.08 C 651.41 4.47 654.48 7.64 653.96 10.99 C 653.91 22.66 654.05 34.34 653.90 46.01 C 654.07 49.06 650.78 51.11 648.00 50.86 C 620.92 50.95 593.85 50.80 566.77 50.93 C 566.67 60.61 566.70 70.29 566.76 79.97 C 591.19 80.21 615.63 79.97 640.07 80.10 C 643.30 79.61 646.17 82.73 645.81 85.89 C 645.89 97.27 645.87 108.66 645.82 120.04 C 646.15 123.23 643.18 126.20 639.99 125.85 C 615.60 125.98 591.20 125.77 566.81 125.94 C 566.62 139.72 566.68 153.50 566.80 167.28 C 593.89 167.57 620.99 167.30 648.08 167.42 C 651.09 167.15 654.36 169.73 653.94 172.92 C 653.97 184.96 654.01 197.02 653.93 209.06 C 654.13 210.69 652.89 211.87 651.72 212.76 C 647.88 213.63 643.92 213.08 640.02 213.17 C 605.02 213.53 570.02 213.09 535.01 213.28 C 527.35 212.91 519.65 213.78 512.01 213.00 C 508.93 212.37 507.92 208.84 508.19 206.10 C 508.23 141.02 508.16 75.95 508.22 10.87 Z"/>
<path fill="#458ca5" d=" M 697.87 12.23 C 695.67 9.23 698.27 4.61 701.99 5.11 C 720.69 5.04 739.41 5.03 758.11 5.12 C 760.72 4.95 762.63 7.04 763.84 9.11 C 772.59 24.23 781.26 39.41 790.06 54.51 C 790.45 54.02 791.23 53.05 791.62 52.56 C 799.86 38.15 808.12 23.75 816.41 9.38 C 817.76 7.00 819.94 4.58 822.99 5.08 C 841.66 5.06 860.34 5.02 879.02 5.10 C 881.15 4.79 882.44 6.64 883.85 7.88 C 884.30 11.48 881.68 14.14 880.01 17.00 C 861.85 46.17 843.66 75.32 825.48 104.47 C 824.74 105.49 824.75 106.52 825.49 107.55 C 846.12 140.55 866.80 173.52 887.42 206.53 C 888.06 208.14 888.29 210.55 886.76 211.75 C 884.48 214.18 880.87 213.07 877.96 213.22 C 863.97 213.32 849.98 213.28 835.99 213.15 C 832.33 213.15 828.64 213.52 825.01 212.89 C 823.08 212.45 821.99 210.59 821.00 209.05 C 811.33 192.35 801.56 175.71 791.88 159.01 C 791.41 158.31 790.91 157.64 790.39 157.00 C 780.53 174.27 770.45 191.40 760.54 208.64 C 759.33 210.79 757.67 213.02 755.01 213.32 C 736.32 213.09 717.63 213.23 698.94 213.29 C 696.33 213.60 692.89 212.11 693.07 209.07 C 692.77 206.85 694.33 205.11 695.37 203.34 C 715.19 171.53 735.00 139.72 754.85 107.92 C 755.42 106.90 756.41 105.58 755.54 104.42 C 736.38 73.65 717.00 43.01 697.87 12.23 Z"/>
<path fill="#c4d733" d=" M 512.25 9.20 C 558.15 8.73 604.07 9.14 649.98 8.98 C 649.95 21.57 650.18 34.17 649.82 46.74 C 620.76 46.68 591.69 46.56 562.64 46.81 C 562.46 59.20 562.38 71.61 562.66 84.00 C 589.01 84.15 615.38 83.71 641.72 84.22 C 641.60 96.71 641.77 109.21 641.65 121.70 C 615.31 121.73 588.95 121.51 562.61 121.83 C 562.52 138.33 562.32 154.85 562.70 171.35 C 591.79 171.75 620.90 171.26 649.99 171.58 C 649.98 184.11 650.05 196.64 649.96 209.16 C 607.63 209.26 565.30 209.18 522.97 209.21 C 519.39 209.11 515.79 209.48 512.25 208.91 C 512.37 142.34 512.36 75.77 512.25 9.20 Z"/>
<path fill="#c4d733" d=" M 700.87 9.04 C 720.22 9.03 739.59 8.86 758.93 9.13 C 769.47 26.06 778.89 43.78 789.17 60.91 C 789.57 61.26 790.38 61.97 790.78 62.32 C 800.74 44.52 811.19 26.98 821.15 9.18 C 840.80 8.86 860.48 8.94 880.14 9.12 C 860.41 41.01 840.49 72.77 820.68 104.60 C 819.93 105.53 819.92 106.45 820.66 107.38 C 841.75 141.28 863.14 175.01 884.07 209.00 C 866.06 209.51 848.02 209.03 830.00 209.24 C 828.36 209.00 825.99 209.81 825.10 207.96 C 815.71 192.03 806.48 176.00 797.16 160.03 C 794.76 156.47 793.27 152.26 790.30 149.14 C 778.88 169.11 767.20 188.95 755.73 208.90 C 754.21 209.42 752.57 209.15 751.01 209.23 C 732.96 209.05 714.88 209.47 696.83 209.01 C 717.88 174.55 739.56 140.44 760.74 106.06 C 760.49 103.61 758.43 101.71 757.30 99.58 C 745.50 80.69 733.63 61.85 721.85 42.95 C 714.88 31.63 707.51 20.55 700.87 9.04 Z"/>
</svg>